<svg xmlns="http://www.w3.org/2000/svg" xmlns:xlink="http://www.w3.org/1999/xlink" class="lt-sld" role="img" aria-labelledby="lt-sld-title lt-sld-desc" width="784" height="1093" viewBox="0 0 784 1093"><title>GEN-0793 — BREWERY / ELECTRICAL DISTRIBUTION</title>
<desc>Single-line diagram with 22 nodes and 21 connections</desc>
<style>.lt-sld { font-family: "Inter", "Helvetica Neue", sans-serif; }
.lt-sld-stroke { stroke: #222222; stroke-width: 1.4; fill: none; }
.lt-sld-stroke-thick { stroke: #222222; stroke-width: 1.8; fill: none; stroke-linecap: round; }
.lt-sld-fill { fill: #ffffff; stroke: #222222; stroke-width: 1.4; }
.lt-sld-fill-dark { fill: #222222; stroke: #222222; stroke-width: 1; }
.lt-sld-dot { fill: #222222; stroke: none; }
.lt-sld-wire-clearance { stroke: #ffffff; stroke-width: 5; fill: none; }
.lt-sld-control { stroke: #222222; stroke-width: 1.4; stroke-dasharray: 5 4; fill: none; }
.lt-sld-wire { stroke: #222222; stroke-width: 1.4; fill: none; }
.lt-sld-bus { stroke: #111111; stroke-width: 3; stroke-linecap: square; }
.lt-sld-title { font-size: 16px; font-weight: 700; fill: #111111; }
.lt-sld-id { font-size: 11px; font-weight: 700; fill: #111111; text-anchor: middle; }
.lt-sld-id-side { font-size: 11px; font-weight: 700; fill: #111111; text-anchor: start; }
.lt-sld-rating { font-size: 9px; fill: #555555; text-anchor: middle; }
.lt-sld-rating-side { font-size: 9px; fill: #555555; text-anchor: start; }
.lt-sld-voltage { font-size: 10px; font-weight: 700; fill: #555555; }
.lt-sld-nameplate { font-size: 9px; fill: #555555; }
.lt-sld-cable { font-size: 9px; fill: #555555; }
.lt-sld-symbol-text:not([font-size]) { font-size: 11px; }
.lt-sld-symbol-text { fill: #111111; dominant-baseline: middle; }
.lt-sld-wdg:not([font-size]) { font-size: 10px; }
.lt-sld-wdg { font-weight: 700; fill: #222222; dominant-baseline: middle; }
.lt-sld-bus-label { font-size: 11px; font-weight: 700; fill: #1d4e89; }
.lt-sld-standard-badge { font-size: 10px; font-weight: 700; fill: #555555; letter-spacing: 0.3px; }
.lt-sld-unknown-box { fill: none; stroke: #1d4e89; stroke-width: 1.6; stroke-dasharray: 5 3; }
.lt-sld-unknown-mark { font-size: 16px; font-weight: 700; fill: #1d4e89; dominant-baseline: middle; }
.lt-sld-unknown-type { font-size: 9px; font-family: monospace; fill: #555555; }</style>
<text x="20" y="22" class="lt-sld-title" data-sld-role="title">GEN-0793 — BREWERY / ELECTRICAL DISTRIBUTION</text>
<g transform="translate(0, 12)"><path d="M 256.8225 74 L 256.8225 130" class="lt-sld-wire-clearance"/>
<path d="M 256.8225 74 L 256.8225 130" data-from="srcA1" data-to="mcbA1" class="lt-sld-wire"/>
<path d="M 256.8225 166 L 256.8225 236" class="lt-sld-wire-clearance"/>
<path d="M 256.8225 166 L 256.8225 236" data-from="mcbA1" data-to="mctA1" class="lt-sld-wire"/>
<path d="M 256.8225 268 L 256.8225 466" class="lt-sld-wire-clearance"/>
<path d="M 256.8225 268 L 256.8225 466" data-from="mctA1" data-to="busA" class="lt-sld-wire"/>
<path d="M 452.96410000000003 74 L 452.96410000000003 124" class="lt-sld-wire-clearance"/>
<path d="M 452.96410000000003 74 L 452.96410000000003 124" data-from="srcA2" data-to="txA2" class="lt-sld-wire"/>
<path d="M 452.96410000000003 172 L 452.96410000000003 234" class="lt-sld-wire-clearance"/>
<path d="M 452.96410000000003 172 L 452.96410000000003 234" data-from="txA2" data-to="mcbA2" class="lt-sld-wire"/>
<path d="M 452.96410000000003 270 L 452.96410000000003 328" class="lt-sld-wire-clearance"/>
<path d="M 452.96410000000003 270 L 452.96410000000003 328" data-from="mcbA2" data-to="mctA2" class="lt-sld-wire"/>
<path d="M 452.96410000000003 360 L 452.96410000000003 466" class="lt-sld-wire-clearance"/>
<path d="M 452.96410000000003 360 L 452.96410000000003 466" data-from="mctA2" data-to="busA" class="lt-sld-wire"/>
<path d="M 299.73779999999994 466 L 299.73779999999994 576" class="lt-sld-wire-clearance"/>
<path d="M 299.73779999999994 466 L 299.73779999999994 576" data-from="busA" data-to="f1cb" class="lt-sld-wire"/>
<text x="306.73779999999994" y="543" class="lt-sld-cable">3#4 AWG</text>
<path d="M 299.73779999999994 612 L 299.73779999999994 670" class="lt-sld-wire-clearance"/>
<path d="M 299.73779999999994 612 L 299.73779999999994 670" data-from="f1cb" data-to="f1ct" class="lt-sld-wire"/>
<path d="M 299.73779999999994 702 L 299.73779999999994 714 L 360.85529999999994 714 L 360.85529999999994 758" class="lt-sld-wire-clearance"/>
<path d="M 299.73779999999994 702 L 299.73779999999994 714 L 360.85529999999994 714 L 360.85529999999994 758" data-from="f1ct" data-to="f1pnl" class="lt-sld-wire"/>
<path d="M 360.85529999999994 798 L 360.85529999999994 870 L 242.46809999999994 870 L 242.46809999999994 882" class="lt-sld-wire-clearance"/>
<path d="M 360.85529999999994 798 L 360.85529999999994 870 L 242.46809999999994 870 L 242.46809999999994 882" data-from="f1pnl" data-to="f1l1cb" class="lt-sld-wire"/>
<path d="M 242.46809999999994 918 L 242.46809999999994 976" class="lt-sld-wire-clearance"/>
<path d="M 242.46809999999994 918 L 242.46809999999994 976" data-from="f1l1cb" data-to="f1l1m" class="lt-sld-wire"/>
<path d="M 360.85529999999994 798 L 360.85529999999994 870 L 426.1309 870 L 426.1309 882" class="lt-sld-wire-clearance"/>
<path d="M 360.85529999999994 798 L 360.85529999999994 870 L 426.1309 870 L 426.1309 882" data-from="f1pnl" data-to="f1l2cb" class="lt-sld-wire"/>
<path d="M 426.1309 918 L 426.1309 976" class="lt-sld-wire-clearance"/>
<path d="M 426.1309 918 L 426.1309 976" data-from="f1l2cb" data-to="f1l2m" class="lt-sld-wire"/>
<path d="M 603.0822 466 L 603.0822 576" class="lt-sld-wire-clearance"/>
<path d="M 603.0822 466 L 603.0822 576" data-from="busA" data-to="f2cb" class="lt-sld-wire"/>
<text x="610.0822" y="543" class="lt-sld-cable">3#4 AWG</text>
<path d="M 603.0822 612 L 603.0822 670" class="lt-sld-wire-clearance"/>
<path d="M 603.0822 612 L 603.0822 670" data-from="f2cb" data-to="f2ct" class="lt-sld-wire"/>
<path d="M 603.0822 702 L 603.0822 714 L 664.2997 714 L 664.2997 766" class="lt-sld-wire-clearance"/>
<path d="M 603.0822 702 L 603.0822 714 L 664.2997 714 L 664.2997 766" data-from="f2ct" data-to="f2l1ld" class="lt-sld-wire"/>
<path d="M 256.8225 268 L 256.8225 318 L 62.235 318 L 62.235 330" class="lt-sld-wire-clearance"/>
<path d="M 256.8225 268 L 256.8225 318 L 62.235 318 L 62.235 330" data-from="mctA1" data-to="mpmA1" class="lt-sld-wire" stroke-dasharray="6 4"/>
<path d="M 452.96410000000003 360 L 452.96410000000003 440 L 721.3172 440 L 721.3172 452" class="lt-sld-wire-clearance"/>
<path d="M 452.96410000000003 360 L 452.96410000000003 440 L 721.3172 440 L 721.3172 452" data-from="mctA2" data-to="mpmA2" class="lt-sld-wire" stroke-dasharray="6 4"/>
<path d="M 299.73779999999994 702 L 299.73779999999994 714 L 238.62029999999996 714 L 238.62029999999996 764" class="lt-sld-wire-clearance"/>
<path d="M 299.73779999999994 702 L 299.73779999999994 714 L 238.62029999999996 714 L 238.62029999999996 764" data-from="f1ct" data-to="f1pm" class="lt-sld-wire" stroke-dasharray="6 4"/>
<path d="M 603.0822 702 L 603.0822 714 L 541.8647 714 L 541.8647 764" class="lt-sld-wire-clearance"/>
<path d="M 603.0822 702 L 603.0822 714 L 541.8647 714 L 541.8647 764" data-from="f2ct" data-to="f2pm" class="lt-sld-wire" stroke-dasharray="6 4"/>
<circle cx="256.8225" cy="318" r="2" class="lt-sld-dot"/>
<circle cx="452.96410000000003" cy="440" r="2" class="lt-sld-dot"/>
<circle cx="299.73779999999994" cy="714" r="2" class="lt-sld-dot"/>
<circle cx="360.85529999999994" cy="870" r="2" class="lt-sld-dot"/>
<circle cx="603.0822" cy="714" r="2" class="lt-sld-dot"/>
<line x1="208.8225" y1="466" x2="651.0822" y2="466" class="lt-sld-bus" data-id="busA"/>
<text x="128.9613" y="463" class="lt-sld-id-side">BUS-409</text>
<text x="128.9613" y="477" class="lt-sld-id-side">480Y/277V</text>
<g transform="translate(256.8225, 56)" data-type="utility" data-id="srcA1"><g class="lt-sld-ansi"><style>.lt-sld-ansi .lt-sld-stroke, .lt-sld-ansi .lt-sld-fill { stroke-width: 1.4; }
.lt-sld-ansi .lt-sld-stroke-thick { stroke-width: 1.8; }
.lt-sld-ansi .lt-sld-ansi-fine { stroke-width: 1.4; }
.lt-sld-ansi .lt-sld-ansi-core { stroke-width: 1.4; }
.lt-sld-ansi .lt-sld-ansi-grid { stroke-width: 1.4; }
.lt-sld-ansi .lt-sld-ansi-hook { stroke-width: 1.4; }
.lt-sld-ansi text { dominant-baseline: auto; }
.lt-sld-ansi text[font-weight="600"] { font-weight: 600; }</style>
<g><line x1="0" y1="-24" x2="0" y2="-17" class="lt-sld-stroke"/>
<line x1="0" y1="17" x2="0" y2="18" class="lt-sld-stroke"/>
<circle cx="0" cy="0" r="17" class="lt-sld-fill"/>
<path d="M -9 0 Q -4.5 -9 0 0 T 9 0" stroke-linecap="round" class="lt-sld-stroke lt-sld-ansi-fine"/></g></g></g>
<text x="288.8225" y="53" class="lt-sld-id-side">13.8kV SUPPLY A</text>
<text x="288.8225" y="67" class="lt-sld-rating-side">13.8kV</text>
<g transform="translate(256.8225, 148)" data-type="breaker" data-id="mcbA1"><g class="lt-sld-ansi"><style>.lt-sld-ansi .lt-sld-stroke, .lt-sld-ansi .lt-sld-fill { stroke-width: 1.4; }
.lt-sld-ansi .lt-sld-stroke-thick { stroke-width: 1.8; }
.lt-sld-ansi .lt-sld-ansi-fine { stroke-width: 1.4; }
.lt-sld-ansi .lt-sld-ansi-core { stroke-width: 1.4; }
.lt-sld-ansi .lt-sld-ansi-grid { stroke-width: 1.4; }
.lt-sld-ansi .lt-sld-ansi-hook { stroke-width: 1.4; }
.lt-sld-ansi text { dominant-baseline: auto; }
.lt-sld-ansi text[font-weight="600"] { font-weight: 600; }</style>
<line x1="0" y1="-18" x2="0" y2="-14.25" class="lt-sld-stroke"/>
<line x1="0" y1="14.25" x2="0" y2="18" class="lt-sld-stroke"/>
<line x1="0" y1="14.25" x2="8.25" y2="-8.25" class="lt-sld-stroke-thick" data-sld-role="blade"/>
<circle cx="0" cy="14.25" r="2.1" class="lt-sld-dot"/>
<circle cx="0" cy="-14.25" r="2.1" class="lt-sld-dot"/>
<path d="M 8.25 -8.25 A 4.5 4.5 0 0 0 6 -13.125" stroke-linecap="round" class="lt-sld-stroke lt-sld-ansi-hook"/></g></g>
<text x="288.8225" y="145" class="lt-sld-id-side">CB-344</text>
<text x="288.8225" y="159" class="lt-sld-rating-side">ACB / 250 A / 3P</text>
<g transform="translate(256.8225, 252)" data-type="ct" data-id="mctA1"><g class="lt-sld-ansi"><style>.lt-sld-ansi .lt-sld-stroke, .lt-sld-ansi .lt-sld-fill { stroke-width: 1.4; }
.lt-sld-ansi .lt-sld-stroke-thick { stroke-width: 1.8; }
.lt-sld-ansi .lt-sld-ansi-fine { stroke-width: 1.4; }
.lt-sld-ansi .lt-sld-ansi-core { stroke-width: 1.4; }
.lt-sld-ansi .lt-sld-ansi-grid { stroke-width: 1.4; }
.lt-sld-ansi .lt-sld-ansi-hook { stroke-width: 1.4; }
.lt-sld-ansi text { dominant-baseline: auto; }
.lt-sld-ansi text[font-weight="600"] { font-weight: 600; }</style>
<line x1="0" y1="-16" x2="0" y2="-4.05" class="lt-sld-stroke"/>
<line x1="0" y1="4.05" x2="0" y2="16" class="lt-sld-stroke"/>
<line stroke-linecap="square" class="lt-sld-stroke lt-sld-ansi-core" x1="-4.05" y1="0" x2="-9.45" y2="0"/>
<circle cx="0" cy="0" r="9" class="lt-sld-fill"/>
<text x="0" y="1.35" font-size="9" font-weight="700" text-anchor="middle" class="lt-sld-symbol-text lt-sld-wdg">CT</text></g></g>
<text x="280.8225" y="249" class="lt-sld-id-side">TA-718</text>
<text x="280.8225" y="263" class="lt-sld-rating-side">3 CTs / 250/5 A</text>
<g transform="translate(62.235, 344)" data-type="watthour_meter" data-id="mpmA1"><g class="lt-sld-ansi"><style>.lt-sld-ansi .lt-sld-stroke, .lt-sld-ansi .lt-sld-fill { stroke-width: 1.4; }
.lt-sld-ansi .lt-sld-stroke-thick { stroke-width: 1.8; }
.lt-sld-ansi .lt-sld-ansi-fine { stroke-width: 1.4; }
.lt-sld-ansi .lt-sld-ansi-core { stroke-width: 1.4; }
.lt-sld-ansi .lt-sld-ansi-grid { stroke-width: 1.4; }
.lt-sld-ansi .lt-sld-ansi-hook { stroke-width: 1.4; }
.lt-sld-ansi text { dominant-baseline: auto; }
.lt-sld-ansi text[font-weight="600"] { font-weight: 600; }</style>
<g><line x1="0" y1="-14" x2="0" y2="-13" class="lt-sld-stroke"/>
<line x1="0" y1="13" x2="0" y2="14" class="lt-sld-stroke"/>
<circle cx="0" cy="0" r="13" class="lt-sld-fill"/>
<text x="0" y="4" font-size="9" font-weight="600" text-anchor="middle" class="lt-sld-symbol-text lt-sld-wdg">Wh</text></g></g></g>
<text x="36" y="374" class="lt-sld-id-side">PM-1018</text>
<text x="43.69499999999999" y="388" class="lt-sld-rating-side">kW / kWh</text>
<g transform="translate(452.96410000000003, 56)" data-type="utility" data-id="srcA2"><g class="lt-sld-ansi"><style>.lt-sld-ansi .lt-sld-stroke, .lt-sld-ansi .lt-sld-fill { stroke-width: 1.4; }
.lt-sld-ansi .lt-sld-stroke-thick { stroke-width: 1.8; }
.lt-sld-ansi .lt-sld-ansi-fine { stroke-width: 1.4; }
.lt-sld-ansi .lt-sld-ansi-core { stroke-width: 1.4; }
.lt-sld-ansi .lt-sld-ansi-grid { stroke-width: 1.4; }
.lt-sld-ansi .lt-sld-ansi-hook { stroke-width: 1.4; }
.lt-sld-ansi text { dominant-baseline: auto; }
.lt-sld-ansi text[font-weight="600"] { font-weight: 600; }</style>
<g><line x1="0" y1="-24" x2="0" y2="-17" class="lt-sld-stroke"/>
<line x1="0" y1="17" x2="0" y2="18" class="lt-sld-stroke"/>
<circle cx="0" cy="0" r="17" class="lt-sld-fill"/>
<path d="M -9 0 Q -4.5 -9 0 0 T 9 0" stroke-linecap="round" class="lt-sld-stroke lt-sld-ansi-fine"/></g></g></g>
<text x="484.96410000000003" y="53" class="lt-sld-id-side">13.8kV STANDBY</text>
<text x="484.96410000000003" y="67" class="lt-sld-rating-side">13.8kV</text>
<g transform="translate(452.96410000000003, 148)" data-type="transformer_yd" data-id="txA2"><g class="lt-sld-ansi"><style>.lt-sld-ansi .lt-sld-stroke, .lt-sld-ansi .lt-sld-fill { stroke-width: 1.4; }
.lt-sld-ansi .lt-sld-stroke-thick { stroke-width: 1.8; }
.lt-sld-ansi .lt-sld-ansi-fine { stroke-width: 1.4; }
.lt-sld-ansi .lt-sld-ansi-core { stroke-width: 1.4; }
.lt-sld-ansi .lt-sld-ansi-grid { stroke-width: 1.4; }
.lt-sld-ansi .lt-sld-ansi-hook { stroke-width: 1.4; }
.lt-sld-ansi text { dominant-baseline: auto; }
.lt-sld-ansi text[font-weight="600"] { font-weight: 600; }</style>
<line x1="0" y1="-24" x2="0" y2="-8" class="lt-sld-stroke"/>
<line x1="0" y1="8" x2="0" y2="24" class="lt-sld-stroke"/>
<path d="M -9 -5 A 3 3 0 0 1 -3 -5 A 3 3 0 0 1 3 -5 A 3 3 0 0 1 9 -5" stroke-linecap="round" class="lt-sld-stroke"/>
<path d="M -9 5 A 3 3 0 0 0 -3 5 A 3 3 0 0 0 3 5 A 3 3 0 0 0 9 5" stroke-linecap="round" class="lt-sld-stroke"/>
<path d="M -11 -1.5 L 11 -1.5 M -11 1.5 L 11 1.5" class="lt-sld-stroke lt-sld-ansi-core"/>
<path d="M -19.5 -14.5 L -16.5 -11.5 L -13.5 -14.5 M -16.5 -11.5 L -16.5 -4" stroke-linecap="round" class="lt-sld-stroke lt-sld-ansi-fine"/>
<path d="M -20.5 -4 L -12.5 -4 M -19 -2 L -14 -2 M -17.5 0 L -15.5 0" stroke-linecap="round" class="lt-sld-stroke lt-sld-ansi-fine"/>
<path d="M -16.5 3 L -13.25 8.5 L -19.75 8.5 Z" stroke-linecap="round" stroke-linejoin="round" class="lt-sld-stroke lt-sld-ansi-fine"/></g></g>
<text x="488.96410000000003" y="145" class="lt-sld-id-side">TX-1611</text>
<text x="488.96410000000003" y="159" class="lt-sld-rating-side">520 kVA</text>
<text x="488.96410000000003" y="171" class="lt-sld-rating-side">13.8kV / 480Y/277V</text>
<g transform="translate(452.96410000000003, 252)" data-type="breaker" data-id="mcbA2"><g class="lt-sld-ansi"><style>.lt-sld-ansi .lt-sld-stroke, .lt-sld-ansi .lt-sld-fill { stroke-width: 1.4; }
.lt-sld-ansi .lt-sld-stroke-thick { stroke-width: 1.8; }
.lt-sld-ansi .lt-sld-ansi-fine { stroke-width: 1.4; }
.lt-sld-ansi .lt-sld-ansi-core { stroke-width: 1.4; }
.lt-sld-ansi .lt-sld-ansi-grid { stroke-width: 1.4; }
.lt-sld-ansi .lt-sld-ansi-hook { stroke-width: 1.4; }
.lt-sld-ansi text { dominant-baseline: auto; }
.lt-sld-ansi text[font-weight="600"] { font-weight: 600; }</style>
<line x1="0" y1="-18" x2="0" y2="-14.25" class="lt-sld-stroke"/>
<line x1="0" y1="14.25" x2="0" y2="18" class="lt-sld-stroke"/>
<line x1="0" y1="14.25" x2="8.25" y2="-8.25" class="lt-sld-stroke-thick" data-sld-role="blade"/>
<circle cx="0" cy="14.25" r="2.1" class="lt-sld-dot"/>
<circle cx="0" cy="-14.25" r="2.1" class="lt-sld-dot"/>
<path d="M 8.25 -8.25 A 4.5 4.5 0 0 0 6 -13.125" stroke-linecap="round" class="lt-sld-stroke lt-sld-ansi-hook"/></g></g>
<text x="484.96410000000003" y="249" class="lt-sld-id-side">CB-347</text>
<text x="484.96410000000003" y="263" class="lt-sld-rating-side">ACB / 630 A / 3P</text>
<g transform="translate(452.96410000000003, 344)" data-type="ct" data-id="mctA2"><g class="lt-sld-ansi"><style>.lt-sld-ansi .lt-sld-stroke, .lt-sld-ansi .lt-sld-fill { stroke-width: 1.4; }
.lt-sld-ansi .lt-sld-stroke-thick { stroke-width: 1.8; }
.lt-sld-ansi .lt-sld-ansi-fine { stroke-width: 1.4; }
.lt-sld-ansi .lt-sld-ansi-core { stroke-width: 1.4; }
.lt-sld-ansi .lt-sld-ansi-grid { stroke-width: 1.4; }
.lt-sld-ansi .lt-sld-ansi-hook { stroke-width: 1.4; }
.lt-sld-ansi text { dominant-baseline: auto; }
.lt-sld-ansi text[font-weight="600"] { font-weight: 600; }</style>
<line x1="0" y1="-16" x2="0" y2="-4.05" class="lt-sld-stroke"/>
<line x1="0" y1="4.05" x2="0" y2="16" class="lt-sld-stroke"/>
<line stroke-linecap="square" class="lt-sld-stroke lt-sld-ansi-core" x1="-4.05" y1="0" x2="-9.45" y2="0"/>
<circle cx="0" cy="0" r="9" class="lt-sld-fill"/>
<text x="0" y="1.35" font-size="9" font-weight="700" text-anchor="middle" class="lt-sld-symbol-text lt-sld-wdg">CT</text></g></g>
<text x="476.96410000000003" y="341" class="lt-sld-id-side">TA-781</text>
<text x="476.96410000000003" y="355" class="lt-sld-rating-side">3 CTs / 630/5 A</text>
<g transform="translate(721.3172, 466)" data-type="watthour_meter" data-id="mpmA2"><g class="lt-sld-ansi"><style>.lt-sld-ansi .lt-sld-stroke, .lt-sld-ansi .lt-sld-fill { stroke-width: 1.4; }
.lt-sld-ansi .lt-sld-stroke-thick { stroke-width: 1.8; }
.lt-sld-ansi .lt-sld-ansi-fine { stroke-width: 1.4; }
.lt-sld-ansi .lt-sld-ansi-core { stroke-width: 1.4; }
.lt-sld-ansi .lt-sld-ansi-grid { stroke-width: 1.4; }
.lt-sld-ansi .lt-sld-ansi-hook { stroke-width: 1.4; }
.lt-sld-ansi text { dominant-baseline: auto; }
.lt-sld-ansi text[font-weight="600"] { font-weight: 600; }</style>
<g><line x1="0" y1="-14" x2="0" y2="-13" class="lt-sld-stroke"/>
<line x1="0" y1="13" x2="0" y2="14" class="lt-sld-stroke"/>
<circle cx="0" cy="0" r="13" class="lt-sld-fill"/>
<text x="0" y="4" font-size="9" font-weight="600" text-anchor="middle" class="lt-sld-symbol-text lt-sld-wdg">Wh</text></g></g></g>
<text x="695.0822" y="496" class="lt-sld-id-side">PM-1080</text>
<text x="702.7772" y="510" class="lt-sld-rating-side">kW / kWh</text>
<g transform="translate(299.73779999999994, 594)" data-type="breaker" data-id="f1cb"><g class="lt-sld-ansi"><style>.lt-sld-ansi .lt-sld-stroke, .lt-sld-ansi .lt-sld-fill { stroke-width: 1.4; }
.lt-sld-ansi .lt-sld-stroke-thick { stroke-width: 1.8; }
.lt-sld-ansi .lt-sld-ansi-fine { stroke-width: 1.4; }
.lt-sld-ansi .lt-sld-ansi-core { stroke-width: 1.4; }
.lt-sld-ansi .lt-sld-ansi-grid { stroke-width: 1.4; }
.lt-sld-ansi .lt-sld-ansi-hook { stroke-width: 1.4; }
.lt-sld-ansi text { dominant-baseline: auto; }
.lt-sld-ansi text[font-weight="600"] { font-weight: 600; }</style>
<line x1="0" y1="-18" x2="0" y2="-14.25" class="lt-sld-stroke"/>
<line x1="0" y1="14.25" x2="0" y2="18" class="lt-sld-stroke"/>
<line x1="0" y1="14.25" x2="8.25" y2="-8.25" class="lt-sld-stroke-thick" data-sld-role="blade"/>
<circle cx="0" cy="14.25" r="2.1" class="lt-sld-dot"/>
<circle cx="0" cy="-14.25" r="2.1" class="lt-sld-dot"/>
<path d="M 8.25 -8.25 A 4.5 4.5 0 0 0 6 -13.125" stroke-linecap="round" class="lt-sld-stroke lt-sld-ansi-hook"/></g></g>
<text x="331.73779999999994" y="591" class="lt-sld-id-side">CB-388</text>
<text x="331.73779999999994" y="605" class="lt-sld-rating-side">MCCB / 100 A / 3P</text>
<g transform="translate(299.73779999999994, 686)" data-type="ct" data-id="f1ct"><g class="lt-sld-ansi"><style>.lt-sld-ansi .lt-sld-stroke, .lt-sld-ansi .lt-sld-fill { stroke-width: 1.4; }
.lt-sld-ansi .lt-sld-stroke-thick { stroke-width: 1.8; }
.lt-sld-ansi .lt-sld-ansi-fine { stroke-width: 1.4; }
.lt-sld-ansi .lt-sld-ansi-core { stroke-width: 1.4; }
.lt-sld-ansi .lt-sld-ansi-grid { stroke-width: 1.4; }
.lt-sld-ansi .lt-sld-ansi-hook { stroke-width: 1.4; }
.lt-sld-ansi text { dominant-baseline: auto; }
.lt-sld-ansi text[font-weight="600"] { font-weight: 600; }</style>
<line x1="0" y1="-16" x2="0" y2="-4.05" class="lt-sld-stroke"/>
<line x1="0" y1="4.05" x2="0" y2="16" class="lt-sld-stroke"/>
<line stroke-linecap="square" class="lt-sld-stroke lt-sld-ansi-core" x1="-4.05" y1="0" x2="-9.45" y2="0"/>
<circle cx="0" cy="0" r="9" class="lt-sld-fill"/>
<text x="0" y="1.35" font-size="9" font-weight="700" text-anchor="middle" class="lt-sld-symbol-text lt-sld-wdg">CT</text></g></g>
<text x="323.73779999999994" y="683" class="lt-sld-id-side">TA-727</text>
<text x="323.73779999999994" y="697" class="lt-sld-rating-side">3 CTs / 100/5 A</text>
<g transform="translate(238.62029999999996, 778)" data-type="watthour_meter" data-id="f1pm"><g class="lt-sld-ansi"><style>.lt-sld-ansi .lt-sld-stroke, .lt-sld-ansi .lt-sld-fill { stroke-width: 1.4; }
.lt-sld-ansi .lt-sld-stroke-thick { stroke-width: 1.8; }
.lt-sld-ansi .lt-sld-ansi-fine { stroke-width: 1.4; }
.lt-sld-ansi .lt-sld-ansi-core { stroke-width: 1.4; }
.lt-sld-ansi .lt-sld-ansi-grid { stroke-width: 1.4; }
.lt-sld-ansi .lt-sld-ansi-hook { stroke-width: 1.4; }
.lt-sld-ansi text { dominant-baseline: auto; }
.lt-sld-ansi text[font-weight="600"] { font-weight: 600; }</style>
<g><line x1="0" y1="-14" x2="0" y2="-13" class="lt-sld-stroke"/>
<line x1="0" y1="13" x2="0" y2="14" class="lt-sld-stroke"/>
<circle cx="0" cy="0" r="13" class="lt-sld-fill"/>
<text x="0" y="4" font-size="9" font-weight="600" text-anchor="middle" class="lt-sld-symbol-text lt-sld-wdg">Wh</text></g></g></g>
<text x="212.38529999999994" y="808" class="lt-sld-id-side">PM-1010</text>
<text x="220.08029999999997" y="822" class="lt-sld-rating-side">kW / kWh</text>
<g transform="translate(360.85529999999994, 778)" data-type="hub" data-id="f1pnl"><g class="lt-sld-ansi"><style>.lt-sld-ansi .lt-sld-stroke, .lt-sld-ansi .lt-sld-fill { stroke-width: 1.4; }
.lt-sld-ansi .lt-sld-stroke-thick { stroke-width: 1.8; }
.lt-sld-ansi .lt-sld-ansi-fine { stroke-width: 1.4; }
.lt-sld-ansi .lt-sld-ansi-core { stroke-width: 1.4; }
.lt-sld-ansi .lt-sld-ansi-grid { stroke-width: 1.4; }
.lt-sld-ansi .lt-sld-ansi-hook { stroke-width: 1.4; }
.lt-sld-ansi text { dominant-baseline: auto; }
.lt-sld-ansi text[font-weight="600"] { font-weight: 600; }</style>
<g><line x1="0" y1="-20" x2="0" y2="-16" class="lt-sld-stroke"/>
<line x1="0" y1="16" x2="0" y2="20" class="lt-sld-stroke"/>
<rect x="-30" y="-16" width="60" height="32" class="lt-sld-fill"/>
<text x="0" y="4" font-size="11" lengthAdjust="spacingAndGlyphs" font-weight="700" text-anchor="middle" class="lt-sld-symbol-text lt-sld-wdg">FD-940</text></g></g></g>
<text x="426.85529999999994" y="775" class="lt-sld-rating-side">3P+N</text>
<g transform="translate(242.46809999999994, 900)" data-type="breaker" data-id="f1l1cb"><g class="lt-sld-ansi"><style>.lt-sld-ansi .lt-sld-stroke, .lt-sld-ansi .lt-sld-fill { stroke-width: 1.4; }
.lt-sld-ansi .lt-sld-stroke-thick { stroke-width: 1.8; }
.lt-sld-ansi .lt-sld-ansi-fine { stroke-width: 1.4; }
.lt-sld-ansi .lt-sld-ansi-core { stroke-width: 1.4; }
.lt-sld-ansi .lt-sld-ansi-grid { stroke-width: 1.4; }
.lt-sld-ansi .lt-sld-ansi-hook { stroke-width: 1.4; }
.lt-sld-ansi text { dominant-baseline: auto; }
.lt-sld-ansi text[font-weight="600"] { font-weight: 600; }</style>
<line x1="0" y1="-18" x2="0" y2="-14.25" class="lt-sld-stroke"/>
<line x1="0" y1="14.25" x2="0" y2="18" class="lt-sld-stroke"/>
<line x1="0" y1="14.25" x2="8.25" y2="-8.25" class="lt-sld-stroke-thick" data-sld-role="blade"/>
<circle cx="0" cy="14.25" r="2.1" class="lt-sld-dot"/>
<circle cx="0" cy="-14.25" r="2.1" class="lt-sld-dot"/>
<path d="M 8.25 -8.25 A 4.5 4.5 0 0 0 6 -13.125" stroke-linecap="round" class="lt-sld-stroke lt-sld-ansi-hook"/></g></g>
<text x="274.46809999999994" y="897" class="lt-sld-id-side">CB-334</text>
<text x="274.46809999999994" y="911" class="lt-sld-rating-side">MCCB / 32 A / 3P</text>
<g transform="translate(242.46809999999994, 992)" data-type="motor" data-id="f1l1m"><g class="lt-sld-ansi"><style>.lt-sld-ansi .lt-sld-stroke, .lt-sld-ansi .lt-sld-fill { stroke-width: 1.4; }
.lt-sld-ansi .lt-sld-stroke-thick { stroke-width: 1.8; }
.lt-sld-ansi .lt-sld-ansi-fine { stroke-width: 1.4; }
.lt-sld-ansi .lt-sld-ansi-core { stroke-width: 1.4; }
.lt-sld-ansi .lt-sld-ansi-grid { stroke-width: 1.4; }
.lt-sld-ansi .lt-sld-ansi-hook { stroke-width: 1.4; }
.lt-sld-ansi text { dominant-baseline: auto; }
.lt-sld-ansi text[font-weight="600"] { font-weight: 600; }</style>
<g><line x1="0" y1="-16" x2="0" y2="-15" class="lt-sld-stroke"/>
<line x1="0" y1="15" x2="0" y2="22" class="lt-sld-stroke"/>
<circle cx="0" cy="0" r="15" class="lt-sld-fill"/>
<text x="0" y="5" font-size="13" font-weight="700" text-anchor="middle" class="lt-sld-symbol-text lt-sld-wdg">M</text></g></g></g>
<text x="212.38529999999992" y="1030" class="lt-sld-id-side">MTR-1145</text>
<text x="212.49809999999994" y="1044" class="lt-sld-rating-side">16 kW / COMP</text>
<g transform="translate(426.1309, 900)" data-type="breaker" data-id="f1l2cb"><g class="lt-sld-ansi"><style>.lt-sld-ansi .lt-sld-stroke, .lt-sld-ansi .lt-sld-fill { stroke-width: 1.4; }
.lt-sld-ansi .lt-sld-stroke-thick { stroke-width: 1.8; }
.lt-sld-ansi .lt-sld-ansi-fine { stroke-width: 1.4; }
.lt-sld-ansi .lt-sld-ansi-core { stroke-width: 1.4; }
.lt-sld-ansi .lt-sld-ansi-grid { stroke-width: 1.4; }
.lt-sld-ansi .lt-sld-ansi-hook { stroke-width: 1.4; }
.lt-sld-ansi text { dominant-baseline: auto; }
.lt-sld-ansi text[font-weight="600"] { font-weight: 600; }</style>
<line x1="0" y1="-18" x2="0" y2="-14.25" class="lt-sld-stroke"/>
<line x1="0" y1="14.25" x2="0" y2="18" class="lt-sld-stroke"/>
<line x1="0" y1="14.25" x2="8.25" y2="-8.25" class="lt-sld-stroke-thick" data-sld-role="blade"/>
<circle cx="0" cy="14.25" r="2.1" class="lt-sld-dot"/>
<circle cx="0" cy="-14.25" r="2.1" class="lt-sld-dot"/>
<path d="M 8.25 -8.25 A 4.5 4.5 0 0 0 6 -13.125" stroke-linecap="round" class="lt-sld-stroke lt-sld-ansi-hook"/></g></g>
<text x="458.1309" y="897" class="lt-sld-id-side">CB-360</text>
<text x="458.1309" y="911" class="lt-sld-rating-side">MCCB / 63 A / 3P</text>
<g transform="translate(426.1309, 992)" data-type="motor" data-id="f1l2m"><g class="lt-sld-ansi"><style>.lt-sld-ansi .lt-sld-stroke, .lt-sld-ansi .lt-sld-fill { stroke-width: 1.4; }
.lt-sld-ansi .lt-sld-stroke-thick { stroke-width: 1.8; }
.lt-sld-ansi .lt-sld-ansi-fine { stroke-width: 1.4; }
.lt-sld-ansi .lt-sld-ansi-core { stroke-width: 1.4; }
.lt-sld-ansi .lt-sld-ansi-grid { stroke-width: 1.4; }
.lt-sld-ansi .lt-sld-ansi-hook { stroke-width: 1.4; }
.lt-sld-ansi text { dominant-baseline: auto; }
.lt-sld-ansi text[font-weight="600"] { font-weight: 600; }</style>
<g><line x1="0" y1="-16" x2="0" y2="-15" class="lt-sld-stroke"/>
<line x1="0" y1="15" x2="0" y2="22" class="lt-sld-stroke"/>
<circle cx="0" cy="0" r="15" class="lt-sld-fill"/>
<text x="0" y="5" font-size="13" font-weight="700" text-anchor="middle" class="lt-sld-symbol-text lt-sld-wdg">M</text></g></g></g>
<text x="396.0481" y="1030" class="lt-sld-id-side">MTR-1184</text>
<text x="396.16089999999997" y="1044" class="lt-sld-rating-side">36 kW / COMP</text>
<g transform="translate(603.0822, 594)" data-type="breaker" data-id="f2cb"><g class="lt-sld-ansi"><style>.lt-sld-ansi .lt-sld-stroke, .lt-sld-ansi .lt-sld-fill { stroke-width: 1.4; }
.lt-sld-ansi .lt-sld-stroke-thick { stroke-width: 1.8; }
.lt-sld-ansi .lt-sld-ansi-fine { stroke-width: 1.4; }
.lt-sld-ansi .lt-sld-ansi-core { stroke-width: 1.4; }
.lt-sld-ansi .lt-sld-ansi-grid { stroke-width: 1.4; }
.lt-sld-ansi .lt-sld-ansi-hook { stroke-width: 1.4; }
.lt-sld-ansi text { dominant-baseline: auto; }
.lt-sld-ansi text[font-weight="600"] { font-weight: 600; }</style>
<line x1="0" y1="-18" x2="0" y2="-14.25" class="lt-sld-stroke"/>
<line x1="0" y1="14.25" x2="0" y2="18" class="lt-sld-stroke"/>
<line x1="0" y1="14.25" x2="8.25" y2="-8.25" class="lt-sld-stroke-thick" data-sld-role="blade"/>
<circle cx="0" cy="14.25" r="2.1" class="lt-sld-dot"/>
<circle cx="0" cy="-14.25" r="2.1" class="lt-sld-dot"/>
<path d="M 8.25 -8.25 A 4.5 4.5 0 0 0 6 -13.125" stroke-linecap="round" class="lt-sld-stroke lt-sld-ansi-hook"/></g></g>
<text x="635.0822" y="591" class="lt-sld-id-side">CB-373</text>
<text x="635.0822" y="605" class="lt-sld-rating-side">MCCB / 63 A / 3P</text>
<g transform="translate(603.0822, 686)" data-type="ct" data-id="f2ct"><g class="lt-sld-ansi"><style>.lt-sld-ansi .lt-sld-stroke, .lt-sld-ansi .lt-sld-fill { stroke-width: 1.4; }
.lt-sld-ansi .lt-sld-stroke-thick { stroke-width: 1.8; }
.lt-sld-ansi .lt-sld-ansi-fine { stroke-width: 1.4; }
.lt-sld-ansi .lt-sld-ansi-core { stroke-width: 1.4; }
.lt-sld-ansi .lt-sld-ansi-grid { stroke-width: 1.4; }
.lt-sld-ansi .lt-sld-ansi-hook { stroke-width: 1.4; }
.lt-sld-ansi text { dominant-baseline: auto; }
.lt-sld-ansi text[font-weight="600"] { font-weight: 600; }</style>
<line x1="0" y1="-16" x2="0" y2="-4.05" class="lt-sld-stroke"/>
<line x1="0" y1="4.05" x2="0" y2="16" class="lt-sld-stroke"/>
<line stroke-linecap="square" class="lt-sld-stroke lt-sld-ansi-core" x1="-4.05" y1="0" x2="-9.45" y2="0"/>
<circle cx="0" cy="0" r="9" class="lt-sld-fill"/>
<text x="0" y="1.35" font-size="9" font-weight="700" text-anchor="middle" class="lt-sld-symbol-text lt-sld-wdg">CT</text></g></g>
<text x="627.0822" y="683" class="lt-sld-id-side">TA-708</text>
<text x="627.0822" y="697" class="lt-sld-rating-side">3 CTs / 63/5 A</text>
<g transform="translate(541.8647, 778)" data-type="watthour_meter" data-id="f2pm"><g class="lt-sld-ansi"><style>.lt-sld-ansi .lt-sld-stroke, .lt-sld-ansi .lt-sld-fill { stroke-width: 1.4; }
.lt-sld-ansi .lt-sld-stroke-thick { stroke-width: 1.8; }
.lt-sld-ansi .lt-sld-ansi-fine { stroke-width: 1.4; }
.lt-sld-ansi .lt-sld-ansi-core { stroke-width: 1.4; }
.lt-sld-ansi .lt-sld-ansi-grid { stroke-width: 1.4; }
.lt-sld-ansi .lt-sld-ansi-hook { stroke-width: 1.4; }
.lt-sld-ansi text { dominant-baseline: auto; }
.lt-sld-ansi text[font-weight="600"] { font-weight: 600; }</style>
<g><line x1="0" y1="-14" x2="0" y2="-13" class="lt-sld-stroke"/>
<line x1="0" y1="13" x2="0" y2="14" class="lt-sld-stroke"/>
<circle cx="0" cy="0" r="13" class="lt-sld-fill"/>
<text x="0" y="4" font-size="9" font-weight="600" text-anchor="middle" class="lt-sld-symbol-text lt-sld-wdg">Wh</text></g></g></g>
<text x="515.6297" y="808" class="lt-sld-id-side">PM-1099</text>
<text x="523.3246999999999" y="822" class="lt-sld-rating-side">kW / kWh</text>
<g transform="translate(664.2997, 778)" data-type="load" data-id="f2l1ld"><g class="lt-sld-ansi"><style>.lt-sld-ansi .lt-sld-stroke, .lt-sld-ansi .lt-sld-fill { stroke-width: 1.4; }
.lt-sld-ansi .lt-sld-stroke-thick { stroke-width: 1.8; }
.lt-sld-ansi .lt-sld-ansi-fine { stroke-width: 1.4; }
.lt-sld-ansi .lt-sld-ansi-core { stroke-width: 1.4; }
.lt-sld-ansi .lt-sld-ansi-grid { stroke-width: 1.4; }
.lt-sld-ansi .lt-sld-ansi-hook { stroke-width: 1.4; }
.lt-sld-ansi text { dominant-baseline: auto; }
.lt-sld-ansi text[font-weight="600"] { font-weight: 600; }</style>
<line x1="0" y1="-12" x2="0" y2="-10.4" class="lt-sld-stroke"/>
<line x1="0" y1="10.4" x2="0" y2="12" class="lt-sld-stroke"/>
<path d="M -11.2 -10.4 L 11.2 -10.4 L 0 10.4 Z" stroke-linejoin="miter" class="lt-sld-fill"/></g></g>
<text x="634.2169" y="806" class="lt-sld-id-side">PNL-1444</text>
<text x="612.0997" y="820" class="lt-sld-rating-side">CELLAR PANEL / 10 kW</text></g></svg>