<svg xmlns="http://www.w3.org/2000/svg" xmlns:xlink="http://www.w3.org/1999/xlink" class="lt-sld" role="img" aria-labelledby="lt-sld-title lt-sld-desc" width="751" height="1003" viewBox="0 0 751 1003"><title>GEN-0171 — COLD STORAGE UNIT / ELECTRICAL DISTRIBUTION</title>
<desc>Single-line diagram with 20 nodes and 19 connections</desc>
<style>.lt-sld { font-family: "Inter", "Helvetica Neue", sans-serif; }
.lt-sld-stroke { stroke: #222222; stroke-width: 1.4; fill: none; }
.lt-sld-stroke-thick { stroke: #222222; stroke-width: 1.8; fill: none; stroke-linecap: round; }
.lt-sld-fill { fill: #ffffff; stroke: #222222; stroke-width: 1.4; }
.lt-sld-fill-dark { fill: #222222; stroke: #222222; stroke-width: 1; }
.lt-sld-dot { fill: #222222; stroke: none; }
.lt-sld-wire-clearance { stroke: #ffffff; stroke-width: 5; fill: none; }
.lt-sld-control { stroke: #222222; stroke-width: 1.4; stroke-dasharray: 5 4; fill: none; }
.lt-sld-wire { stroke: #222222; stroke-width: 1.4; fill: none; }
.lt-sld-bus { stroke: #111111; stroke-width: 3; stroke-linecap: square; }
.lt-sld-title { font-size: 16px; font-weight: 700; fill: #111111; }
.lt-sld-id { font-size: 11px; font-weight: 700; fill: #111111; text-anchor: middle; }
.lt-sld-id-side { font-size: 11px; font-weight: 700; fill: #111111; text-anchor: start; }
.lt-sld-rating { font-size: 9px; fill: #555555; text-anchor: middle; }
.lt-sld-rating-side { font-size: 9px; fill: #555555; text-anchor: start; }
.lt-sld-voltage { font-size: 10px; font-weight: 700; fill: #555555; }
.lt-sld-nameplate { font-size: 9px; fill: #555555; }
.lt-sld-cable { font-size: 9px; fill: #555555; }
.lt-sld-symbol-text:not([font-size]) { font-size: 11px; }
.lt-sld-symbol-text { fill: #111111; dominant-baseline: middle; }
.lt-sld-wdg:not([font-size]) { font-size: 10px; }
.lt-sld-wdg { font-weight: 700; fill: #222222; dominant-baseline: middle; }
.lt-sld-bus-label { font-size: 11px; font-weight: 700; fill: #1d4e89; }
.lt-sld-standard-badge { font-size: 10px; font-weight: 700; fill: #555555; letter-spacing: 0.3px; }
.lt-sld-unknown-box { fill: none; stroke: #1d4e89; stroke-width: 1.6; stroke-dasharray: 5 3; }
.lt-sld-unknown-mark { font-size: 16px; font-weight: 700; fill: #1d4e89; dominant-baseline: middle; }
.lt-sld-unknown-type { font-size: 9px; font-family: monospace; fill: #555555; }</style>
<text x="20" y="22" class="lt-sld-title" data-sld-role="title">GEN-0171 — COLD STORAGE UNIT / ELECTRICAL DISTRIBUTION</text>
<g transform="translate(0, 12)"><path d="M 569.9063 74 L 569.9063 136" class="lt-sld-wire-clearance"/>
<path d="M 569.9063 74 L 569.9063 136" data-from="srcA1" data-to="txA1" class="lt-sld-wire"/>
<path d="M 569.9063 184 L 569.9063 246" class="lt-sld-wire-clearance"/>
<path d="M 569.9063 184 L 569.9063 246" data-from="txA1" data-to="mcbA1" class="lt-sld-wire"/>
<path d="M 569.9063 282 L 569.9063 340" class="lt-sld-wire-clearance"/>
<path d="M 569.9063 282 L 569.9063 340" data-from="mcbA1" data-to="mctA1" class="lt-sld-wire"/>
<path d="M 569.9063 372 L 569.9063 478" class="lt-sld-wire-clearance"/>
<path d="M 569.9063 372 L 569.9063 478" data-from="mctA1" data-to="busA" class="lt-sld-wire"/>
<path d="M 349.0455 74 L 349.0455 142" class="lt-sld-wire-clearance"/>
<path d="M 349.0455 74 L 349.0455 142" data-from="srcA2" data-to="mcbA2" class="lt-sld-wire"/>
<path d="M 349.0455 178 L 349.0455 248" class="lt-sld-wire-clearance"/>
<path d="M 349.0455 178 L 349.0455 248" data-from="mcbA2" data-to="mctA2" class="lt-sld-wire"/>
<path d="M 349.0455 280 L 349.0455 478" class="lt-sld-wire-clearance"/>
<path d="M 349.0455 280 L 349.0455 478" data-from="mctA2" data-to="busA" class="lt-sld-wire"/>
<path d="M 358.6499999999999 478 L 358.6499999999999 588" class="lt-sld-wire-clearance"/>
<path d="M 358.6499999999999 478 L 358.6499999999999 588" data-from="busA" data-to="f1cb" class="lt-sld-wire"/>
<text x="365.6499999999999" y="555" class="lt-sld-cable">3#4/0 AWG</text>
<path d="M 358.6499999999999 624 L 358.6499999999999 682" class="lt-sld-wire-clearance"/>
<path d="M 358.6499999999999 624 L 358.6499999999999 682" data-from="f1cb" data-to="f1ct" class="lt-sld-wire"/>
<path d="M 358.6499999999999 714 L 358.6499999999999 726 L 520.2846999999999 726 L 520.2846999999999 778" class="lt-sld-wire-clearance"/>
<path d="M 358.6499999999999 714 L 358.6499999999999 726 L 520.2846999999999 726 L 520.2846999999999 778" data-from="f1ct" data-to="f1l1ld" class="lt-sld-wire"/>
<path d="M 536.17 478 L 536.17 588" class="lt-sld-wire-clearance"/>
<path d="M 536.17 478 L 536.17 588" data-from="busA" data-to="f2cb" class="lt-sld-wire"/>
<text x="543.17" y="555" class="lt-sld-cable">3#2/0 AWG</text>
<path d="M 536.17 624 L 536.17 682" class="lt-sld-wire-clearance"/>
<path d="M 536.17 624 L 536.17 682" data-from="f2cb" data-to="f2ct" class="lt-sld-wire"/>
<path d="M 536.17 714 L 536.17 758 L 319.2502999999999 758 L 319.2502999999999 770" class="lt-sld-wire-clearance"/>
<path d="M 536.17 714 L 536.17 758 L 319.2502999999999 758 L 319.2502999999999 770" data-from="f2ct" data-to="f2pnl" class="lt-sld-wire"/>
<path d="M 319.2502999999999 810 L 319.2502999999999 888 L 217.0402999999999 888 L 217.0402999999999 900" class="lt-sld-wire-clearance"/>
<path d="M 319.2502999999999 810 L 319.2502999999999 888 L 217.0402999999999 888 L 217.0402999999999 900" data-from="f2pnl" data-to="f2l1ld" class="lt-sld-wire"/>
<path d="M 319.2502999999999 810 L 319.2502999999999 888 L 353.5602999999999 888 L 353.5602999999999 900" class="lt-sld-wire-clearance"/>
<path d="M 319.2502999999999 810 L 319.2502999999999 888 L 353.5602999999999 888 L 353.5602999999999 900" data-from="f2pnl" data-to="f2l2ld" class="lt-sld-wire"/>
<path d="M 569.9063 372 L 569.9063 452 L 688.1413 452 L 688.1413 464" class="lt-sld-wire-clearance"/>
<path d="M 569.9063 372 L 569.9063 452 L 688.1413 452 L 688.1413 464" data-from="mctA1" data-to="mpmA1" class="lt-sld-wire" stroke-dasharray="6 4"/>
<path d="M 349.0455 280 L 349.0455 330 L 250.68100000000004 330 L 250.68100000000004 342" class="lt-sld-wire-clearance"/>
<path d="M 349.0455 280 L 349.0455 330 L 250.68100000000004 330 L 250.68100000000004 342" data-from="mctA2" data-to="mpmA2" class="lt-sld-wire" stroke-dasharray="6 4"/>
<path d="M 358.6499999999999 714 L 358.6499999999999 726 L 197.0152999999999 726 L 197.0152999999999 776" class="lt-sld-wire-clearance"/>
<path d="M 358.6499999999999 714 L 358.6499999999999 726 L 197.0152999999999 726 L 197.0152999999999 776" data-from="f1ct" data-to="f1pm" class="lt-sld-wire" stroke-dasharray="6 4"/>
<path d="M 536.17 714 L 536.17 764 L 636.7796999999999 764 L 636.7796999999999 776" class="lt-sld-wire-clearance"/>
<path d="M 536.17 714 L 536.17 764 L 636.7796999999999 764 L 636.7796999999999 776" data-from="f2ct" data-to="f2pm" class="lt-sld-wire" stroke-dasharray="6 4"/>
<circle cx="569.9063" cy="452" r="2" class="lt-sld-dot"/>
<circle cx="349.0455" cy="330" r="2" class="lt-sld-dot"/>
<circle cx="358.6499999999999" cy="726" r="2" class="lt-sld-dot"/>
<circle cx="536.17" cy="758" r="2" class="lt-sld-dot"/>
<circle cx="319.2502999999999" cy="888" r="2" class="lt-sld-dot"/>
<line x1="301.0455" y1="478" x2="617.9063" y2="478" class="lt-sld-bus" data-id="busA"/>
<text x="221.1843" y="475" class="lt-sld-id-side">BUS-427</text>
<text x="221.1843" y="489" class="lt-sld-id-side">400Y/230V</text>
<g transform="translate(569.9063, 56)" data-type="utility" data-id="srcA1"><g class="lt-sld-ansi"><style>.lt-sld-ansi .lt-sld-stroke, .lt-sld-ansi .lt-sld-fill { stroke-width: 1.4; }
.lt-sld-ansi .lt-sld-stroke-thick { stroke-width: 1.8; }
.lt-sld-ansi .lt-sld-ansi-fine { stroke-width: 1.4; }
.lt-sld-ansi .lt-sld-ansi-core { stroke-width: 1.4; }
.lt-sld-ansi .lt-sld-ansi-grid { stroke-width: 1.4; }
.lt-sld-ansi .lt-sld-ansi-hook { stroke-width: 1.4; }
.lt-sld-ansi text { dominant-baseline: auto; }
.lt-sld-ansi text[font-weight="600"] { font-weight: 600; }</style>
<g><line x1="0" y1="-24" x2="0" y2="-17" class="lt-sld-stroke"/>
<line x1="0" y1="17" x2="0" y2="18" class="lt-sld-stroke"/>
<circle cx="0" cy="0" r="17" class="lt-sld-fill"/>
<path d="M -9 0 Q -4.5 -9 0 0 T 9 0" stroke-linecap="round" class="lt-sld-stroke lt-sld-ansi-fine"/></g></g></g>
<text x="601.9063" y="53" class="lt-sld-id-side">6.6kV SUPPLY A</text>
<text x="601.9063" y="67" class="lt-sld-rating-side">6.6kV</text>
<g transform="translate(569.9063, 160)" data-type="transformer_dy" data-id="txA1"><g class="lt-sld-ansi"><style>.lt-sld-ansi .lt-sld-stroke, .lt-sld-ansi .lt-sld-fill { stroke-width: 1.4; }
.lt-sld-ansi .lt-sld-stroke-thick { stroke-width: 1.8; }
.lt-sld-ansi .lt-sld-ansi-fine { stroke-width: 1.4; }
.lt-sld-ansi .lt-sld-ansi-core { stroke-width: 1.4; }
.lt-sld-ansi .lt-sld-ansi-grid { stroke-width: 1.4; }
.lt-sld-ansi .lt-sld-ansi-hook { stroke-width: 1.4; }
.lt-sld-ansi text { dominant-baseline: auto; }
.lt-sld-ansi text[font-weight="600"] { font-weight: 600; }</style>
<line x1="0" y1="-24" x2="0" y2="-8" class="lt-sld-stroke"/>
<line x1="0" y1="8" x2="0" y2="24" class="lt-sld-stroke"/>
<path d="M -9 -5 A 3 3 0 0 1 -3 -5 A 3 3 0 0 1 3 -5 A 3 3 0 0 1 9 -5" stroke-linecap="round" class="lt-sld-stroke"/>
<path d="M -9 5 A 3 3 0 0 0 -3 5 A 3 3 0 0 0 3 5 A 3 3 0 0 0 9 5" stroke-linecap="round" class="lt-sld-stroke"/>
<path d="M -11 -1.5 L 11 -1.5 M -11 1.5 L 11 1.5" class="lt-sld-stroke lt-sld-ansi-core"/>
<path d="M -16.5 -8.5 L -13.25 -3 L -19.75 -3 Z" stroke-linejoin="round" class="lt-sld-stroke lt-sld-ansi-fine"/>
<path d="M -19.5 2.5 L -16.5 5.5 L -13.5 2.5 M -16.5 5.5 L -16.5 13" stroke-linecap="round" class="lt-sld-stroke lt-sld-ansi-fine"/>
<path d="M -20.5 13 L -12.5 13 M -19 15 L -14 15 M -17.5 17 L -15.5 17" stroke-linecap="round" class="lt-sld-stroke lt-sld-ansi-fine"/></g></g>
<text x="605.9063" y="157" class="lt-sld-id-side">TX-1613</text>
<text x="605.9063" y="171" class="lt-sld-rating-side">690 kVA</text>
<text x="605.9063" y="183" class="lt-sld-rating-side">6.6kV / 400Y/230V</text>
<g transform="translate(569.9063, 264)" data-type="breaker" data-id="mcbA1"><g class="lt-sld-ansi"><style>.lt-sld-ansi .lt-sld-stroke, .lt-sld-ansi .lt-sld-fill { stroke-width: 1.4; }
.lt-sld-ansi .lt-sld-stroke-thick { stroke-width: 1.8; }
.lt-sld-ansi .lt-sld-ansi-fine { stroke-width: 1.4; }
.lt-sld-ansi .lt-sld-ansi-core { stroke-width: 1.4; }
.lt-sld-ansi .lt-sld-ansi-grid { stroke-width: 1.4; }
.lt-sld-ansi .lt-sld-ansi-hook { stroke-width: 1.4; }
.lt-sld-ansi text { dominant-baseline: auto; }
.lt-sld-ansi text[font-weight="600"] { font-weight: 600; }</style>
<line x1="0" y1="-18" x2="0" y2="-14.25" class="lt-sld-stroke"/>
<line x1="0" y1="14.25" x2="0" y2="18" class="lt-sld-stroke"/>
<line x1="0" y1="14.25" x2="8.25" y2="-8.25" class="lt-sld-stroke-thick" data-sld-role="blade"/>
<circle cx="0" cy="14.25" r="2.1" class="lt-sld-dot"/>
<circle cx="0" cy="-14.25" r="2.1" class="lt-sld-dot"/>
<path d="M 8.25 -8.25 A 4.5 4.5 0 0 0 6 -13.125" stroke-linecap="round" class="lt-sld-stroke lt-sld-ansi-hook"/></g></g>
<text x="601.9063" y="261" class="lt-sld-id-side">CB-343</text>
<text x="601.9063" y="275" class="lt-sld-rating-side">ACB / 1000 A / 3P</text>
<g transform="translate(569.9063, 356)" data-type="ct" data-id="mctA1"><g class="lt-sld-ansi"><style>.lt-sld-ansi .lt-sld-stroke, .lt-sld-ansi .lt-sld-fill { stroke-width: 1.4; }
.lt-sld-ansi .lt-sld-stroke-thick { stroke-width: 1.8; }
.lt-sld-ansi .lt-sld-ansi-fine { stroke-width: 1.4; }
.lt-sld-ansi .lt-sld-ansi-core { stroke-width: 1.4; }
.lt-sld-ansi .lt-sld-ansi-grid { stroke-width: 1.4; }
.lt-sld-ansi .lt-sld-ansi-hook { stroke-width: 1.4; }
.lt-sld-ansi text { dominant-baseline: auto; }
.lt-sld-ansi text[font-weight="600"] { font-weight: 600; }</style>
<line x1="0" y1="-16" x2="0" y2="-4.05" class="lt-sld-stroke"/>
<line x1="0" y1="4.05" x2="0" y2="16" class="lt-sld-stroke"/>
<line stroke-linecap="square" class="lt-sld-stroke lt-sld-ansi-core" x1="-4.05" y1="0" x2="-9.45" y2="0"/>
<circle cx="0" cy="0" r="9" class="lt-sld-fill"/>
<text x="0" y="1.35" font-size="9" font-weight="700" text-anchor="middle" class="lt-sld-symbol-text lt-sld-wdg">CT</text></g></g>
<text x="593.9063" y="353" class="lt-sld-id-side">TA-764</text>
<text x="593.9063" y="367" class="lt-sld-rating-side">3 CTs / 1000/5 A</text>
<g transform="translate(688.1413, 478)" data-type="watthour_meter" data-id="mpmA1"><g class="lt-sld-ansi"><style>.lt-sld-ansi .lt-sld-stroke, .lt-sld-ansi .lt-sld-fill { stroke-width: 1.4; }
.lt-sld-ansi .lt-sld-stroke-thick { stroke-width: 1.8; }
.lt-sld-ansi .lt-sld-ansi-fine { stroke-width: 1.4; }
.lt-sld-ansi .lt-sld-ansi-core { stroke-width: 1.4; }
.lt-sld-ansi .lt-sld-ansi-grid { stroke-width: 1.4; }
.lt-sld-ansi .lt-sld-ansi-hook { stroke-width: 1.4; }
.lt-sld-ansi text { dominant-baseline: auto; }
.lt-sld-ansi text[font-weight="600"] { font-weight: 600; }</style>
<g><line x1="0" y1="-14" x2="0" y2="-13" class="lt-sld-stroke"/>
<line x1="0" y1="13" x2="0" y2="14" class="lt-sld-stroke"/>
<circle cx="0" cy="0" r="13" class="lt-sld-fill"/>
<text x="0" y="4" font-size="9" font-weight="600" text-anchor="middle" class="lt-sld-symbol-text lt-sld-wdg">Wh</text></g></g></g>
<text x="661.9063" y="508" class="lt-sld-id-side">PM-1037</text>
<text x="669.6013" y="522" class="lt-sld-rating-side">kW / kWh</text>
<g transform="translate(349.0455, 56)" data-type="generator" data-id="srcA2"><g class="lt-sld-ansi"><style>.lt-sld-ansi .lt-sld-stroke, .lt-sld-ansi .lt-sld-fill { stroke-width: 1.4; }
.lt-sld-ansi .lt-sld-stroke-thick { stroke-width: 1.8; }
.lt-sld-ansi .lt-sld-ansi-fine { stroke-width: 1.4; }
.lt-sld-ansi .lt-sld-ansi-core { stroke-width: 1.4; }
.lt-sld-ansi .lt-sld-ansi-grid { stroke-width: 1.4; }
.lt-sld-ansi .lt-sld-ansi-hook { stroke-width: 1.4; }
.lt-sld-ansi text { dominant-baseline: auto; }
.lt-sld-ansi text[font-weight="600"] { font-weight: 600; }</style>
<line x1="0" y1="-24" x2="0" y2="-8.5" class="lt-sld-stroke"/>
<line x1="0" y1="8.5" x2="0" y2="18" class="lt-sld-stroke"/>
<circle cx="0" cy="0" r="12" class="lt-sld-fill"/>
<text x="0" y="-0.5" font-size="14" font-weight="700" text-anchor="middle" class="lt-sld-symbol-text lt-sld-wdg">G</text>
<path d="M -3.5 4 Q -1.75 1 0 4 T 3.5 4" stroke-linecap="round" class="lt-sld-stroke lt-sld-ansi-fine"/>
<path d="M -16.25 -4 L -13.25 -1 L -10.25 -4 M -13.25 -1 L -13.25 6.5" stroke-linecap="round" class="lt-sld-stroke lt-sld-ansi-fine"/>
<path d="M -17.25 6.5 L -9.25 6.5 M -15.75 8.5 L -10.75 8.5 M -14.25 10.5 L -12.25 10.5" stroke-linecap="round" class="lt-sld-stroke lt-sld-ansi-fine"/></g></g>
<text x="381.0455" y="53" class="lt-sld-id-side">STANDBY GENERATOR</text>
<text x="381.0455" y="67" class="lt-sld-rating-side">500 kW</text>
<text x="381.0455" y="79" class="lt-sld-rating-side">400Y/230V</text>
<g transform="translate(349.0455, 160)" data-type="breaker" data-id="mcbA2"><g class="lt-sld-ansi"><style>.lt-sld-ansi .lt-sld-stroke, .lt-sld-ansi .lt-sld-fill { stroke-width: 1.4; }
.lt-sld-ansi .lt-sld-stroke-thick { stroke-width: 1.8; }
.lt-sld-ansi .lt-sld-ansi-fine { stroke-width: 1.4; }
.lt-sld-ansi .lt-sld-ansi-core { stroke-width: 1.4; }
.lt-sld-ansi .lt-sld-ansi-grid { stroke-width: 1.4; }
.lt-sld-ansi .lt-sld-ansi-hook { stroke-width: 1.4; }
.lt-sld-ansi text { dominant-baseline: auto; }
.lt-sld-ansi text[font-weight="600"] { font-weight: 600; }</style>
<line x1="0" y1="-18" x2="0" y2="-14.25" class="lt-sld-stroke"/>
<line x1="0" y1="14.25" x2="0" y2="18" class="lt-sld-stroke"/>
<line x1="0" y1="14.25" x2="8.25" y2="-8.25" class="lt-sld-stroke-thick" data-sld-role="blade"/>
<circle cx="0" cy="14.25" r="2.1" class="lt-sld-dot"/>
<circle cx="0" cy="-14.25" r="2.1" class="lt-sld-dot"/>
<path d="M 8.25 -8.25 A 4.5 4.5 0 0 0 6 -13.125" stroke-linecap="round" class="lt-sld-stroke lt-sld-ansi-hook"/></g></g>
<text x="381.0455" y="157" class="lt-sld-id-side">CB-380</text>
<text x="381.0455" y="171" class="lt-sld-rating-side">ACB / 800 A / 3P</text>
<g transform="translate(349.0455, 264)" data-type="ct" data-id="mctA2"><g class="lt-sld-ansi"><style>.lt-sld-ansi .lt-sld-stroke, .lt-sld-ansi .lt-sld-fill { stroke-width: 1.4; }
.lt-sld-ansi .lt-sld-stroke-thick { stroke-width: 1.8; }
.lt-sld-ansi .lt-sld-ansi-fine { stroke-width: 1.4; }
.lt-sld-ansi .lt-sld-ansi-core { stroke-width: 1.4; }
.lt-sld-ansi .lt-sld-ansi-grid { stroke-width: 1.4; }
.lt-sld-ansi .lt-sld-ansi-hook { stroke-width: 1.4; }
.lt-sld-ansi text { dominant-baseline: auto; }
.lt-sld-ansi text[font-weight="600"] { font-weight: 600; }</style>
<line x1="0" y1="-16" x2="0" y2="-4.05" class="lt-sld-stroke"/>
<line x1="0" y1="4.05" x2="0" y2="16" class="lt-sld-stroke"/>
<line stroke-linecap="square" class="lt-sld-stroke lt-sld-ansi-core" x1="-4.05" y1="0" x2="-9.45" y2="0"/>
<circle cx="0" cy="0" r="9" class="lt-sld-fill"/>
<text x="0" y="1.35" font-size="9" font-weight="700" text-anchor="middle" class="lt-sld-symbol-text lt-sld-wdg">CT</text></g></g>
<text x="373.0455" y="261" class="lt-sld-id-side">TA-746</text>
<text x="373.0455" y="275" class="lt-sld-rating-side">3 CTs / 800/5 A</text>
<g transform="translate(250.68100000000004, 356)" data-type="watthour_meter" data-id="mpmA2"><g class="lt-sld-ansi"><style>.lt-sld-ansi .lt-sld-stroke, .lt-sld-ansi .lt-sld-fill { stroke-width: 1.4; }
.lt-sld-ansi .lt-sld-stroke-thick { stroke-width: 1.8; }
.lt-sld-ansi .lt-sld-ansi-fine { stroke-width: 1.4; }
.lt-sld-ansi .lt-sld-ansi-core { stroke-width: 1.4; }
.lt-sld-ansi .lt-sld-ansi-grid { stroke-width: 1.4; }
.lt-sld-ansi .lt-sld-ansi-hook { stroke-width: 1.4; }
.lt-sld-ansi text { dominant-baseline: auto; }
.lt-sld-ansi text[font-weight="600"] { font-weight: 600; }</style>
<g><line x1="0" y1="-14" x2="0" y2="-13" class="lt-sld-stroke"/>
<line x1="0" y1="13" x2="0" y2="14" class="lt-sld-stroke"/>
<circle cx="0" cy="0" r="13" class="lt-sld-fill"/>
<text x="0" y="4" font-size="9" font-weight="600" text-anchor="middle" class="lt-sld-symbol-text lt-sld-wdg">Wh</text></g></g></g>
<text x="224.44600000000003" y="386" class="lt-sld-id-side">PM-1000</text>
<text x="232.14100000000002" y="400" class="lt-sld-rating-side">kW / kWh</text>
<g transform="translate(358.6499999999999, 606)" data-type="breaker" data-id="f1cb"><g class="lt-sld-ansi"><style>.lt-sld-ansi .lt-sld-stroke, .lt-sld-ansi .lt-sld-fill { stroke-width: 1.4; }
.lt-sld-ansi .lt-sld-stroke-thick { stroke-width: 1.8; }
.lt-sld-ansi .lt-sld-ansi-fine { stroke-width: 1.4; }
.lt-sld-ansi .lt-sld-ansi-core { stroke-width: 1.4; }
.lt-sld-ansi .lt-sld-ansi-grid { stroke-width: 1.4; }
.lt-sld-ansi .lt-sld-ansi-hook { stroke-width: 1.4; }
.lt-sld-ansi text { dominant-baseline: auto; }
.lt-sld-ansi text[font-weight="600"] { font-weight: 600; }</style>
<line x1="0" y1="-18" x2="0" y2="-14.25" class="lt-sld-stroke"/>
<line x1="0" y1="14.25" x2="0" y2="18" class="lt-sld-stroke"/>
<line x1="0" y1="14.25" x2="8.25" y2="-8.25" class="lt-sld-stroke-thick" data-sld-role="blade"/>
<circle cx="0" cy="14.25" r="2.1" class="lt-sld-dot"/>
<circle cx="0" cy="-14.25" r="2.1" class="lt-sld-dot"/>
<path d="M 8.25 -8.25 A 4.5 4.5 0 0 0 6 -13.125" stroke-linecap="round" class="lt-sld-stroke lt-sld-ansi-hook"/></g></g>
<text x="390.6499999999999" y="603" class="lt-sld-id-side">CB-378</text>
<text x="390.6499999999999" y="617" class="lt-sld-rating-side">MCCB / 400 A / 3P</text>
<g transform="translate(358.6499999999999, 698)" data-type="ct" data-id="f1ct"><g class="lt-sld-ansi"><style>.lt-sld-ansi .lt-sld-stroke, .lt-sld-ansi .lt-sld-fill { stroke-width: 1.4; }
.lt-sld-ansi .lt-sld-stroke-thick { stroke-width: 1.8; }
.lt-sld-ansi .lt-sld-ansi-fine { stroke-width: 1.4; }
.lt-sld-ansi .lt-sld-ansi-core { stroke-width: 1.4; }
.lt-sld-ansi .lt-sld-ansi-grid { stroke-width: 1.4; }
.lt-sld-ansi .lt-sld-ansi-hook { stroke-width: 1.4; }
.lt-sld-ansi text { dominant-baseline: auto; }
.lt-sld-ansi text[font-weight="600"] { font-weight: 600; }</style>
<line x1="0" y1="-16" x2="0" y2="-4.05" class="lt-sld-stroke"/>
<line x1="0" y1="4.05" x2="0" y2="16" class="lt-sld-stroke"/>
<line stroke-linecap="square" class="lt-sld-stroke lt-sld-ansi-core" x1="-4.05" y1="0" x2="-9.45" y2="0"/>
<circle cx="0" cy="0" r="9" class="lt-sld-fill"/>
<text x="0" y="1.35" font-size="9" font-weight="700" text-anchor="middle" class="lt-sld-symbol-text lt-sld-wdg">CT</text></g></g>
<text x="382.6499999999999" y="695" class="lt-sld-id-side">TA-771</text>
<text x="382.6499999999999" y="709" class="lt-sld-rating-side">3 CTs / 400/5 A</text>
<g transform="translate(197.0152999999999, 790)" data-type="watthour_meter" data-id="f1pm"><g class="lt-sld-ansi"><style>.lt-sld-ansi .lt-sld-stroke, .lt-sld-ansi .lt-sld-fill { stroke-width: 1.4; }
.lt-sld-ansi .lt-sld-stroke-thick { stroke-width: 1.8; }
.lt-sld-ansi .lt-sld-ansi-fine { stroke-width: 1.4; }
.lt-sld-ansi .lt-sld-ansi-core { stroke-width: 1.4; }
.lt-sld-ansi .lt-sld-ansi-grid { stroke-width: 1.4; }
.lt-sld-ansi .lt-sld-ansi-hook { stroke-width: 1.4; }
.lt-sld-ansi text { dominant-baseline: auto; }
.lt-sld-ansi text[font-weight="600"] { font-weight: 600; }</style>
<g><line x1="0" y1="-14" x2="0" y2="-13" class="lt-sld-stroke"/>
<line x1="0" y1="13" x2="0" y2="14" class="lt-sld-stroke"/>
<circle cx="0" cy="0" r="13" class="lt-sld-fill"/>
<text x="0" y="4" font-size="9" font-weight="600" text-anchor="middle" class="lt-sld-symbol-text lt-sld-wdg">Wh</text></g></g></g>
<text x="170.7802999999999" y="820" class="lt-sld-id-side">PM-1070</text>
<text x="178.4752999999999" y="834" class="lt-sld-rating-side">kW / kWh</text>
<g transform="translate(520.2846999999999, 790)" data-type="load" data-id="f1l1ld"><g class="lt-sld-ansi"><style>.lt-sld-ansi .lt-sld-stroke, .lt-sld-ansi .lt-sld-fill { stroke-width: 1.4; }
.lt-sld-ansi .lt-sld-stroke-thick { stroke-width: 1.8; }
.lt-sld-ansi .lt-sld-ansi-fine { stroke-width: 1.4; }
.lt-sld-ansi .lt-sld-ansi-core { stroke-width: 1.4; }
.lt-sld-ansi .lt-sld-ansi-grid { stroke-width: 1.4; }
.lt-sld-ansi .lt-sld-ansi-hook { stroke-width: 1.4; }
.lt-sld-ansi text { dominant-baseline: auto; }
.lt-sld-ansi text[font-weight="600"] { font-weight: 600; }</style>
<line x1="0" y1="-12" x2="0" y2="-10.4" class="lt-sld-stroke"/>
<line x1="0" y1="10.4" x2="0" y2="12" class="lt-sld-stroke"/>
<path d="M -11.2 -10.4 L 11.2 -10.4 L 0 10.4 Z" stroke-linejoin="miter" class="lt-sld-fill"/></g></g>
<text x="490.2018999999999" y="818" class="lt-sld-id-side">PNL-1429</text>
<text x="474.02469999999994" y="832" class="lt-sld-rating-side">DOCK PANEL / 15 kW</text>
<g transform="translate(536.17, 606)" data-type="breaker" data-id="f2cb"><g class="lt-sld-ansi"><style>.lt-sld-ansi .lt-sld-stroke, .lt-sld-ansi .lt-sld-fill { stroke-width: 1.4; }
.lt-sld-ansi .lt-sld-stroke-thick { stroke-width: 1.8; }
.lt-sld-ansi .lt-sld-ansi-fine { stroke-width: 1.4; }
.lt-sld-ansi .lt-sld-ansi-core { stroke-width: 1.4; }
.lt-sld-ansi .lt-sld-ansi-grid { stroke-width: 1.4; }
.lt-sld-ansi .lt-sld-ansi-hook { stroke-width: 1.4; }
.lt-sld-ansi text { dominant-baseline: auto; }
.lt-sld-ansi text[font-weight="600"] { font-weight: 600; }</style>
<line x1="0" y1="-18" x2="0" y2="-14.25" class="lt-sld-stroke"/>
<line x1="0" y1="14.25" x2="0" y2="18" class="lt-sld-stroke"/>
<line x1="0" y1="14.25" x2="8.25" y2="-8.25" class="lt-sld-stroke-thick" data-sld-role="blade"/>
<circle cx="0" cy="14.25" r="2.1" class="lt-sld-dot"/>
<circle cx="0" cy="-14.25" r="2.1" class="lt-sld-dot"/>
<path d="M 8.25 -8.25 A 4.5 4.5 0 0 0 6 -13.125" stroke-linecap="round" class="lt-sld-stroke lt-sld-ansi-hook"/></g></g>
<text x="568.17" y="603" class="lt-sld-id-side">CB-330</text>
<text x="568.17" y="617" class="lt-sld-rating-side">MCCB / 250 A / 3P</text>
<g transform="translate(536.17, 698)" data-type="ct" data-id="f2ct"><g class="lt-sld-ansi"><style>.lt-sld-ansi .lt-sld-stroke, .lt-sld-ansi .lt-sld-fill { stroke-width: 1.4; }
.lt-sld-ansi .lt-sld-stroke-thick { stroke-width: 1.8; }
.lt-sld-ansi .lt-sld-ansi-fine { stroke-width: 1.4; }
.lt-sld-ansi .lt-sld-ansi-core { stroke-width: 1.4; }
.lt-sld-ansi .lt-sld-ansi-grid { stroke-width: 1.4; }
.lt-sld-ansi .lt-sld-ansi-hook { stroke-width: 1.4; }
.lt-sld-ansi text { dominant-baseline: auto; }
.lt-sld-ansi text[font-weight="600"] { font-weight: 600; }</style>
<line x1="0" y1="-16" x2="0" y2="-4.05" class="lt-sld-stroke"/>
<line x1="0" y1="4.05" x2="0" y2="16" class="lt-sld-stroke"/>
<line stroke-linecap="square" class="lt-sld-stroke lt-sld-ansi-core" x1="-4.05" y1="0" x2="-9.45" y2="0"/>
<circle cx="0" cy="0" r="9" class="lt-sld-fill"/>
<text x="0" y="1.35" font-size="9" font-weight="700" text-anchor="middle" class="lt-sld-symbol-text lt-sld-wdg">CT</text></g></g>
<text x="560.17" y="695" class="lt-sld-id-side">TA-742</text>
<text x="560.17" y="709" class="lt-sld-rating-side">3 CTs / 250/5 A</text>
<g transform="translate(636.7796999999999, 790)" data-type="watthour_meter" data-id="f2pm"><g class="lt-sld-ansi"><style>.lt-sld-ansi .lt-sld-stroke, .lt-sld-ansi .lt-sld-fill { stroke-width: 1.4; }
.lt-sld-ansi .lt-sld-stroke-thick { stroke-width: 1.8; }
.lt-sld-ansi .lt-sld-ansi-fine { stroke-width: 1.4; }
.lt-sld-ansi .lt-sld-ansi-core { stroke-width: 1.4; }
.lt-sld-ansi .lt-sld-ansi-grid { stroke-width: 1.4; }
.lt-sld-ansi .lt-sld-ansi-hook { stroke-width: 1.4; }
.lt-sld-ansi text { dominant-baseline: auto; }
.lt-sld-ansi text[font-weight="600"] { font-weight: 600; }</style>
<g><line x1="0" y1="-14" x2="0" y2="-13" class="lt-sld-stroke"/>
<line x1="0" y1="13" x2="0" y2="14" class="lt-sld-stroke"/>
<circle cx="0" cy="0" r="13" class="lt-sld-fill"/>
<text x="0" y="4" font-size="9" font-weight="600" text-anchor="middle" class="lt-sld-symbol-text lt-sld-wdg">Wh</text></g></g></g>
<text x="610.5446999999999" y="820" class="lt-sld-id-side">PM-1063</text>
<text x="618.2397" y="834" class="lt-sld-rating-side">kW / kWh</text>
<g transform="translate(319.2502999999999, 790)" data-type="hub" data-id="f2pnl"><g class="lt-sld-ansi"><style>.lt-sld-ansi .lt-sld-stroke, .lt-sld-ansi .lt-sld-fill { stroke-width: 1.4; }
.lt-sld-ansi .lt-sld-stroke-thick { stroke-width: 1.8; }
.lt-sld-ansi .lt-sld-ansi-fine { stroke-width: 1.4; }
.lt-sld-ansi .lt-sld-ansi-core { stroke-width: 1.4; }
.lt-sld-ansi .lt-sld-ansi-grid { stroke-width: 1.4; }
.lt-sld-ansi .lt-sld-ansi-hook { stroke-width: 1.4; }
.lt-sld-ansi text { dominant-baseline: auto; }
.lt-sld-ansi text[font-weight="600"] { font-weight: 600; }</style>
<g><line x1="0" y1="-20" x2="0" y2="-16" class="lt-sld-stroke"/>
<line x1="0" y1="16" x2="0" y2="20" class="lt-sld-stroke"/>
<rect x="-30" y="-16" width="60" height="32" class="lt-sld-fill"/>
<text x="0" y="4" font-size="11" lengthAdjust="spacingAndGlyphs" font-weight="700" text-anchor="middle" class="lt-sld-symbol-text lt-sld-wdg">FD-984</text></g></g></g>
<text x="385.2502999999999" y="787" class="lt-sld-rating-side">3P+N</text>
<g transform="translate(217.0402999999999, 912)" data-type="load" data-id="f2l1ld"><g class="lt-sld-ansi"><style>.lt-sld-ansi .lt-sld-stroke, .lt-sld-ansi .lt-sld-fill { stroke-width: 1.4; }
.lt-sld-ansi .lt-sld-stroke-thick { stroke-width: 1.8; }
.lt-sld-ansi .lt-sld-ansi-fine { stroke-width: 1.4; }
.lt-sld-ansi .lt-sld-ansi-core { stroke-width: 1.4; }
.lt-sld-ansi .lt-sld-ansi-grid { stroke-width: 1.4; }
.lt-sld-ansi .lt-sld-ansi-hook { stroke-width: 1.4; }
.lt-sld-ansi text { dominant-baseline: auto; }
.lt-sld-ansi text[font-weight="600"] { font-weight: 600; }</style>
<line x1="0" y1="-12" x2="0" y2="-10.4" class="lt-sld-stroke"/>
<line x1="0" y1="10.4" x2="0" y2="12" class="lt-sld-stroke"/>
<path d="M -11.2 -10.4 L 11.2 -10.4 L 0 10.4 Z" stroke-linejoin="miter" class="lt-sld-fill"/></g></g>
<text x="186.95749999999987" y="940" class="lt-sld-id-side">PNL-1428</text>
<text x="170.7802999999999" y="954" class="lt-sld-rating-side">DOCK PANEL / 21 kW</text>
<g transform="translate(353.5602999999999, 912)" data-type="load" data-id="f2l2ld"><g class="lt-sld-ansi"><style>.lt-sld-ansi .lt-sld-stroke, .lt-sld-ansi .lt-sld-fill { stroke-width: 1.4; }
.lt-sld-ansi .lt-sld-stroke-thick { stroke-width: 1.8; }
.lt-sld-ansi .lt-sld-ansi-fine { stroke-width: 1.4; }
.lt-sld-ansi .lt-sld-ansi-core { stroke-width: 1.4; }
.lt-sld-ansi .lt-sld-ansi-grid { stroke-width: 1.4; }
.lt-sld-ansi .lt-sld-ansi-hook { stroke-width: 1.4; }
.lt-sld-ansi text { dominant-baseline: auto; }
.lt-sld-ansi text[font-weight="600"] { font-weight: 600; }</style>
<line x1="0" y1="-12" x2="0" y2="-10.4" class="lt-sld-stroke"/>
<line x1="0" y1="10.4" x2="0" y2="12" class="lt-sld-stroke"/>
<path d="M -11.2 -10.4 L 11.2 -10.4 L 0 10.4 Z" stroke-linejoin="miter" class="lt-sld-fill"/></g></g>
<text x="323.4774999999999" y="940" class="lt-sld-id-side">PNL-1469</text>
<text x="307.30029999999994" y="954" class="lt-sld-rating-side">DOCK PANEL / 28 kW</text></g></svg>