<svg xmlns="http://www.w3.org/2000/svg" xmlns:xlink="http://www.w3.org/1999/xlink" class="lt-sld" role="img" aria-labelledby="lt-sld-title lt-sld-desc" width="774" height="871" viewBox="0 0 774 871"><title>GEN-1465 — PRIMARY SUBSTATION / DISTRIBUTION FEEDER BAY</title>
<desc>Single-line diagram with 15 nodes and 14 connections</desc>
<style>.lt-sld { font-family: "Inter", "Helvetica Neue", sans-serif; }
.lt-sld-stroke { stroke: #222222; stroke-width: 1.4; fill: none; }
.lt-sld-stroke-thick { stroke: #222222; stroke-width: 1.8; fill: none; stroke-linecap: round; }
.lt-sld-fill { fill: #ffffff; stroke: #222222; stroke-width: 1.4; }
.lt-sld-fill-dark { fill: #222222; stroke: #222222; stroke-width: 1; }
.lt-sld-dot { fill: #222222; stroke: none; }
.lt-sld-wire-clearance { stroke: #ffffff; stroke-width: 5; fill: none; }
.lt-sld-control { stroke: #222222; stroke-width: 1.4; stroke-dasharray: 5 4; fill: none; }
.lt-sld-wire { stroke: #222222; stroke-width: 1.4; fill: none; }
.lt-sld-bus { stroke: #111111; stroke-width: 3; stroke-linecap: square; }
.lt-sld-title { font-size: 16px; font-weight: 700; fill: #111111; }
.lt-sld-id { font-size: 11px; font-weight: 700; fill: #111111; text-anchor: middle; }
.lt-sld-id-side { font-size: 11px; font-weight: 700; fill: #111111; text-anchor: start; }
.lt-sld-rating { font-size: 9px; fill: #555555; text-anchor: middle; }
.lt-sld-rating-side { font-size: 9px; fill: #555555; text-anchor: start; }
.lt-sld-voltage { font-size: 10px; font-weight: 700; fill: #555555; }
.lt-sld-nameplate { font-size: 9px; fill: #555555; }
.lt-sld-cable { font-size: 9px; fill: #555555; }
.lt-sld-symbol-text:not([font-size]) { font-size: 11px; }
.lt-sld-symbol-text { fill: #111111; dominant-baseline: middle; }
.lt-sld-wdg:not([font-size]) { font-size: 10px; }
.lt-sld-wdg { font-weight: 700; fill: #222222; dominant-baseline: middle; }
.lt-sld-bus-label { font-size: 11px; font-weight: 700; fill: #1d4e89; }
.lt-sld-standard-badge { font-size: 10px; font-weight: 700; fill: #555555; letter-spacing: 0.3px; }
.lt-sld-unknown-box { fill: none; stroke: #1d4e89; stroke-width: 1.6; stroke-dasharray: 5 3; }
.lt-sld-unknown-mark { font-size: 16px; font-weight: 700; fill: #1d4e89; dominant-baseline: middle; }
.lt-sld-unknown-type { font-size: 9px; font-family: monospace; fill: #555555; }</style>
<text x="20" y="22" class="lt-sld-title" data-sld-role="title">GEN-1465 — PRIMARY SUBSTATION / DISTRIBUTION FEEDER BAY</text>
<g transform="translate(0, 12)"><path d="M 211.14625 74 L 211.14625 86 L 62.235 86 L 62.235 132" class="lt-sld-wire-clearance"/>
<path d="M 211.14625 74 L 211.14625 86 L 62.235 86 L 62.235 132" data-from="srcA1" data-to="laA1" class="lt-sld-wire"/>
<path d="M 211.14625 74 L 211.14625 86 L 360.0575 86 L 360.0575 124" class="lt-sld-wire-clearance"/>
<path d="M 211.14625 74 L 211.14625 86 L 360.0575 86 L 360.0575 124" data-from="srcA1" data-to="txA1" class="lt-sld-wire"/>
<path d="M 360.0575 172 L 360.0575 264" class="lt-sld-wire-clearance"/>
<path d="M 360.0575 172 L 360.0575 264" data-from="txA1" data-to="mcbA1" class="lt-sld-wire"/>
<path d="M 360.0575 300 L 360.0575 358" class="lt-sld-wire-clearance"/>
<path d="M 360.0575 300 L 360.0575 358" data-from="mcbA1" data-to="mctA1" class="lt-sld-wire"/>
<path d="M 360.0575 390 L 360.0575 466" class="lt-sld-wire-clearance"/>
<path d="M 360.0575 390 L 360.0575 466" data-from="mctA1" data-to="busA" class="lt-sld-wire"/>
<path d="M 309.80499999999995 466 L 309.80499999999995 576" class="lt-sld-wire-clearance"/>
<path d="M 309.80499999999995 466 L 309.80499999999995 576" data-from="busA" data-to="f1cb" class="lt-sld-wire"/>
<text x="316.80499999999995" y="543" class="lt-sld-cable">3#4/0 AWG</text>
<path d="M 309.80499999999995 612 L 309.80499999999995 670" class="lt-sld-wire-clearance"/>
<path d="M 309.80499999999995 612 L 309.80499999999995 670" data-from="f1cb" data-to="f1ct" class="lt-sld-wire"/>
<path d="M 309.80499999999995 702 L 309.80499999999995 714 L 380.60749999999996 714 L 380.60749999999996 766" class="lt-sld-wire-clearance"/>
<path d="M 309.80499999999995 702 L 309.80499999999995 714 L 380.60749999999996 714 L 380.60749999999996 766" data-from="f1ct" data-to="f1l1ld" class="lt-sld-wire"/>
<path d="M 593.015 466 L 593.015 576" class="lt-sld-wire-clearance"/>
<path d="M 593.015 466 L 593.015 576" data-from="busA" data-to="f2cb" class="lt-sld-wire"/>
<text x="600.015" y="543" class="lt-sld-cable">3#2/0 AWG</text>
<path d="M 593.015 612 L 593.015 670" class="lt-sld-wire-clearance"/>
<path d="M 593.015 612 L 593.015 670" data-from="f2cb" data-to="f2ct" class="lt-sld-wire"/>
<path d="M 593.015 702 L 593.015 714 L 663.8175 714 L 663.8175 766" class="lt-sld-wire-clearance"/>
<path d="M 593.015 702 L 593.015 714 L 663.8175 714 L 663.8175 766" data-from="f2ct" data-to="f2l1ld" class="lt-sld-wire"/>
<path d="M 360.0575 390 L 360.0575 440 L 711.25 440 L 711.25 452" class="lt-sld-wire-clearance"/>
<path d="M 360.0575 390 L 360.0575 440 L 711.25 440 L 711.25 452" data-from="mctA1" data-to="mpmA1" class="lt-sld-wire" stroke-dasharray="6 4"/>
<path d="M 309.80499999999995 702 L 309.80499999999995 714 L 239.00249999999994 714 L 239.00249999999994 764" class="lt-sld-wire-clearance"/>
<path d="M 309.80499999999995 702 L 309.80499999999995 714 L 239.00249999999994 714 L 239.00249999999994 764" data-from="f1ct" data-to="f1pm" class="lt-sld-wire" stroke-dasharray="6 4"/>
<path d="M 593.015 702 L 593.015 714 L 522.2125 714 L 522.2125 764" class="lt-sld-wire-clearance"/>
<path d="M 593.015 702 L 593.015 714 L 522.2125 714 L 522.2125 764" data-from="f2ct" data-to="f2pm" class="lt-sld-wire" stroke-dasharray="6 4"/>
<circle cx="211.14625" cy="86" r="2" class="lt-sld-dot"/>
<circle cx="360.0575" cy="440" r="2" class="lt-sld-dot"/>
<circle cx="309.80499999999995" cy="714" r="2" class="lt-sld-dot"/>
<circle cx="593.015" cy="714" r="2" class="lt-sld-dot"/>
<line x1="261.80499999999995" y1="466" x2="641.015" y2="466" class="lt-sld-bus" data-id="busA"/>
<text x="197.33499999999995" y="463" class="lt-sld-id-side">BUS-471</text>
<text x="197.33499999999995" y="477" class="lt-sld-id-side">13.8kV</text>
<g transform="translate(211.14625, 56)" data-type="utility" data-id="srcA1"><g class="lt-sld-ansi"><style>.lt-sld-ansi .lt-sld-stroke, .lt-sld-ansi .lt-sld-fill { stroke-width: 1.4; }
.lt-sld-ansi .lt-sld-stroke-thick { stroke-width: 1.8; }
.lt-sld-ansi .lt-sld-ansi-fine { stroke-width: 1.4; }
.lt-sld-ansi .lt-sld-ansi-core { stroke-width: 1.4; }
.lt-sld-ansi .lt-sld-ansi-grid { stroke-width: 1.4; }
.lt-sld-ansi .lt-sld-ansi-hook { stroke-width: 1.4; }
.lt-sld-ansi text { dominant-baseline: auto; }
.lt-sld-ansi text[font-weight="600"] { font-weight: 600; }</style>
<g><line x1="0" y1="-24" x2="0" y2="-17" class="lt-sld-stroke"/>
<line x1="0" y1="17" x2="0" y2="18" class="lt-sld-stroke"/>
<circle cx="0" cy="0" r="17" class="lt-sld-fill"/>
<path d="M -9 0 Q -4.5 -9 0 0 T 9 0" stroke-linecap="round" class="lt-sld-stroke lt-sld-ansi-fine"/></g></g></g>
<text x="243.14625" y="53" class="lt-sld-id-side">138kV SUPPLY A</text>
<text x="243.14625" y="67" class="lt-sld-rating-side">138kV</text>
<g transform="translate(62.235, 148)" data-type="surge_arrester" data-id="laA1"><g class="lt-sld-ansi"><style>.lt-sld-ansi .lt-sld-stroke, .lt-sld-ansi .lt-sld-fill { stroke-width: 1.4; }
.lt-sld-ansi .lt-sld-stroke-thick { stroke-width: 1.8; }
.lt-sld-ansi .lt-sld-ansi-fine { stroke-width: 1.4; }
.lt-sld-ansi .lt-sld-ansi-core { stroke-width: 1.4; }
.lt-sld-ansi .lt-sld-ansi-grid { stroke-width: 1.4; }
.lt-sld-ansi .lt-sld-ansi-hook { stroke-width: 1.4; }
.lt-sld-ansi text { dominant-baseline: auto; }
.lt-sld-ansi text[font-weight="600"] { font-weight: 600; }</style>
<line x1="0" y1="-16" x2="0" y2="-11.2" class="lt-sld-stroke"/>
<line x1="0" y1="24" x2="0" y2="26" class="lt-sld-stroke"/>
<line stroke-linecap="square" class="lt-sld-stroke" x1="0" y1="11.2" x2="0" y2="17.6"/>
<rect x="-8" y="-11.2" width="16" height="22.4" class="lt-sld-fill"/>
<path d="M 0 -11.2 L 0 -7.2 M -4 -7.2 L 4 -7.2 L 0 -1.6 Z M -4 7.2 L 4 7.2 L 0 1.6 Z M 0 7.2 L 0 11.2" stroke-linecap="round" stroke-linejoin="round" class="lt-sld-stroke lt-sld-ansi-fine"/>
<path d="M -6.4 17.6 L 6.4 17.6 M -4 20.8 L 4 20.8 M -1.6 24 L 1.6 24" stroke-linecap="round" class="lt-sld-stroke lt-sld-ansi-fine"/></g></g>
<text x="36" y="190" class="lt-sld-id-side">LA-1264</text>
<text x="47.925000000000004" y="204" class="lt-sld-rating-side">138kV</text>
<g transform="translate(360.0575, 148)" data-type="transformer_yd" data-id="txA1"><g class="lt-sld-ansi"><style>.lt-sld-ansi .lt-sld-stroke, .lt-sld-ansi .lt-sld-fill { stroke-width: 1.4; }
.lt-sld-ansi .lt-sld-stroke-thick { stroke-width: 1.8; }
.lt-sld-ansi .lt-sld-ansi-fine { stroke-width: 1.4; }
.lt-sld-ansi .lt-sld-ansi-core { stroke-width: 1.4; }
.lt-sld-ansi .lt-sld-ansi-grid { stroke-width: 1.4; }
.lt-sld-ansi .lt-sld-ansi-hook { stroke-width: 1.4; }
.lt-sld-ansi text { dominant-baseline: auto; }
.lt-sld-ansi text[font-weight="600"] { font-weight: 600; }</style>
<line x1="0" y1="-24" x2="0" y2="-8" class="lt-sld-stroke"/>
<line x1="0" y1="8" x2="0" y2="24" class="lt-sld-stroke"/>
<path d="M -9 -5 A 3 3 0 0 1 -3 -5 A 3 3 0 0 1 3 -5 A 3 3 0 0 1 9 -5" stroke-linecap="round" class="lt-sld-stroke"/>
<path d="M -9 5 A 3 3 0 0 0 -3 5 A 3 3 0 0 0 3 5 A 3 3 0 0 0 9 5" stroke-linecap="round" class="lt-sld-stroke"/>
<path d="M -11 -1.5 L 11 -1.5 M -11 1.5 L 11 1.5" class="lt-sld-stroke lt-sld-ansi-core"/>
<path d="M -19.5 -14.5 L -16.5 -11.5 L -13.5 -14.5 M -16.5 -11.5 L -16.5 -4" stroke-linecap="round" class="lt-sld-stroke lt-sld-ansi-fine"/>
<path d="M -20.5 -4 L -12.5 -4 M -19 -2 L -14 -2 M -17.5 0 L -15.5 0" stroke-linecap="round" class="lt-sld-stroke lt-sld-ansi-fine"/>
<path d="M -16.5 3 L -13.25 8.5 L -19.75 8.5 Z" stroke-linecap="round" stroke-linejoin="round" class="lt-sld-stroke lt-sld-ansi-fine"/></g></g>
<text x="396.0575" y="145" class="lt-sld-id-side">TX-1606</text>
<text x="396.0575" y="159" class="lt-sld-rating-side">23900 kVA</text>
<text x="396.0575" y="171" class="lt-sld-rating-side">138kV / 13.8kV</text>
<g transform="translate(360.0575, 282)" data-type="breaker" data-id="mcbA1"><g class="lt-sld-ansi"><style>.lt-sld-ansi .lt-sld-stroke, .lt-sld-ansi .lt-sld-fill { stroke-width: 1.4; }
.lt-sld-ansi .lt-sld-stroke-thick { stroke-width: 1.8; }
.lt-sld-ansi .lt-sld-ansi-fine { stroke-width: 1.4; }
.lt-sld-ansi .lt-sld-ansi-core { stroke-width: 1.4; }
.lt-sld-ansi .lt-sld-ansi-grid { stroke-width: 1.4; }
.lt-sld-ansi .lt-sld-ansi-hook { stroke-width: 1.4; }
.lt-sld-ansi text { dominant-baseline: auto; }
.lt-sld-ansi text[font-weight="600"] { font-weight: 600; }</style>
<line x1="0" y1="-18" x2="0" y2="-14.25" class="lt-sld-stroke"/>
<line x1="0" y1="14.25" x2="0" y2="18" class="lt-sld-stroke"/>
<line x1="0" y1="14.25" x2="8.25" y2="-8.25" class="lt-sld-stroke-thick" data-sld-role="blade"/>
<circle cx="0" cy="14.25" r="2.1" class="lt-sld-dot"/>
<circle cx="0" cy="-14.25" r="2.1" class="lt-sld-dot"/>
<path d="M 8.25 -8.25 A 4.5 4.5 0 0 0 6 -13.125" stroke-linecap="round" class="lt-sld-stroke lt-sld-ansi-hook"/></g></g>
<text x="392.0575" y="279" class="lt-sld-id-side">CB-378</text>
<text x="392.0575" y="293" class="lt-sld-rating-side">ACB / 1000 A / 3P</text>
<g transform="translate(360.0575, 374)" data-type="ct" data-id="mctA1"><g class="lt-sld-ansi"><style>.lt-sld-ansi .lt-sld-stroke, .lt-sld-ansi .lt-sld-fill { stroke-width: 1.4; }
.lt-sld-ansi .lt-sld-stroke-thick { stroke-width: 1.8; }
.lt-sld-ansi .lt-sld-ansi-fine { stroke-width: 1.4; }
.lt-sld-ansi .lt-sld-ansi-core { stroke-width: 1.4; }
.lt-sld-ansi .lt-sld-ansi-grid { stroke-width: 1.4; }
.lt-sld-ansi .lt-sld-ansi-hook { stroke-width: 1.4; }
.lt-sld-ansi text { dominant-baseline: auto; }
.lt-sld-ansi text[font-weight="600"] { font-weight: 600; }</style>
<line x1="0" y1="-16" x2="0" y2="-4.05" class="lt-sld-stroke"/>
<line x1="0" y1="4.05" x2="0" y2="16" class="lt-sld-stroke"/>
<line stroke-linecap="square" class="lt-sld-stroke lt-sld-ansi-core" x1="-4.05" y1="0" x2="-9.45" y2="0"/>
<circle cx="0" cy="0" r="9" class="lt-sld-fill"/>
<text x="0" y="1.35" font-size="9" font-weight="700" text-anchor="middle" class="lt-sld-symbol-text lt-sld-wdg">CT</text></g></g>
<text x="384.0575" y="371" class="lt-sld-id-side">TA-774</text>
<text x="384.0575" y="385" class="lt-sld-rating-side">3 CTs / 1000/5 A</text>
<g transform="translate(711.25, 466)" data-type="watthour_meter" data-id="mpmA1"><g class="lt-sld-ansi"><style>.lt-sld-ansi .lt-sld-stroke, .lt-sld-ansi .lt-sld-fill { stroke-width: 1.4; }
.lt-sld-ansi .lt-sld-stroke-thick { stroke-width: 1.8; }
.lt-sld-ansi .lt-sld-ansi-fine { stroke-width: 1.4; }
.lt-sld-ansi .lt-sld-ansi-core { stroke-width: 1.4; }
.lt-sld-ansi .lt-sld-ansi-grid { stroke-width: 1.4; }
.lt-sld-ansi .lt-sld-ansi-hook { stroke-width: 1.4; }
.lt-sld-ansi text { dominant-baseline: auto; }
.lt-sld-ansi text[font-weight="600"] { font-weight: 600; }</style>
<g><line x1="0" y1="-14" x2="0" y2="-13" class="lt-sld-stroke"/>
<line x1="0" y1="13" x2="0" y2="14" class="lt-sld-stroke"/>
<circle cx="0" cy="0" r="13" class="lt-sld-fill"/>
<text x="0" y="4" font-size="9" font-weight="600" text-anchor="middle" class="lt-sld-symbol-text lt-sld-wdg">Wh</text></g></g></g>
<text x="685.015" y="496" class="lt-sld-id-side">PM-1071</text>
<text x="692.71" y="510" class="lt-sld-rating-side">kW / kWh</text>
<g transform="translate(309.80499999999995, 594)" data-type="breaker" data-id="f1cb"><g class="lt-sld-ansi"><style>.lt-sld-ansi .lt-sld-stroke, .lt-sld-ansi .lt-sld-fill { stroke-width: 1.4; }
.lt-sld-ansi .lt-sld-stroke-thick { stroke-width: 1.8; }
.lt-sld-ansi .lt-sld-ansi-fine { stroke-width: 1.4; }
.lt-sld-ansi .lt-sld-ansi-core { stroke-width: 1.4; }
.lt-sld-ansi .lt-sld-ansi-grid { stroke-width: 1.4; }
.lt-sld-ansi .lt-sld-ansi-hook { stroke-width: 1.4; }
.lt-sld-ansi text { dominant-baseline: auto; }
.lt-sld-ansi text[font-weight="600"] { font-weight: 600; }</style>
<line x1="0" y1="-18" x2="0" y2="-14.25" class="lt-sld-stroke"/>
<line x1="0" y1="14.25" x2="0" y2="18" class="lt-sld-stroke"/>
<line x1="0" y1="14.25" x2="8.25" y2="-8.25" class="lt-sld-stroke-thick" data-sld-role="blade"/>
<circle cx="0" cy="14.25" r="2.1" class="lt-sld-dot"/>
<circle cx="0" cy="-14.25" r="2.1" class="lt-sld-dot"/>
<path d="M 8.25 -8.25 A 4.5 4.5 0 0 0 6 -13.125" stroke-linecap="round" class="lt-sld-stroke lt-sld-ansi-hook"/></g></g>
<text x="341.80499999999995" y="591" class="lt-sld-id-side">CB-330</text>
<text x="341.80499999999995" y="605" class="lt-sld-rating-side">MCCB / 400 A / 3P</text>
<g transform="translate(309.80499999999995, 686)" data-type="ct" data-id="f1ct"><g class="lt-sld-ansi"><style>.lt-sld-ansi .lt-sld-stroke, .lt-sld-ansi .lt-sld-fill { stroke-width: 1.4; }
.lt-sld-ansi .lt-sld-stroke-thick { stroke-width: 1.8; }
.lt-sld-ansi .lt-sld-ansi-fine { stroke-width: 1.4; }
.lt-sld-ansi .lt-sld-ansi-core { stroke-width: 1.4; }
.lt-sld-ansi .lt-sld-ansi-grid { stroke-width: 1.4; }
.lt-sld-ansi .lt-sld-ansi-hook { stroke-width: 1.4; }
.lt-sld-ansi text { dominant-baseline: auto; }
.lt-sld-ansi text[font-weight="600"] { font-weight: 600; }</style>
<line x1="0" y1="-16" x2="0" y2="-4.05" class="lt-sld-stroke"/>
<line x1="0" y1="4.05" x2="0" y2="16" class="lt-sld-stroke"/>
<line stroke-linecap="square" class="lt-sld-stroke lt-sld-ansi-core" x1="-4.05" y1="0" x2="-9.45" y2="0"/>
<circle cx="0" cy="0" r="9" class="lt-sld-fill"/>
<text x="0" y="1.35" font-size="9" font-weight="700" text-anchor="middle" class="lt-sld-symbol-text lt-sld-wdg">CT</text></g></g>
<text x="333.80499999999995" y="683" class="lt-sld-id-side">TA-787</text>
<text x="333.80499999999995" y="697" class="lt-sld-rating-side">3 CTs / 400/5 A</text>
<g transform="translate(239.00249999999994, 778)" data-type="watthour_meter" data-id="f1pm"><g class="lt-sld-ansi"><style>.lt-sld-ansi .lt-sld-stroke, .lt-sld-ansi .lt-sld-fill { stroke-width: 1.4; }
.lt-sld-ansi .lt-sld-stroke-thick { stroke-width: 1.8; }
.lt-sld-ansi .lt-sld-ansi-fine { stroke-width: 1.4; }
.lt-sld-ansi .lt-sld-ansi-core { stroke-width: 1.4; }
.lt-sld-ansi .lt-sld-ansi-grid { stroke-width: 1.4; }
.lt-sld-ansi .lt-sld-ansi-hook { stroke-width: 1.4; }
.lt-sld-ansi text { dominant-baseline: auto; }
.lt-sld-ansi text[font-weight="600"] { font-weight: 600; }</style>
<g><line x1="0" y1="-14" x2="0" y2="-13" class="lt-sld-stroke"/>
<line x1="0" y1="13" x2="0" y2="14" class="lt-sld-stroke"/>
<circle cx="0" cy="0" r="13" class="lt-sld-fill"/>
<text x="0" y="4" font-size="9" font-weight="600" text-anchor="middle" class="lt-sld-symbol-text lt-sld-wdg">Wh</text></g></g></g>
<text x="212.76749999999993" y="808" class="lt-sld-id-side">PM-1059</text>
<text x="220.46249999999992" y="822" class="lt-sld-rating-side">kW / kWh</text>
<g transform="translate(380.60749999999996, 778)" data-type="load" data-id="f1l1ld"><g class="lt-sld-ansi"><style>.lt-sld-ansi .lt-sld-stroke, .lt-sld-ansi .lt-sld-fill { stroke-width: 1.4; }
.lt-sld-ansi .lt-sld-stroke-thick { stroke-width: 1.8; }
.lt-sld-ansi .lt-sld-ansi-fine { stroke-width: 1.4; }
.lt-sld-ansi .lt-sld-ansi-core { stroke-width: 1.4; }
.lt-sld-ansi .lt-sld-ansi-grid { stroke-width: 1.4; }
.lt-sld-ansi .lt-sld-ansi-hook { stroke-width: 1.4; }
.lt-sld-ansi text { dominant-baseline: auto; }
.lt-sld-ansi text[font-weight="600"] { font-weight: 600; }</style>
<line x1="0" y1="-12" x2="0" y2="-10.4" class="lt-sld-stroke"/>
<line x1="0" y1="10.4" x2="0" y2="12" class="lt-sld-stroke"/>
<path d="M -11.2 -10.4 L 11.2 -10.4 L 0 10.4 Z" stroke-linejoin="miter" class="lt-sld-fill"/></g></g>
<text x="350.52469999999994" y="806" class="lt-sld-id-side">PNL-1493</text>
<text x="309.23749999999995" y="820" class="lt-sld-rating-side">DISTRIBUTION FEEDER / 419 kW</text>
<g transform="translate(593.015, 594)" data-type="breaker" data-id="f2cb"><g class="lt-sld-ansi"><style>.lt-sld-ansi .lt-sld-stroke, .lt-sld-ansi .lt-sld-fill { stroke-width: 1.4; }
.lt-sld-ansi .lt-sld-stroke-thick { stroke-width: 1.8; }
.lt-sld-ansi .lt-sld-ansi-fine { stroke-width: 1.4; }
.lt-sld-ansi .lt-sld-ansi-core { stroke-width: 1.4; }
.lt-sld-ansi .lt-sld-ansi-grid { stroke-width: 1.4; }
.lt-sld-ansi .lt-sld-ansi-hook { stroke-width: 1.4; }
.lt-sld-ansi text { dominant-baseline: auto; }
.lt-sld-ansi text[font-weight="600"] { font-weight: 600; }</style>
<line x1="0" y1="-18" x2="0" y2="-14.25" class="lt-sld-stroke"/>
<line x1="0" y1="14.25" x2="0" y2="18" class="lt-sld-stroke"/>
<line x1="0" y1="14.25" x2="8.25" y2="-8.25" class="lt-sld-stroke-thick" data-sld-role="blade"/>
<circle cx="0" cy="14.25" r="2.1" class="lt-sld-dot"/>
<circle cx="0" cy="-14.25" r="2.1" class="lt-sld-dot"/>
<path d="M 8.25 -8.25 A 4.5 4.5 0 0 0 6 -13.125" stroke-linecap="round" class="lt-sld-stroke lt-sld-ansi-hook"/></g></g>
<text x="625.015" y="591" class="lt-sld-id-side">CB-348</text>
<text x="625.015" y="605" class="lt-sld-rating-side">MCCB / 250 A / 3P</text>
<g transform="translate(593.015, 686)" data-type="ct" data-id="f2ct"><g class="lt-sld-ansi"><style>.lt-sld-ansi .lt-sld-stroke, .lt-sld-ansi .lt-sld-fill { stroke-width: 1.4; }
.lt-sld-ansi .lt-sld-stroke-thick { stroke-width: 1.8; }
.lt-sld-ansi .lt-sld-ansi-fine { stroke-width: 1.4; }
.lt-sld-ansi .lt-sld-ansi-core { stroke-width: 1.4; }
.lt-sld-ansi .lt-sld-ansi-grid { stroke-width: 1.4; }
.lt-sld-ansi .lt-sld-ansi-hook { stroke-width: 1.4; }
.lt-sld-ansi text { dominant-baseline: auto; }
.lt-sld-ansi text[font-weight="600"] { font-weight: 600; }</style>
<line x1="0" y1="-16" x2="0" y2="-4.05" class="lt-sld-stroke"/>
<line x1="0" y1="4.05" x2="0" y2="16" class="lt-sld-stroke"/>
<line stroke-linecap="square" class="lt-sld-stroke lt-sld-ansi-core" x1="-4.05" y1="0" x2="-9.45" y2="0"/>
<circle cx="0" cy="0" r="9" class="lt-sld-fill"/>
<text x="0" y="1.35" font-size="9" font-weight="700" text-anchor="middle" class="lt-sld-symbol-text lt-sld-wdg">CT</text></g></g>
<text x="617.015" y="683" class="lt-sld-id-side">TA-739</text>
<text x="617.015" y="697" class="lt-sld-rating-side">3 CTs / 250/5 A</text>
<g transform="translate(522.2125, 778)" data-type="watthour_meter" data-id="f2pm"><g class="lt-sld-ansi"><style>.lt-sld-ansi .lt-sld-stroke, .lt-sld-ansi .lt-sld-fill { stroke-width: 1.4; }
.lt-sld-ansi .lt-sld-stroke-thick { stroke-width: 1.8; }
.lt-sld-ansi .lt-sld-ansi-fine { stroke-width: 1.4; }
.lt-sld-ansi .lt-sld-ansi-core { stroke-width: 1.4; }
.lt-sld-ansi .lt-sld-ansi-grid { stroke-width: 1.4; }
.lt-sld-ansi .lt-sld-ansi-hook { stroke-width: 1.4; }
.lt-sld-ansi text { dominant-baseline: auto; }
.lt-sld-ansi text[font-weight="600"] { font-weight: 600; }</style>
<g><line x1="0" y1="-14" x2="0" y2="-13" class="lt-sld-stroke"/>
<line x1="0" y1="13" x2="0" y2="14" class="lt-sld-stroke"/>
<circle cx="0" cy="0" r="13" class="lt-sld-fill"/>
<text x="0" y="4" font-size="9" font-weight="600" text-anchor="middle" class="lt-sld-symbol-text lt-sld-wdg">Wh</text></g></g></g>
<text x="495.97749999999996" y="808" class="lt-sld-id-side">PM-1096</text>
<text x="503.67249999999996" y="822" class="lt-sld-rating-side">kW / kWh</text>
<g transform="translate(663.8175, 778)" data-type="load" data-id="f2l1ld"><g class="lt-sld-ansi"><style>.lt-sld-ansi .lt-sld-stroke, .lt-sld-ansi .lt-sld-fill { stroke-width: 1.4; }
.lt-sld-ansi .lt-sld-stroke-thick { stroke-width: 1.8; }
.lt-sld-ansi .lt-sld-ansi-fine { stroke-width: 1.4; }
.lt-sld-ansi .lt-sld-ansi-core { stroke-width: 1.4; }
.lt-sld-ansi .lt-sld-ansi-grid { stroke-width: 1.4; }
.lt-sld-ansi .lt-sld-ansi-hook { stroke-width: 1.4; }
.lt-sld-ansi text { dominant-baseline: auto; }
.lt-sld-ansi text[font-weight="600"] { font-weight: 600; }</style>
<line x1="0" y1="-12" x2="0" y2="-10.4" class="lt-sld-stroke"/>
<line x1="0" y1="10.4" x2="0" y2="12" class="lt-sld-stroke"/>
<path d="M -11.2 -10.4 L 11.2 -10.4 L 0 10.4 Z" stroke-linejoin="miter" class="lt-sld-fill"/></g></g>
<text x="633.7347" y="806" class="lt-sld-id-side">PNL-1454</text>
<text x="592.4475" y="820" class="lt-sld-rating-side">DISTRIBUTION FEEDER / 722 kW</text></g></svg>