<svg xmlns="http://www.w3.org/2000/svg" xmlns:xlink="http://www.w3.org/1999/xlink" class="lt-sld" role="img" aria-labelledby="lt-sld-title lt-sld-desc" width="934" height="1013" viewBox="0 0 934 1013"><title>GEN-0129 — FOOD PROCESSING FACILITY / ELECTRICAL DISTRIBUTION</title>
<desc>Single-line diagram with 25 nodes and 24 connections</desc>
<style>.lt-sld { font-family: "Inter", "Helvetica Neue", sans-serif; }
.lt-sld-stroke { stroke: #222222; stroke-width: 1.4; fill: none; }
.lt-sld-stroke-thick { stroke: #222222; stroke-width: 1.8; fill: none; stroke-linecap: round; }
.lt-sld-fill { fill: #ffffff; stroke: #222222; stroke-width: 1.4; }
.lt-sld-fill-dark { fill: #222222; stroke: #222222; stroke-width: 1; }
.lt-sld-dot { fill: #222222; stroke: none; }
.lt-sld-wire-clearance { stroke: #ffffff; stroke-width: 5; fill: none; }
.lt-sld-control { stroke: #222222; stroke-width: 1.4; stroke-dasharray: 5 4; fill: none; }
.lt-sld-wire { stroke: #222222; stroke-width: 1.4; fill: none; }
.lt-sld-bus { stroke: #111111; stroke-width: 3; stroke-linecap: square; }
.lt-sld-title { font-size: 16px; font-weight: 700; fill: #111111; }
.lt-sld-id { font-size: 11px; font-weight: 700; fill: #111111; text-anchor: middle; }
.lt-sld-id-side { font-size: 11px; font-weight: 700; fill: #111111; text-anchor: start; }
.lt-sld-rating { font-size: 9px; fill: #555555; text-anchor: middle; }
.lt-sld-rating-side { font-size: 9px; fill: #555555; text-anchor: start; }
.lt-sld-voltage { font-size: 10px; font-weight: 700; fill: #555555; }
.lt-sld-nameplate { font-size: 9px; fill: #555555; }
.lt-sld-cable { font-size: 9px; fill: #555555; }
.lt-sld-symbol-text:not([font-size]) { font-size: 11px; }
.lt-sld-symbol-text { fill: #111111; dominant-baseline: middle; }
.lt-sld-wdg:not([font-size]) { font-size: 10px; }
.lt-sld-wdg { font-weight: 700; fill: #222222; dominant-baseline: middle; }
.lt-sld-bus-label { font-size: 11px; font-weight: 700; fill: #1d4e89; }
.lt-sld-standard-badge { font-size: 10px; font-weight: 700; fill: #555555; letter-spacing: 0.3px; }
.lt-sld-unknown-box { fill: none; stroke: #1d4e89; stroke-width: 1.6; stroke-dasharray: 5 3; }
.lt-sld-unknown-mark { font-size: 16px; font-weight: 700; fill: #1d4e89; dominant-baseline: middle; }
.lt-sld-unknown-type { font-size: 9px; font-family: monospace; fill: #555555; }</style>
<text x="20" y="22" class="lt-sld-title" data-sld-role="title">GEN-0129 — FOOD PROCESSING FACILITY / ELECTRICAL DISTRIBUTION</text>
<g transform="translate(0, 12)"><path d="M 621.2251500000001 74 L 621.2251500000001 136" class="lt-sld-wire-clearance"/>
<path d="M 621.2251500000001 74 L 621.2251500000001 136" data-from="srcA1" data-to="txA1" class="lt-sld-wire"/>
<path d="M 621.2251500000001 184 L 621.2251500000001 246" class="lt-sld-wire-clearance"/>
<path d="M 621.2251500000001 184 L 621.2251500000001 246" data-from="txA1" data-to="mcbA1" class="lt-sld-wire"/>
<path d="M 621.2251500000001 282 L 621.2251500000001 340" class="lt-sld-wire-clearance"/>
<path d="M 621.2251500000001 282 L 621.2251500000001 340" data-from="mcbA1" data-to="mctA1" class="lt-sld-wire"/>
<path d="M 621.2251500000001 372 L 621.2251500000001 478" class="lt-sld-wire-clearance"/>
<path d="M 621.2251500000001 372 L 621.2251500000001 478" data-from="mctA1" data-to="busA" class="lt-sld-wire"/>
<path d="M 400.36435000000006 74 L 400.36435000000006 142" class="lt-sld-wire-clearance"/>
<path d="M 400.36435000000006 74 L 400.36435000000006 142" data-from="srcA2" data-to="mcbA2" class="lt-sld-wire"/>
<path d="M 400.36435000000006 178 L 400.36435000000006 248" class="lt-sld-wire-clearance"/>
<path d="M 400.36435000000006 178 L 400.36435000000006 248" data-from="mcbA2" data-to="mctA2" class="lt-sld-wire"/>
<path d="M 400.36435000000006 280 L 400.36435000000006 478" class="lt-sld-wire-clearance"/>
<path d="M 400.36435000000006 280 L 400.36435000000006 478" data-from="mctA2" data-to="busA" class="lt-sld-wire"/>
<path d="M 372.25890000000004 478 L 372.25890000000004 588" class="lt-sld-wire-clearance"/>
<path d="M 372.25890000000004 478 L 372.25890000000004 588" data-from="busA" data-to="f1cb" class="lt-sld-wire"/>
<text x="379.25890000000004" y="555" class="lt-sld-cable">3#2/0 AWG</text>
<path d="M 372.25890000000004 624 L 372.25890000000004 682" class="lt-sld-wire-clearance"/>
<path d="M 372.25890000000004 624 L 372.25890000000004 682" data-from="f1cb" data-to="f1ct" class="lt-sld-wire"/>
<path d="M 372.25890000000004 714 L 372.25890000000004 726 L 533.6800000000001 726 L 533.6800000000001 778" class="lt-sld-wire-clearance"/>
<path d="M 372.25890000000004 714 L 372.25890000000004 726 L 533.6800000000001 726 L 533.6800000000001 778" data-from="f1ct" data-to="f1l1ld" class="lt-sld-wire"/>
<path d="M 372.25890000000004 714 L 372.25890000000004 726 L 682.2828000000001 726 L 682.2828000000001 776" class="lt-sld-wire-clearance"/>
<path d="M 372.25890000000004 714 L 372.25890000000004 726 L 682.2828000000001 726 L 682.2828000000001 776" data-from="f1ct" data-to="f1x" class="lt-sld-wire"/>
<path d="M 549.7789 478 L 549.7789 588" class="lt-sld-wire-clearance"/>
<path d="M 549.7789 478 L 549.7789 588" data-from="busA" data-to="f2cb" class="lt-sld-wire"/>
<text x="556.7789" y="555" class="lt-sld-cable">3#2/0 AWG</text>
<path d="M 549.7789 624 L 549.7789 682" class="lt-sld-wire-clearance"/>
<path d="M 549.7789 624 L 549.7789 682" data-from="f2cb" data-to="f2ct" class="lt-sld-wire"/>
<path d="M 549.7789 714 L 549.7789 760 L 150.47 760 L 150.47 772" class="lt-sld-wire-clearance"/>
<path d="M 549.7789 714 L 549.7789 760 L 150.47 760 L 150.47 772" data-from="f2ct" data-to="f2l1cb" class="lt-sld-wire"/>
<path d="M 150.47 808 L 150.47 896" class="lt-sld-wire-clearance"/>
<path d="M 150.47 808 L 150.47 896" data-from="f2l1cb" data-to="f2l1m" class="lt-sld-wire"/>
<path d="M 727.2989 478 L 727.2989 588" class="lt-sld-wire-clearance"/>
<path d="M 727.2989 478 L 727.2989 588" data-from="busA" data-to="f3cb" class="lt-sld-wire"/>
<text x="734.2989" y="555" class="lt-sld-cable">3#1/0 AWG</text>
<path d="M 727.2989 624 L 727.2989 682" class="lt-sld-wire-clearance"/>
<path d="M 727.2989 624 L 727.2989 682" data-from="f3cb" data-to="f3ct" class="lt-sld-wire"/>
<path d="M 727.2989 714 L 727.2989 768 L 322.05 768 L 322.05 772" class="lt-sld-wire-clearance"/>
<path d="M 727.2989 714 L 727.2989 768 L 322.05 768 L 322.05 772" data-from="f3ct" data-to="f3l1cb" class="lt-sld-wire"/>
<path d="M 322.05 808 L 322.05 896" class="lt-sld-wire-clearance"/>
<path d="M 322.05 808 L 322.05 896" data-from="f3l1cb" data-to="f3l1m" class="lt-sld-wire"/>
<path d="M 621.2251500000001 372 L 621.2251500000001 452 L 845.5339 452 L 845.5339 464" class="lt-sld-wire-clearance"/>
<path d="M 621.2251500000001 372 L 621.2251500000001 452 L 845.5339 452 L 845.5339 464" data-from="mctA1" data-to="mpmA1" class="lt-sld-wire" stroke-dasharray="6 4"/>
<path d="M 400.36435000000006 280 L 400.36435000000006 330 L 250.94980000000004 330 L 250.94980000000004 342" class="lt-sld-wire-clearance"/>
<path d="M 400.36435000000006 280 L 400.36435000000006 330 L 250.94980000000004 330 L 250.94980000000004 342" data-from="mctA2" data-to="mpmA2" class="lt-sld-wire" stroke-dasharray="6 4"/>
<path d="M 372.25890000000004 714 L 372.25890000000004 726 L 62.235 726 L 62.235 776" class="lt-sld-wire-clearance"/>
<path d="M 372.25890000000004 714 L 372.25890000000004 726 L 62.235 726 L 62.235 776" data-from="f1ct" data-to="f1pm" class="lt-sld-wire" stroke-dasharray="6 4"/>
<path d="M 549.7789 714 L 549.7789 718 L 774.9050000000001 718 L 774.9050000000001 776" class="lt-sld-wire-clearance"/>
<path d="M 549.7789 714 L 549.7789 718 L 774.9050000000001 718 L 774.9050000000001 776" data-from="f2ct" data-to="f2pm" class="lt-sld-wire" stroke-dasharray="6 4"/>
<path d="M 727.2989 714 L 727.2989 764 L 871.3750000000001 764 L 871.3750000000001 776" class="lt-sld-wire-clearance"/>
<path d="M 727.2989 714 L 727.2989 764 L 871.3750000000001 764 L 871.3750000000001 776" data-from="f3ct" data-to="f3pm" class="lt-sld-wire" stroke-dasharray="6 4"/>
<circle cx="621.2251500000001" cy="452" r="2" class="lt-sld-dot"/>
<circle cx="400.36435000000006" cy="330" r="2" class="lt-sld-dot"/>
<circle cx="372.25890000000004" cy="726" r="2" class="lt-sld-dot"/>
<circle cx="533.6800000000001" cy="726" r="2" class="lt-sld-dot"/>
<circle cx="549.7789" cy="718" r="2" class="lt-sld-dot"/>
<circle cx="727.2989" cy="764" r="2" class="lt-sld-dot"/>
<line x1="324.25890000000004" y1="478" x2="775.2989" y2="478" class="lt-sld-bus" data-id="busA"/>
<text x="244.39770000000004" y="475" class="lt-sld-id-side">BUS-456</text>
<text x="244.39770000000004" y="489" class="lt-sld-id-side">400Y/230V</text>
<g transform="translate(621.2251500000001, 56)" data-type="utility" data-id="srcA1"><g class="lt-sld-ansi"><style>.lt-sld-ansi .lt-sld-stroke, .lt-sld-ansi .lt-sld-fill { stroke-width: 1.4; }
.lt-sld-ansi .lt-sld-stroke-thick { stroke-width: 1.8; }
.lt-sld-ansi .lt-sld-ansi-fine { stroke-width: 1.4; }
.lt-sld-ansi .lt-sld-ansi-core { stroke-width: 1.4; }
.lt-sld-ansi .lt-sld-ansi-grid { stroke-width: 1.4; }
.lt-sld-ansi .lt-sld-ansi-hook { stroke-width: 1.4; }
.lt-sld-ansi text { dominant-baseline: auto; }
.lt-sld-ansi text[font-weight="600"] { font-weight: 600; }</style>
<g><line x1="0" y1="-24" x2="0" y2="-17" class="lt-sld-stroke"/>
<line x1="0" y1="17" x2="0" y2="18" class="lt-sld-stroke"/>
<circle cx="0" cy="0" r="17" class="lt-sld-fill"/>
<path d="M -9 0 Q -4.5 -9 0 0 T 9 0" stroke-linecap="round" class="lt-sld-stroke lt-sld-ansi-fine"/></g></g></g>
<text x="653.2251500000001" y="53" class="lt-sld-id-side">11kV SUPPLY A</text>
<text x="653.2251500000001" y="67" class="lt-sld-rating-side">11kV</text>
<g transform="translate(621.2251500000001, 160)" data-type="transformer_dy" data-id="txA1"><g class="lt-sld-ansi"><style>.lt-sld-ansi .lt-sld-stroke, .lt-sld-ansi .lt-sld-fill { stroke-width: 1.4; }
.lt-sld-ansi .lt-sld-stroke-thick { stroke-width: 1.8; }
.lt-sld-ansi .lt-sld-ansi-fine { stroke-width: 1.4; }
.lt-sld-ansi .lt-sld-ansi-core { stroke-width: 1.4; }
.lt-sld-ansi .lt-sld-ansi-grid { stroke-width: 1.4; }
.lt-sld-ansi .lt-sld-ansi-hook { stroke-width: 1.4; }
.lt-sld-ansi text { dominant-baseline: auto; }
.lt-sld-ansi text[font-weight="600"] { font-weight: 600; }</style>
<line x1="0" y1="-24" x2="0" y2="-8" class="lt-sld-stroke"/>
<line x1="0" y1="8" x2="0" y2="24" class="lt-sld-stroke"/>
<path d="M -9 -5 A 3 3 0 0 1 -3 -5 A 3 3 0 0 1 3 -5 A 3 3 0 0 1 9 -5" stroke-linecap="round" class="lt-sld-stroke"/>
<path d="M -9 5 A 3 3 0 0 0 -3 5 A 3 3 0 0 0 3 5 A 3 3 0 0 0 9 5" stroke-linecap="round" class="lt-sld-stroke"/>
<path d="M -11 -1.5 L 11 -1.5 M -11 1.5 L 11 1.5" class="lt-sld-stroke lt-sld-ansi-core"/>
<path d="M -16.5 -8.5 L -13.25 -3 L -19.75 -3 Z" stroke-linejoin="round" class="lt-sld-stroke lt-sld-ansi-fine"/>
<path d="M -19.5 2.5 L -16.5 5.5 L -13.5 2.5 M -16.5 5.5 L -16.5 13" stroke-linecap="round" class="lt-sld-stroke lt-sld-ansi-fine"/>
<path d="M -20.5 13 L -12.5 13 M -19 15 L -14 15 M -17.5 17 L -15.5 17" stroke-linecap="round" class="lt-sld-stroke lt-sld-ansi-fine"/></g></g>
<text x="657.2251500000001" y="157" class="lt-sld-id-side">TX-1670</text>
<text x="657.2251500000001" y="171" class="lt-sld-rating-side">280 kVA</text>
<text x="657.2251500000001" y="183" class="lt-sld-rating-side">11kV / 400Y/230V</text>
<g transform="translate(621.2251500000001, 264)" data-type="breaker" data-id="mcbA1"><g class="lt-sld-ansi"><style>.lt-sld-ansi .lt-sld-stroke, .lt-sld-ansi .lt-sld-fill { stroke-width: 1.4; }
.lt-sld-ansi .lt-sld-stroke-thick { stroke-width: 1.8; }
.lt-sld-ansi .lt-sld-ansi-fine { stroke-width: 1.4; }
.lt-sld-ansi .lt-sld-ansi-core { stroke-width: 1.4; }
.lt-sld-ansi .lt-sld-ansi-grid { stroke-width: 1.4; }
.lt-sld-ansi .lt-sld-ansi-hook { stroke-width: 1.4; }
.lt-sld-ansi text { dominant-baseline: auto; }
.lt-sld-ansi text[font-weight="600"] { font-weight: 600; }</style>
<line x1="0" y1="-18" x2="0" y2="-14.25" class="lt-sld-stroke"/>
<line x1="0" y1="14.25" x2="0" y2="18" class="lt-sld-stroke"/>
<line x1="0" y1="14.25" x2="8.25" y2="-8.25" class="lt-sld-stroke-thick" data-sld-role="blade"/>
<circle cx="0" cy="14.25" r="2.1" class="lt-sld-dot"/>
<circle cx="0" cy="-14.25" r="2.1" class="lt-sld-dot"/>
<path d="M 8.25 -8.25 A 4.5 4.5 0 0 0 6 -13.125" stroke-linecap="round" class="lt-sld-stroke lt-sld-ansi-hook"/></g></g>
<text x="653.2251500000001" y="261" class="lt-sld-id-side">CB-325</text>
<text x="653.2251500000001" y="275" class="lt-sld-rating-side">ACB / 400 A / 3P</text>
<g transform="translate(621.2251500000001, 356)" data-type="ct" data-id="mctA1"><g class="lt-sld-ansi"><style>.lt-sld-ansi .lt-sld-stroke, .lt-sld-ansi .lt-sld-fill { stroke-width: 1.4; }
.lt-sld-ansi .lt-sld-stroke-thick { stroke-width: 1.8; }
.lt-sld-ansi .lt-sld-ansi-fine { stroke-width: 1.4; }
.lt-sld-ansi .lt-sld-ansi-core { stroke-width: 1.4; }
.lt-sld-ansi .lt-sld-ansi-grid { stroke-width: 1.4; }
.lt-sld-ansi .lt-sld-ansi-hook { stroke-width: 1.4; }
.lt-sld-ansi text { dominant-baseline: auto; }
.lt-sld-ansi text[font-weight="600"] { font-weight: 600; }</style>
<line x1="0" y1="-16" x2="0" y2="-4.05" class="lt-sld-stroke"/>
<line x1="0" y1="4.05" x2="0" y2="16" class="lt-sld-stroke"/>
<line stroke-linecap="square" class="lt-sld-stroke lt-sld-ansi-core" x1="-4.05" y1="0" x2="-9.45" y2="0"/>
<circle cx="0" cy="0" r="9" class="lt-sld-fill"/>
<text x="0" y="1.35" font-size="9" font-weight="700" text-anchor="middle" class="lt-sld-symbol-text lt-sld-wdg">CT</text></g></g>
<text x="645.2251500000001" y="353" class="lt-sld-id-side">TA-772</text>
<text x="645.2251500000001" y="367" class="lt-sld-rating-side">3 CTs / 400/5 A</text>
<g transform="translate(845.5339, 478)" data-type="watthour_meter" data-id="mpmA1"><g class="lt-sld-ansi"><style>.lt-sld-ansi .lt-sld-stroke, .lt-sld-ansi .lt-sld-fill { stroke-width: 1.4; }
.lt-sld-ansi .lt-sld-stroke-thick { stroke-width: 1.8; }
.lt-sld-ansi .lt-sld-ansi-fine { stroke-width: 1.4; }
.lt-sld-ansi .lt-sld-ansi-core { stroke-width: 1.4; }
.lt-sld-ansi .lt-sld-ansi-grid { stroke-width: 1.4; }
.lt-sld-ansi .lt-sld-ansi-hook { stroke-width: 1.4; }
.lt-sld-ansi text { dominant-baseline: auto; }
.lt-sld-ansi text[font-weight="600"] { font-weight: 600; }</style>
<g><line x1="0" y1="-14" x2="0" y2="-13" class="lt-sld-stroke"/>
<line x1="0" y1="13" x2="0" y2="14" class="lt-sld-stroke"/>
<circle cx="0" cy="0" r="13" class="lt-sld-fill"/>
<text x="0" y="4" font-size="9" font-weight="600" text-anchor="middle" class="lt-sld-symbol-text lt-sld-wdg">Wh</text></g></g></g>
<text x="819.2989" y="508" class="lt-sld-id-side">PM-1064</text>
<text x="826.9939" y="522" class="lt-sld-rating-side">kW / kWh</text>
<g transform="translate(400.36435000000006, 56)" data-type="generator" data-id="srcA2"><g class="lt-sld-ansi"><style>.lt-sld-ansi .lt-sld-stroke, .lt-sld-ansi .lt-sld-fill { stroke-width: 1.4; }
.lt-sld-ansi .lt-sld-stroke-thick { stroke-width: 1.8; }
.lt-sld-ansi .lt-sld-ansi-fine { stroke-width: 1.4; }
.lt-sld-ansi .lt-sld-ansi-core { stroke-width: 1.4; }
.lt-sld-ansi .lt-sld-ansi-grid { stroke-width: 1.4; }
.lt-sld-ansi .lt-sld-ansi-hook { stroke-width: 1.4; }
.lt-sld-ansi text { dominant-baseline: auto; }
.lt-sld-ansi text[font-weight="600"] { font-weight: 600; }</style>
<line x1="0" y1="-24" x2="0" y2="-8.5" class="lt-sld-stroke"/>
<line x1="0" y1="8.5" x2="0" y2="18" class="lt-sld-stroke"/>
<circle cx="0" cy="0" r="12" class="lt-sld-fill"/>
<text x="0" y="-0.5" font-size="14" font-weight="700" text-anchor="middle" class="lt-sld-symbol-text lt-sld-wdg">G</text>
<path d="M -3.5 4 Q -1.75 1 0 4 T 3.5 4" stroke-linecap="round" class="lt-sld-stroke lt-sld-ansi-fine"/>
<path d="M -16.25 -4 L -13.25 -1 L -10.25 -4 M -13.25 -1 L -13.25 6.5" stroke-linecap="round" class="lt-sld-stroke lt-sld-ansi-fine"/>
<path d="M -17.25 6.5 L -9.25 6.5 M -15.75 8.5 L -10.75 8.5 M -14.25 10.5 L -12.25 10.5" stroke-linecap="round" class="lt-sld-stroke lt-sld-ansi-fine"/></g></g>
<text x="432.36435000000006" y="53" class="lt-sld-id-side">STANDBY GENERATOR</text>
<text x="432.36435000000006" y="67" class="lt-sld-rating-side">400 kW</text>
<text x="432.36435000000006" y="79" class="lt-sld-rating-side">400Y/230V</text>
<g transform="translate(400.36435000000006, 160)" data-type="breaker" data-id="mcbA2"><g class="lt-sld-ansi"><style>.lt-sld-ansi .lt-sld-stroke, .lt-sld-ansi .lt-sld-fill { stroke-width: 1.4; }
.lt-sld-ansi .lt-sld-stroke-thick { stroke-width: 1.8; }
.lt-sld-ansi .lt-sld-ansi-fine { stroke-width: 1.4; }
.lt-sld-ansi .lt-sld-ansi-core { stroke-width: 1.4; }
.lt-sld-ansi .lt-sld-ansi-grid { stroke-width: 1.4; }
.lt-sld-ansi .lt-sld-ansi-hook { stroke-width: 1.4; }
.lt-sld-ansi text { dominant-baseline: auto; }
.lt-sld-ansi text[font-weight="600"] { font-weight: 600; }</style>
<line x1="0" y1="-18" x2="0" y2="-14.25" class="lt-sld-stroke"/>
<line x1="0" y1="14.25" x2="0" y2="18" class="lt-sld-stroke"/>
<line x1="0" y1="14.25" x2="8.25" y2="-8.25" class="lt-sld-stroke-thick" data-sld-role="blade"/>
<circle cx="0" cy="14.25" r="2.1" class="lt-sld-dot"/>
<circle cx="0" cy="-14.25" r="2.1" class="lt-sld-dot"/>
<path d="M 8.25 -8.25 A 4.5 4.5 0 0 0 6 -13.125" stroke-linecap="round" class="lt-sld-stroke lt-sld-ansi-hook"/></g></g>
<text x="432.36435000000006" y="157" class="lt-sld-id-side">CB-361</text>
<text x="432.36435000000006" y="171" class="lt-sld-rating-side">ACB / 630 A / 3P</text>
<g transform="translate(400.36435000000006, 264)" data-type="ct" data-id="mctA2"><g class="lt-sld-ansi"><style>.lt-sld-ansi .lt-sld-stroke, .lt-sld-ansi .lt-sld-fill { stroke-width: 1.4; }
.lt-sld-ansi .lt-sld-stroke-thick { stroke-width: 1.8; }
.lt-sld-ansi .lt-sld-ansi-fine { stroke-width: 1.4; }
.lt-sld-ansi .lt-sld-ansi-core { stroke-width: 1.4; }
.lt-sld-ansi .lt-sld-ansi-grid { stroke-width: 1.4; }
.lt-sld-ansi .lt-sld-ansi-hook { stroke-width: 1.4; }
.lt-sld-ansi text { dominant-baseline: auto; }
.lt-sld-ansi text[font-weight="600"] { font-weight: 600; }</style>
<line x1="0" y1="-16" x2="0" y2="-4.05" class="lt-sld-stroke"/>
<line x1="0" y1="4.05" x2="0" y2="16" class="lt-sld-stroke"/>
<line stroke-linecap="square" class="lt-sld-stroke lt-sld-ansi-core" x1="-4.05" y1="0" x2="-9.45" y2="0"/>
<circle cx="0" cy="0" r="9" class="lt-sld-fill"/>
<text x="0" y="1.35" font-size="9" font-weight="700" text-anchor="middle" class="lt-sld-symbol-text lt-sld-wdg">CT</text></g></g>
<text x="424.36435000000006" y="261" class="lt-sld-id-side">TA-789</text>
<text x="424.36435000000006" y="275" class="lt-sld-rating-side">3 CTs / 630/5 A</text>
<g transform="translate(250.94980000000004, 356)" data-type="watthour_meter" data-id="mpmA2"><g class="lt-sld-ansi"><style>.lt-sld-ansi .lt-sld-stroke, .lt-sld-ansi .lt-sld-fill { stroke-width: 1.4; }
.lt-sld-ansi .lt-sld-stroke-thick { stroke-width: 1.8; }
.lt-sld-ansi .lt-sld-ansi-fine { stroke-width: 1.4; }
.lt-sld-ansi .lt-sld-ansi-core { stroke-width: 1.4; }
.lt-sld-ansi .lt-sld-ansi-grid { stroke-width: 1.4; }
.lt-sld-ansi .lt-sld-ansi-hook { stroke-width: 1.4; }
.lt-sld-ansi text { dominant-baseline: auto; }
.lt-sld-ansi text[font-weight="600"] { font-weight: 600; }</style>
<g><line x1="0" y1="-14" x2="0" y2="-13" class="lt-sld-stroke"/>
<line x1="0" y1="13" x2="0" y2="14" class="lt-sld-stroke"/>
<circle cx="0" cy="0" r="13" class="lt-sld-fill"/>
<text x="0" y="4" font-size="9" font-weight="600" text-anchor="middle" class="lt-sld-symbol-text lt-sld-wdg">Wh</text></g></g></g>
<text x="224.71480000000003" y="386" class="lt-sld-id-side">PM-1034</text>
<text x="232.40980000000002" y="400" class="lt-sld-rating-side">kW / kWh</text>
<g transform="translate(372.25890000000004, 606)" data-type="breaker" data-id="f1cb"><g class="lt-sld-ansi"><style>.lt-sld-ansi .lt-sld-stroke, .lt-sld-ansi .lt-sld-fill { stroke-width: 1.4; }
.lt-sld-ansi .lt-sld-stroke-thick { stroke-width: 1.8; }
.lt-sld-ansi .lt-sld-ansi-fine { stroke-width: 1.4; }
.lt-sld-ansi .lt-sld-ansi-core { stroke-width: 1.4; }
.lt-sld-ansi .lt-sld-ansi-grid { stroke-width: 1.4; }
.lt-sld-ansi .lt-sld-ansi-hook { stroke-width: 1.4; }
.lt-sld-ansi text { dominant-baseline: auto; }
.lt-sld-ansi text[font-weight="600"] { font-weight: 600; }</style>
<line x1="0" y1="-18" x2="0" y2="-14.25" class="lt-sld-stroke"/>
<line x1="0" y1="14.25" x2="0" y2="18" class="lt-sld-stroke"/>
<line x1="0" y1="14.25" x2="8.25" y2="-8.25" class="lt-sld-stroke-thick" data-sld-role="blade"/>
<circle cx="0" cy="14.25" r="2.1" class="lt-sld-dot"/>
<circle cx="0" cy="-14.25" r="2.1" class="lt-sld-dot"/>
<path d="M 8.25 -8.25 A 4.5 4.5 0 0 0 6 -13.125" stroke-linecap="round" class="lt-sld-stroke lt-sld-ansi-hook"/></g></g>
<text x="404.25890000000004" y="603" class="lt-sld-id-side">CB-324</text>
<text x="404.25890000000004" y="617" class="lt-sld-rating-side">MCCB / 250 A / 3P</text>
<g transform="translate(372.25890000000004, 698)" data-type="ct" data-id="f1ct"><g class="lt-sld-ansi"><style>.lt-sld-ansi .lt-sld-stroke, .lt-sld-ansi .lt-sld-fill { stroke-width: 1.4; }
.lt-sld-ansi .lt-sld-stroke-thick { stroke-width: 1.8; }
.lt-sld-ansi .lt-sld-ansi-fine { stroke-width: 1.4; }
.lt-sld-ansi .lt-sld-ansi-core { stroke-width: 1.4; }
.lt-sld-ansi .lt-sld-ansi-grid { stroke-width: 1.4; }
.lt-sld-ansi .lt-sld-ansi-hook { stroke-width: 1.4; }
.lt-sld-ansi text { dominant-baseline: auto; }
.lt-sld-ansi text[font-weight="600"] { font-weight: 600; }</style>
<line x1="0" y1="-16" x2="0" y2="-4.05" class="lt-sld-stroke"/>
<line x1="0" y1="4.05" x2="0" y2="16" class="lt-sld-stroke"/>
<line stroke-linecap="square" class="lt-sld-stroke lt-sld-ansi-core" x1="-4.05" y1="0" x2="-9.45" y2="0"/>
<circle cx="0" cy="0" r="9" class="lt-sld-fill"/>
<text x="0" y="1.35" font-size="9" font-weight="700" text-anchor="middle" class="lt-sld-symbol-text lt-sld-wdg">CT</text></g></g>
<text x="396.25890000000004" y="695" class="lt-sld-id-side">TA-734</text>
<text x="396.25890000000004" y="709" class="lt-sld-rating-side">3 CTs / 250/5 A</text>
<g transform="translate(62.235, 790)" data-type="watthour_meter" data-id="f1pm"><g class="lt-sld-ansi"><style>.lt-sld-ansi .lt-sld-stroke, .lt-sld-ansi .lt-sld-fill { stroke-width: 1.4; }
.lt-sld-ansi .lt-sld-stroke-thick { stroke-width: 1.8; }
.lt-sld-ansi .lt-sld-ansi-fine { stroke-width: 1.4; }
.lt-sld-ansi .lt-sld-ansi-core { stroke-width: 1.4; }
.lt-sld-ansi .lt-sld-ansi-grid { stroke-width: 1.4; }
.lt-sld-ansi .lt-sld-ansi-hook { stroke-width: 1.4; }
.lt-sld-ansi text { dominant-baseline: auto; }
.lt-sld-ansi text[font-weight="600"] { font-weight: 600; }</style>
<g><line x1="0" y1="-14" x2="0" y2="-13" class="lt-sld-stroke"/>
<line x1="0" y1="13" x2="0" y2="14" class="lt-sld-stroke"/>
<circle cx="0" cy="0" r="13" class="lt-sld-fill"/>
<text x="0" y="4" font-size="9" font-weight="600" text-anchor="middle" class="lt-sld-symbol-text lt-sld-wdg">Wh</text></g></g></g>
<text x="36" y="820" class="lt-sld-id-side">PM-1087</text>
<text x="43.69499999999999" y="834" class="lt-sld-rating-side">kW / kWh</text>
<g transform="translate(533.6800000000001, 790)" data-type="load" data-id="f1l1ld"><g class="lt-sld-ansi"><style>.lt-sld-ansi .lt-sld-stroke, .lt-sld-ansi .lt-sld-fill { stroke-width: 1.4; }
.lt-sld-ansi .lt-sld-stroke-thick { stroke-width: 1.8; }
.lt-sld-ansi .lt-sld-ansi-fine { stroke-width: 1.4; }
.lt-sld-ansi .lt-sld-ansi-core { stroke-width: 1.4; }
.lt-sld-ansi .lt-sld-ansi-grid { stroke-width: 1.4; }
.lt-sld-ansi .lt-sld-ansi-hook { stroke-width: 1.4; }
.lt-sld-ansi text { dominant-baseline: auto; }
.lt-sld-ansi text[font-weight="600"] { font-weight: 600; }</style>
<line x1="0" y1="-12" x2="0" y2="-10.4" class="lt-sld-stroke"/>
<line x1="0" y1="10.4" x2="0" y2="12" class="lt-sld-stroke"/>
<path d="M -11.2 -10.4 L 11.2 -10.4 L 0 10.4 Z" stroke-linejoin="miter" class="lt-sld-fill"/></g></g>
<text x="503.5972" y="818" class="lt-sld-id-side">PNL-1462</text>
<text x="475.63" y="832" class="lt-sld-rating-side">AUXILIARY PANEL / 27 kW</text>
<g transform="translate(682.2828000000001, 790)" data-type="harmonic_filter" data-id="f1x"><g class="lt-sld-ansi"><style>.lt-sld-ansi .lt-sld-stroke, .lt-sld-ansi .lt-sld-fill { stroke-width: 1.4; }
.lt-sld-ansi .lt-sld-stroke-thick { stroke-width: 1.8; }
.lt-sld-ansi .lt-sld-ansi-fine { stroke-width: 1.4; }
.lt-sld-ansi .lt-sld-ansi-core { stroke-width: 1.4; }
.lt-sld-ansi .lt-sld-ansi-grid { stroke-width: 1.4; }
.lt-sld-ansi .lt-sld-ansi-hook { stroke-width: 1.4; }
.lt-sld-ansi text { dominant-baseline: auto; }
.lt-sld-ansi text[font-weight="600"] { font-weight: 600; }</style>
<line x1="0" y1="-14" x2="0" y2="-7.2" class="lt-sld-stroke"/>
<line x1="0" y1="8.4" x2="0" y2="14" class="lt-sld-stroke"/>
<g transform="translate(0 -1.8) rotate(90)"><path d="M -5.4 0 A 1.8 1.8 0 0 1 -1.8 0 A 1.8 1.8 0 0 1 1.8 0 A 1.8 1.8 0 0 1 5.4 0" stroke-linecap="round" class="lt-sld-stroke"/></g>
<line stroke-linecap="square" class="lt-sld-stroke" x1="0" y1="3.6" x2="0" y2="6"/>
<line stroke-linecap="square" class="lt-sld-stroke" x1="-3.6" y1="6" x2="3.6" y2="6"/>
<line stroke-linecap="square" class="lt-sld-stroke" x1="-3.6" y1="8.4" x2="3.6" y2="8.4"/></g></g>
<text x="659.8956000000001" y="820" class="lt-sld-id-side">HF-570</text>
<text x="663.2928" y="834" class="lt-sld-rating-side">5th / 7th</text>
<g transform="translate(549.7789, 606)" data-type="breaker" data-id="f2cb"><g class="lt-sld-ansi"><style>.lt-sld-ansi .lt-sld-stroke, .lt-sld-ansi .lt-sld-fill { stroke-width: 1.4; }
.lt-sld-ansi .lt-sld-stroke-thick { stroke-width: 1.8; }
.lt-sld-ansi .lt-sld-ansi-fine { stroke-width: 1.4; }
.lt-sld-ansi .lt-sld-ansi-core { stroke-width: 1.4; }
.lt-sld-ansi .lt-sld-ansi-grid { stroke-width: 1.4; }
.lt-sld-ansi .lt-sld-ansi-hook { stroke-width: 1.4; }
.lt-sld-ansi text { dominant-baseline: auto; }
.lt-sld-ansi text[font-weight="600"] { font-weight: 600; }</style>
<line x1="0" y1="-18" x2="0" y2="-14.25" class="lt-sld-stroke"/>
<line x1="0" y1="14.25" x2="0" y2="18" class="lt-sld-stroke"/>
<line x1="0" y1="14.25" x2="8.25" y2="-8.25" class="lt-sld-stroke-thick" data-sld-role="blade"/>
<circle cx="0" cy="14.25" r="2.1" class="lt-sld-dot"/>
<circle cx="0" cy="-14.25" r="2.1" class="lt-sld-dot"/>
<path d="M 8.25 -8.25 A 4.5 4.5 0 0 0 6 -13.125" stroke-linecap="round" class="lt-sld-stroke lt-sld-ansi-hook"/></g></g>
<text x="581.7789" y="603" class="lt-sld-id-side">CB-351</text>
<text x="581.7789" y="617" class="lt-sld-rating-side">MCCB / 250 A / 3P</text>
<g transform="translate(549.7789, 698)" data-type="ct" data-id="f2ct"><g class="lt-sld-ansi"><style>.lt-sld-ansi .lt-sld-stroke, .lt-sld-ansi .lt-sld-fill { stroke-width: 1.4; }
.lt-sld-ansi .lt-sld-stroke-thick { stroke-width: 1.8; }
.lt-sld-ansi .lt-sld-ansi-fine { stroke-width: 1.4; }
.lt-sld-ansi .lt-sld-ansi-core { stroke-width: 1.4; }
.lt-sld-ansi .lt-sld-ansi-grid { stroke-width: 1.4; }
.lt-sld-ansi .lt-sld-ansi-hook { stroke-width: 1.4; }
.lt-sld-ansi text { dominant-baseline: auto; }
.lt-sld-ansi text[font-weight="600"] { font-weight: 600; }</style>
<line x1="0" y1="-16" x2="0" y2="-4.05" class="lt-sld-stroke"/>
<line x1="0" y1="4.05" x2="0" y2="16" class="lt-sld-stroke"/>
<line stroke-linecap="square" class="lt-sld-stroke lt-sld-ansi-core" x1="-4.05" y1="0" x2="-9.45" y2="0"/>
<circle cx="0" cy="0" r="9" class="lt-sld-fill"/>
<text x="0" y="1.35" font-size="9" font-weight="700" text-anchor="middle" class="lt-sld-symbol-text lt-sld-wdg">CT</text></g></g>
<text x="573.7789" y="695" class="lt-sld-id-side">TA-725</text>
<text x="573.7789" y="709" class="lt-sld-rating-side">3 CTs / 250/5 A</text>
<g transform="translate(774.9050000000001, 790)" data-type="watthour_meter" data-id="f2pm"><g class="lt-sld-ansi"><style>.lt-sld-ansi .lt-sld-stroke, .lt-sld-ansi .lt-sld-fill { stroke-width: 1.4; }
.lt-sld-ansi .lt-sld-stroke-thick { stroke-width: 1.8; }
.lt-sld-ansi .lt-sld-ansi-fine { stroke-width: 1.4; }
.lt-sld-ansi .lt-sld-ansi-core { stroke-width: 1.4; }
.lt-sld-ansi .lt-sld-ansi-grid { stroke-width: 1.4; }
.lt-sld-ansi .lt-sld-ansi-hook { stroke-width: 1.4; }
.lt-sld-ansi text { dominant-baseline: auto; }
.lt-sld-ansi text[font-weight="600"] { font-weight: 600; }</style>
<g><line x1="0" y1="-14" x2="0" y2="-13" class="lt-sld-stroke"/>
<line x1="0" y1="13" x2="0" y2="14" class="lt-sld-stroke"/>
<circle cx="0" cy="0" r="13" class="lt-sld-fill"/>
<text x="0" y="4" font-size="9" font-weight="600" text-anchor="middle" class="lt-sld-symbol-text lt-sld-wdg">Wh</text></g></g></g>
<text x="748.6700000000001" y="820" class="lt-sld-id-side">PM-1045</text>
<text x="756.3650000000001" y="834" class="lt-sld-rating-side">kW / kWh</text>
<g transform="translate(150.47, 790)" data-type="breaker" data-id="f2l1cb"><g class="lt-sld-ansi"><style>.lt-sld-ansi .lt-sld-stroke, .lt-sld-ansi .lt-sld-fill { stroke-width: 1.4; }
.lt-sld-ansi .lt-sld-stroke-thick { stroke-width: 1.8; }
.lt-sld-ansi .lt-sld-ansi-fine { stroke-width: 1.4; }
.lt-sld-ansi .lt-sld-ansi-core { stroke-width: 1.4; }
.lt-sld-ansi .lt-sld-ansi-grid { stroke-width: 1.4; }
.lt-sld-ansi .lt-sld-ansi-hook { stroke-width: 1.4; }
.lt-sld-ansi text { dominant-baseline: auto; }
.lt-sld-ansi text[font-weight="600"] { font-weight: 600; }</style>
<line x1="0" y1="-18" x2="0" y2="-14.25" class="lt-sld-stroke"/>
<line x1="0" y1="14.25" x2="0" y2="18" class="lt-sld-stroke"/>
<line x1="0" y1="14.25" x2="8.25" y2="-8.25" class="lt-sld-stroke-thick" data-sld-role="blade"/>
<circle cx="0" cy="14.25" r="2.1" class="lt-sld-dot"/>
<circle cx="0" cy="-14.25" r="2.1" class="lt-sld-dot"/>
<path d="M 8.25 -8.25 A 4.5 4.5 0 0 0 6 -13.125" stroke-linecap="round" class="lt-sld-stroke lt-sld-ansi-hook"/></g></g>
<text x="182.47" y="787" class="lt-sld-id-side">CB-376</text>
<text x="182.47" y="801" class="lt-sld-rating-side">MCCB / 63 A / 3P</text>
<g transform="translate(150.47, 912)" data-type="motor" data-id="f2l1m"><g class="lt-sld-ansi"><style>.lt-sld-ansi .lt-sld-stroke, .lt-sld-ansi .lt-sld-fill { stroke-width: 1.4; }
.lt-sld-ansi .lt-sld-stroke-thick { stroke-width: 1.8; }
.lt-sld-ansi .lt-sld-ansi-fine { stroke-width: 1.4; }
.lt-sld-ansi .lt-sld-ansi-core { stroke-width: 1.4; }
.lt-sld-ansi .lt-sld-ansi-grid { stroke-width: 1.4; }
.lt-sld-ansi .lt-sld-ansi-hook { stroke-width: 1.4; }
.lt-sld-ansi text { dominant-baseline: auto; }
.lt-sld-ansi text[font-weight="600"] { font-weight: 600; }</style>
<g><line x1="0" y1="-16" x2="0" y2="-15" class="lt-sld-stroke"/>
<line x1="0" y1="15" x2="0" y2="22" class="lt-sld-stroke"/>
<circle cx="0" cy="0" r="15" class="lt-sld-fill"/>
<text x="0" y="5" font-size="13" font-weight="700" text-anchor="middle" class="lt-sld-symbol-text lt-sld-wdg">M</text></g></g></g>
<text x="120.38719999999999" y="950" class="lt-sld-id-side">MTR-1172</text>
<text x="120.5" y="964" class="lt-sld-rating-side">26 kW / COMP</text>
<g transform="translate(727.2989, 606)" data-type="breaker" data-id="f3cb"><g class="lt-sld-ansi"><style>.lt-sld-ansi .lt-sld-stroke, .lt-sld-ansi .lt-sld-fill { stroke-width: 1.4; }
.lt-sld-ansi .lt-sld-stroke-thick { stroke-width: 1.8; }
.lt-sld-ansi .lt-sld-ansi-fine { stroke-width: 1.4; }
.lt-sld-ansi .lt-sld-ansi-core { stroke-width: 1.4; }
.lt-sld-ansi .lt-sld-ansi-grid { stroke-width: 1.4; }
.lt-sld-ansi .lt-sld-ansi-hook { stroke-width: 1.4; }
.lt-sld-ansi text { dominant-baseline: auto; }
.lt-sld-ansi text[font-weight="600"] { font-weight: 600; }</style>
<line x1="0" y1="-18" x2="0" y2="-14.25" class="lt-sld-stroke"/>
<line x1="0" y1="14.25" x2="0" y2="18" class="lt-sld-stroke"/>
<line x1="0" y1="14.25" x2="8.25" y2="-8.25" class="lt-sld-stroke-thick" data-sld-role="blade"/>
<circle cx="0" cy="14.25" r="2.1" class="lt-sld-dot"/>
<circle cx="0" cy="-14.25" r="2.1" class="lt-sld-dot"/>
<path d="M 8.25 -8.25 A 4.5 4.5 0 0 0 6 -13.125" stroke-linecap="round" class="lt-sld-stroke lt-sld-ansi-hook"/></g></g>
<text x="759.2989" y="603" class="lt-sld-id-side">CB-306</text>
<text x="759.2989" y="617" class="lt-sld-rating-side">MCCB / 160 A / 3P</text>
<g transform="translate(727.2989, 698)" data-type="ct" data-id="f3ct"><g class="lt-sld-ansi"><style>.lt-sld-ansi .lt-sld-stroke, .lt-sld-ansi .lt-sld-fill { stroke-width: 1.4; }
.lt-sld-ansi .lt-sld-stroke-thick { stroke-width: 1.8; }
.lt-sld-ansi .lt-sld-ansi-fine { stroke-width: 1.4; }
.lt-sld-ansi .lt-sld-ansi-core { stroke-width: 1.4; }
.lt-sld-ansi .lt-sld-ansi-grid { stroke-width: 1.4; }
.lt-sld-ansi .lt-sld-ansi-hook { stroke-width: 1.4; }
.lt-sld-ansi text { dominant-baseline: auto; }
.lt-sld-ansi text[font-weight="600"] { font-weight: 600; }</style>
<line x1="0" y1="-16" x2="0" y2="-4.05" class="lt-sld-stroke"/>
<line x1="0" y1="4.05" x2="0" y2="16" class="lt-sld-stroke"/>
<line stroke-linecap="square" class="lt-sld-stroke lt-sld-ansi-core" x1="-4.05" y1="0" x2="-9.45" y2="0"/>
<circle cx="0" cy="0" r="9" class="lt-sld-fill"/>
<text x="0" y="1.35" font-size="9" font-weight="700" text-anchor="middle" class="lt-sld-symbol-text lt-sld-wdg">CT</text></g></g>
<text x="751.2989" y="695" class="lt-sld-id-side">TA-741</text>
<text x="751.2989" y="709" class="lt-sld-rating-side">3 CTs / 160/5 A</text>
<g transform="translate(871.3750000000001, 790)" data-type="watthour_meter" data-id="f3pm"><g class="lt-sld-ansi"><style>.lt-sld-ansi .lt-sld-stroke, .lt-sld-ansi .lt-sld-fill { stroke-width: 1.4; }
.lt-sld-ansi .lt-sld-stroke-thick { stroke-width: 1.8; }
.lt-sld-ansi .lt-sld-ansi-fine { stroke-width: 1.4; }
.lt-sld-ansi .lt-sld-ansi-core { stroke-width: 1.4; }
.lt-sld-ansi .lt-sld-ansi-grid { stroke-width: 1.4; }
.lt-sld-ansi .lt-sld-ansi-hook { stroke-width: 1.4; }
.lt-sld-ansi text { dominant-baseline: auto; }
.lt-sld-ansi text[font-weight="600"] { font-weight: 600; }</style>
<g><line x1="0" y1="-14" x2="0" y2="-13" class="lt-sld-stroke"/>
<line x1="0" y1="13" x2="0" y2="14" class="lt-sld-stroke"/>
<circle cx="0" cy="0" r="13" class="lt-sld-fill"/>
<text x="0" y="4" font-size="9" font-weight="600" text-anchor="middle" class="lt-sld-symbol-text lt-sld-wdg">Wh</text></g></g></g>
<text x="845.1400000000001" y="820" class="lt-sld-id-side">PM-1081</text>
<text x="852.8350000000002" y="834" class="lt-sld-rating-side">kW / kWh</text>
<g transform="translate(322.05, 790)" data-type="breaker" data-id="f3l1cb"><g class="lt-sld-ansi"><style>.lt-sld-ansi .lt-sld-stroke, .lt-sld-ansi .lt-sld-fill { stroke-width: 1.4; }
.lt-sld-ansi .lt-sld-stroke-thick { stroke-width: 1.8; }
.lt-sld-ansi .lt-sld-ansi-fine { stroke-width: 1.4; }
.lt-sld-ansi .lt-sld-ansi-core { stroke-width: 1.4; }
.lt-sld-ansi .lt-sld-ansi-grid { stroke-width: 1.4; }
.lt-sld-ansi .lt-sld-ansi-hook { stroke-width: 1.4; }
.lt-sld-ansi text { dominant-baseline: auto; }
.lt-sld-ansi text[font-weight="600"] { font-weight: 600; }</style>
<line x1="0" y1="-18" x2="0" y2="-14.25" class="lt-sld-stroke"/>
<line x1="0" y1="14.25" x2="0" y2="18" class="lt-sld-stroke"/>
<line x1="0" y1="14.25" x2="8.25" y2="-8.25" class="lt-sld-stroke-thick" data-sld-role="blade"/>
<circle cx="0" cy="14.25" r="2.1" class="lt-sld-dot"/>
<circle cx="0" cy="-14.25" r="2.1" class="lt-sld-dot"/>
<path d="M 8.25 -8.25 A 4.5 4.5 0 0 0 6 -13.125" stroke-linecap="round" class="lt-sld-stroke lt-sld-ansi-hook"/></g></g>
<text x="354.05" y="787" class="lt-sld-id-side">CB-369</text>
<text x="354.05" y="801" class="lt-sld-rating-side">MCCB / 80 A / 3P</text>
<g transform="translate(322.05, 912)" data-type="motor" data-id="f3l1m"><g class="lt-sld-ansi"><style>.lt-sld-ansi .lt-sld-stroke, .lt-sld-ansi .lt-sld-fill { stroke-width: 1.4; }
.lt-sld-ansi .lt-sld-stroke-thick { stroke-width: 1.8; }
.lt-sld-ansi .lt-sld-ansi-fine { stroke-width: 1.4; }
.lt-sld-ansi .lt-sld-ansi-core { stroke-width: 1.4; }
.lt-sld-ansi .lt-sld-ansi-grid { stroke-width: 1.4; }
.lt-sld-ansi .lt-sld-ansi-hook { stroke-width: 1.4; }
.lt-sld-ansi text { dominant-baseline: auto; }
.lt-sld-ansi text[font-weight="600"] { font-weight: 600; }</style>
<g><line x1="0" y1="-16" x2="0" y2="-15" class="lt-sld-stroke"/>
<line x1="0" y1="15" x2="0" y2="22" class="lt-sld-stroke"/>
<circle cx="0" cy="0" r="15" class="lt-sld-fill"/>
<text x="0" y="5" font-size="13" font-weight="700" text-anchor="middle" class="lt-sld-symbol-text lt-sld-wdg">M</text></g></g></g>
<text x="291.9672" y="950" class="lt-sld-id-side">MTR-1119</text>
<text x="292.08" y="964" class="lt-sld-rating-side">37 kW / COMP</text></g></svg>