<svg xmlns="http://www.w3.org/2000/svg" xmlns:xlink="http://www.w3.org/1999/xlink" class="lt-sld" role="img" aria-labelledby="lt-sld-title lt-sld-desc" width="1072" height="961" viewBox="0 0 1072 961"><title>GEN-0093 — PRINT SHOP / ELECTRICAL DISTRIBUTION</title>
<desc>Single-line diagram with 24 nodes and 23 connections</desc>
<style>.lt-sld { font-family: "Inter", "Helvetica Neue", sans-serif; }
.lt-sld-stroke { stroke: #222222; stroke-width: 1.4; fill: none; }
.lt-sld-stroke-thick { stroke: #222222; stroke-width: 1.8; fill: none; stroke-linecap: round; }
.lt-sld-fill { fill: #ffffff; stroke: #222222; stroke-width: 1.4; }
.lt-sld-fill-dark { fill: #222222; stroke: #222222; stroke-width: 1; }
.lt-sld-dot { fill: #222222; stroke: none; }
.lt-sld-wire-clearance { stroke: #ffffff; stroke-width: 5; fill: none; }
.lt-sld-control { stroke: #222222; stroke-width: 1.4; stroke-dasharray: 5 4; fill: none; }
.lt-sld-wire { stroke: #222222; stroke-width: 1.4; fill: none; }
.lt-sld-bus { stroke: #111111; stroke-width: 3; stroke-linecap: square; }
.lt-sld-title { font-size: 16px; font-weight: 700; fill: #111111; }
.lt-sld-id { font-size: 11px; font-weight: 700; fill: #111111; text-anchor: middle; }
.lt-sld-id-side { font-size: 11px; font-weight: 700; fill: #111111; text-anchor: start; }
.lt-sld-rating { font-size: 9px; fill: #555555; text-anchor: middle; }
.lt-sld-rating-side { font-size: 9px; fill: #555555; text-anchor: start; }
.lt-sld-voltage { font-size: 10px; font-weight: 700; fill: #555555; }
.lt-sld-nameplate { font-size: 9px; fill: #555555; }
.lt-sld-cable { font-size: 9px; fill: #555555; }
.lt-sld-symbol-text:not([font-size]) { font-size: 11px; }
.lt-sld-symbol-text { fill: #111111; dominant-baseline: middle; }
.lt-sld-wdg:not([font-size]) { font-size: 10px; }
.lt-sld-wdg { font-weight: 700; fill: #222222; dominant-baseline: middle; }
.lt-sld-bus-label { font-size: 11px; font-weight: 700; fill: #1d4e89; }
.lt-sld-standard-badge { font-size: 10px; font-weight: 700; fill: #555555; letter-spacing: 0.3px; }
.lt-sld-unknown-box { fill: none; stroke: #1d4e89; stroke-width: 1.6; stroke-dasharray: 5 3; }
.lt-sld-unknown-mark { font-size: 16px; font-weight: 700; fill: #1d4e89; dominant-baseline: middle; }
.lt-sld-unknown-type { font-size: 9px; font-family: monospace; fill: #555555; }</style>
<text x="20" y="22" class="lt-sld-title" data-sld-role="title">GEN-0093 — PRINT SHOP / ELECTRICAL DISTRIBUTION</text>
<g transform="translate(0, 12)"><path d="M 400.949875 74 L 400.949875 124" class="lt-sld-wire-clearance"/>
<path d="M 400.949875 74 L 400.949875 124" data-from="srcA1" data-to="txA1" class="lt-sld-wire"/>
<path d="M 400.949875 172 L 400.949875 234" class="lt-sld-wire-clearance"/>
<path d="M 400.949875 172 L 400.949875 234" data-from="txA1" data-to="mcbA1" class="lt-sld-wire"/>
<path d="M 400.949875 270 L 400.949875 328" class="lt-sld-wire-clearance"/>
<path d="M 400.949875 270 L 400.949875 328" data-from="mcbA1" data-to="mctA1" class="lt-sld-wire"/>
<path d="M 400.949875 360 L 400.949875 436" class="lt-sld-wire-clearance"/>
<path d="M 400.949875 360 L 400.949875 436" data-from="mctA1" data-to="busA" class="lt-sld-wire"/>
<path d="M 163.8612 436 L 163.8612 546" class="lt-sld-wire-clearance"/>
<path d="M 163.8612 436 L 163.8612 546" data-from="busA" data-to="f1cb" class="lt-sld-wire"/>
<text x="170.8612" y="513" class="lt-sld-cable">3#4/0 AWG</text>
<path d="M 163.8612 582 L 163.8612 640" class="lt-sld-wire-clearance"/>
<path d="M 163.8612 582 L 163.8612 640" data-from="f1cb" data-to="f1ct" class="lt-sld-wire"/>
<path d="M 163.8612 672 L 163.8612 684 L 227.26370000000003 684 L 227.26370000000003 728" class="lt-sld-wire-clearance"/>
<path d="M 163.8612 672 L 163.8612 684 L 227.26370000000003 684 L 227.26370000000003 728" data-from="f1ct" data-to="f1pnl" class="lt-sld-wire"/>
<path d="M 227.26370000000003 768 L 227.26370000000003 780 L 139.7437 780 L 139.7437 858" class="lt-sld-wire-clearance"/>
<path d="M 227.26370000000003 768 L 227.26370000000003 780 L 139.7437 780 L 139.7437 858" data-from="f1pnl" data-to="f1l1ld" class="lt-sld-wire"/>
<path d="M 227.26370000000003 768 L 227.26370000000003 780 L 314.7837 780 L 314.7837 858" class="lt-sld-wire-clearance"/>
<path d="M 227.26370000000003 768 L 227.26370000000003 780 L 314.7837 780 L 314.7837 858" data-from="f1pnl" data-to="f1l2ld" class="lt-sld-wire"/>
<path d="M 490.94090000000006 436 L 490.94090000000006 546" class="lt-sld-wire-clearance"/>
<path d="M 490.94090000000006 436 L 490.94090000000006 546" data-from="busA" data-to="f2cb" class="lt-sld-wire"/>
<text x="497.94090000000006" y="513" class="lt-sld-cable">3#4/0 AWG</text>
<path d="M 490.94090000000006 582 L 490.94090000000006 640" class="lt-sld-wire-clearance"/>
<path d="M 490.94090000000006 582 L 490.94090000000006 640" data-from="f2cb" data-to="f2ct" class="lt-sld-wire"/>
<path d="M 490.94090000000006 672 L 490.94090000000006 684 L 573.6087 684 L 573.6087 728" class="lt-sld-wire-clearance"/>
<path d="M 490.94090000000006 672 L 490.94090000000006 684 L 573.6087 684 L 573.6087 728" data-from="f2ct" data-to="f2pnl" class="lt-sld-wire"/>
<path d="M 573.6087 768 L 573.6087 780 L 489.82370000000003 780 L 489.82370000000003 858" class="lt-sld-wire-clearance"/>
<path d="M 573.6087 768 L 573.6087 780 L 489.82370000000003 780 L 489.82370000000003 858" data-from="f2pnl" data-to="f2l1ld" class="lt-sld-wire"/>
<path d="M 573.6087 768 L 573.6087 780 L 657.3937000000001 780 L 657.3937000000001 858" class="lt-sld-wire-clearance"/>
<path d="M 573.6087 768 L 573.6087 780 L 657.3937000000001 780 L 657.3937000000001 858" data-from="f2pnl" data-to="f2l2ld" class="lt-sld-wire"/>
<path d="M 826.0808999999999 436 L 826.0808999999999 546" class="lt-sld-wire-clearance"/>
<path d="M 826.0808999999999 436 L 826.0808999999999 546" data-from="busA" data-to="f3cb" class="lt-sld-wire"/>
<text x="833.0808999999999" y="513" class="lt-sld-cable">3#4 AWG</text>
<path d="M 826.0808999999999 582 L 826.0808999999999 640" class="lt-sld-wire-clearance"/>
<path d="M 826.0808999999999 582 L 826.0808999999999 640" data-from="f3cb" data-to="f3ct" class="lt-sld-wire"/>
<path d="M 826.0808999999999 672 L 826.0808999999999 684 L 897.5437 684 L 897.5437 728" class="lt-sld-wire-clearance"/>
<path d="M 826.0808999999999 672 L 826.0808999999999 684 L 897.5437 684 L 897.5437 728" data-from="f3ct" data-to="f3pnl" class="lt-sld-wire"/>
<path d="M 897.5437 768 L 897.5437 780 L 817.4937 780 L 817.4937 858" class="lt-sld-wire-clearance"/>
<path d="M 897.5437 768 L 897.5437 780 L 817.4937 780 L 817.4937 858" data-from="f3pnl" data-to="f3l1ld" class="lt-sld-wire"/>
<path d="M 897.5437 768 L 897.5437 780 L 977.5936999999999 780 L 977.5936999999999 858" class="lt-sld-wire-clearance"/>
<path d="M 897.5437 768 L 897.5437 780 L 977.5936999999999 780 L 977.5936999999999 858" data-from="f3pnl" data-to="f3l2ld" class="lt-sld-wire"/>
<path d="M 400.949875 360 L 400.949875 410 L 944.3158999999999 410 L 944.3158999999999 422" class="lt-sld-wire-clearance"/>
<path d="M 400.949875 360 L 400.949875 410 L 944.3158999999999 410 L 944.3158999999999 422" data-from="mctA1" data-to="mpmA1" class="lt-sld-wire" stroke-dasharray="6 4"/>
<path d="M 163.8612 672 L 163.8612 684 L 100.4587 684 L 100.4587 734" class="lt-sld-wire-clearance"/>
<path d="M 163.8612 672 L 163.8612 684 L 100.4587 684 L 100.4587 734" data-from="f1ct" data-to="f1pm" class="lt-sld-wire" stroke-dasharray="6 4"/>
<path d="M 490.94090000000006 672 L 490.94090000000006 684 L 408.27310000000006 684 L 408.27310000000006 734" class="lt-sld-wire-clearance"/>
<path d="M 490.94090000000006 672 L 490.94090000000006 684 L 408.27310000000006 684 L 408.27310000000006 734" data-from="f2ct" data-to="f2pm" class="lt-sld-wire" stroke-dasharray="6 4"/>
<path d="M 826.0808999999999 672 L 826.0808999999999 684 L 754.6181 684 L 754.6181 734" class="lt-sld-wire-clearance"/>
<path d="M 826.0808999999999 672 L 826.0808999999999 684 L 754.6181 684 L 754.6181 734" data-from="f3ct" data-to="f3pm" class="lt-sld-wire" stroke-dasharray="6 4"/>
<circle cx="400.949875" cy="410" r="2" class="lt-sld-dot"/>
<circle cx="163.8612" cy="684" r="2" class="lt-sld-dot"/>
<circle cx="227.26370000000003" cy="780" r="2" class="lt-sld-dot"/>
<circle cx="490.94090000000006" cy="684" r="2" class="lt-sld-dot"/>
<circle cx="573.6087" cy="780" r="2" class="lt-sld-dot"/>
<circle cx="826.0808999999999" cy="684" r="2" class="lt-sld-dot"/>
<circle cx="897.5437" cy="780" r="2" class="lt-sld-dot"/>
<line x1="115.86120000000001" y1="436" x2="874.0808999999999" y2="436" class="lt-sld-bus" data-id="busA"/>
<text x="36" y="433" class="lt-sld-id-side">BUS-425</text>
<text x="36" y="447" class="lt-sld-id-side">400Y/230V</text>
<g transform="translate(400.949875, 56)" data-type="utility" data-id="srcA1"><g class="lt-sld-ansi"><style>.lt-sld-ansi .lt-sld-stroke, .lt-sld-ansi .lt-sld-fill { stroke-width: 1.4; }
.lt-sld-ansi .lt-sld-stroke-thick { stroke-width: 1.8; }
.lt-sld-ansi .lt-sld-ansi-fine { stroke-width: 1.4; }
.lt-sld-ansi .lt-sld-ansi-core { stroke-width: 1.4; }
.lt-sld-ansi .lt-sld-ansi-grid { stroke-width: 1.4; }
.lt-sld-ansi .lt-sld-ansi-hook { stroke-width: 1.4; }
.lt-sld-ansi text { dominant-baseline: auto; }
.lt-sld-ansi text[font-weight="600"] { font-weight: 600; }</style>
<g><line x1="0" y1="-24" x2="0" y2="-17" class="lt-sld-stroke"/>
<line x1="0" y1="17" x2="0" y2="18" class="lt-sld-stroke"/>
<circle cx="0" cy="0" r="17" class="lt-sld-fill"/>
<path d="M -9 0 Q -4.5 -9 0 0 T 9 0" stroke-linecap="round" class="lt-sld-stroke lt-sld-ansi-fine"/></g></g></g>
<text x="432.949875" y="53" class="lt-sld-id-side">6.6kV SUPPLY A</text>
<text x="432.949875" y="67" class="lt-sld-rating-side">6.6kV</text>
<g transform="translate(400.949875, 148)" data-type="transformer_yd" data-id="txA1"><g class="lt-sld-ansi"><style>.lt-sld-ansi .lt-sld-stroke, .lt-sld-ansi .lt-sld-fill { stroke-width: 1.4; }
.lt-sld-ansi .lt-sld-stroke-thick { stroke-width: 1.8; }
.lt-sld-ansi .lt-sld-ansi-fine { stroke-width: 1.4; }
.lt-sld-ansi .lt-sld-ansi-core { stroke-width: 1.4; }
.lt-sld-ansi .lt-sld-ansi-grid { stroke-width: 1.4; }
.lt-sld-ansi .lt-sld-ansi-hook { stroke-width: 1.4; }
.lt-sld-ansi text { dominant-baseline: auto; }
.lt-sld-ansi text[font-weight="600"] { font-weight: 600; }</style>
<line x1="0" y1="-24" x2="0" y2="-8" class="lt-sld-stroke"/>
<line x1="0" y1="8" x2="0" y2="24" class="lt-sld-stroke"/>
<path d="M -9 -5 A 3 3 0 0 1 -3 -5 A 3 3 0 0 1 3 -5 A 3 3 0 0 1 9 -5" stroke-linecap="round" class="lt-sld-stroke"/>
<path d="M -9 5 A 3 3 0 0 0 -3 5 A 3 3 0 0 0 3 5 A 3 3 0 0 0 9 5" stroke-linecap="round" class="lt-sld-stroke"/>
<path d="M -11 -1.5 L 11 -1.5 M -11 1.5 L 11 1.5" class="lt-sld-stroke lt-sld-ansi-core"/>
<path d="M -19.5 -14.5 L -16.5 -11.5 L -13.5 -14.5 M -16.5 -11.5 L -16.5 -4" stroke-linecap="round" class="lt-sld-stroke lt-sld-ansi-fine"/>
<path d="M -20.5 -4 L -12.5 -4 M -19 -2 L -14 -2 M -17.5 0 L -15.5 0" stroke-linecap="round" class="lt-sld-stroke lt-sld-ansi-fine"/>
<path d="M -16.5 3 L -13.25 8.5 L -19.75 8.5 Z" stroke-linecap="round" stroke-linejoin="round" class="lt-sld-stroke lt-sld-ansi-fine"/></g></g>
<text x="436.949875" y="145" class="lt-sld-id-side">TX-1644</text>
<text x="436.949875" y="159" class="lt-sld-rating-side">1110 kVA</text>
<text x="436.949875" y="171" class="lt-sld-rating-side">6.6kV / 400Y/230V</text>
<g transform="translate(400.949875, 252)" data-type="breaker" data-id="mcbA1"><g class="lt-sld-ansi"><style>.lt-sld-ansi .lt-sld-stroke, .lt-sld-ansi .lt-sld-fill { stroke-width: 1.4; }
.lt-sld-ansi .lt-sld-stroke-thick { stroke-width: 1.8; }
.lt-sld-ansi .lt-sld-ansi-fine { stroke-width: 1.4; }
.lt-sld-ansi .lt-sld-ansi-core { stroke-width: 1.4; }
.lt-sld-ansi .lt-sld-ansi-grid { stroke-width: 1.4; }
.lt-sld-ansi .lt-sld-ansi-hook { stroke-width: 1.4; }
.lt-sld-ansi text { dominant-baseline: auto; }
.lt-sld-ansi text[font-weight="600"] { font-weight: 600; }</style>
<line x1="0" y1="-18" x2="0" y2="-14.25" class="lt-sld-stroke"/>
<line x1="0" y1="14.25" x2="0" y2="18" class="lt-sld-stroke"/>
<line x1="0" y1="14.25" x2="8.25" y2="-8.25" class="lt-sld-stroke-thick" data-sld-role="blade"/>
<circle cx="0" cy="14.25" r="2.1" class="lt-sld-dot"/>
<circle cx="0" cy="-14.25" r="2.1" class="lt-sld-dot"/>
<path d="M 8.25 -8.25 A 4.5 4.5 0 0 0 6 -13.125" stroke-linecap="round" class="lt-sld-stroke lt-sld-ansi-hook"/></g></g>
<text x="432.949875" y="249" class="lt-sld-id-side">CB-386</text>
<text x="432.949875" y="263" class="lt-sld-rating-side">ACB / 1600 A / 3P</text>
<g transform="translate(400.949875, 344)" data-type="ct" data-id="mctA1"><g class="lt-sld-ansi"><style>.lt-sld-ansi .lt-sld-stroke, .lt-sld-ansi .lt-sld-fill { stroke-width: 1.4; }
.lt-sld-ansi .lt-sld-stroke-thick { stroke-width: 1.8; }
.lt-sld-ansi .lt-sld-ansi-fine { stroke-width: 1.4; }
.lt-sld-ansi .lt-sld-ansi-core { stroke-width: 1.4; }
.lt-sld-ansi .lt-sld-ansi-grid { stroke-width: 1.4; }
.lt-sld-ansi .lt-sld-ansi-hook { stroke-width: 1.4; }
.lt-sld-ansi text { dominant-baseline: auto; }
.lt-sld-ansi text[font-weight="600"] { font-weight: 600; }</style>
<line x1="0" y1="-16" x2="0" y2="-4.05" class="lt-sld-stroke"/>
<line x1="0" y1="4.05" x2="0" y2="16" class="lt-sld-stroke"/>
<line stroke-linecap="square" class="lt-sld-stroke lt-sld-ansi-core" x1="-4.05" y1="0" x2="-9.45" y2="0"/>
<circle cx="0" cy="0" r="9" class="lt-sld-fill"/>
<text x="0" y="1.35" font-size="9" font-weight="700" text-anchor="middle" class="lt-sld-symbol-text lt-sld-wdg">CT</text></g></g>
<text x="424.949875" y="341" class="lt-sld-id-side">TA-757</text>
<text x="424.949875" y="355" class="lt-sld-rating-side">3 CTs / 1600/5 A</text>
<g transform="translate(944.3158999999999, 436)" data-type="watthour_meter" data-id="mpmA1"><g class="lt-sld-ansi"><style>.lt-sld-ansi .lt-sld-stroke, .lt-sld-ansi .lt-sld-fill { stroke-width: 1.4; }
.lt-sld-ansi .lt-sld-stroke-thick { stroke-width: 1.8; }
.lt-sld-ansi .lt-sld-ansi-fine { stroke-width: 1.4; }
.lt-sld-ansi .lt-sld-ansi-core { stroke-width: 1.4; }
.lt-sld-ansi .lt-sld-ansi-grid { stroke-width: 1.4; }
.lt-sld-ansi .lt-sld-ansi-hook { stroke-width: 1.4; }
.lt-sld-ansi text { dominant-baseline: auto; }
.lt-sld-ansi text[font-weight="600"] { font-weight: 600; }</style>
<g><line x1="0" y1="-14" x2="0" y2="-13" class="lt-sld-stroke"/>
<line x1="0" y1="13" x2="0" y2="14" class="lt-sld-stroke"/>
<circle cx="0" cy="0" r="13" class="lt-sld-fill"/>
<text x="0" y="4" font-size="9" font-weight="600" text-anchor="middle" class="lt-sld-symbol-text lt-sld-wdg">Wh</text></g></g></g>
<text x="918.0808999999999" y="466" class="lt-sld-id-side">PM-1096</text>
<text x="925.7759" y="480" class="lt-sld-rating-side">kW / kWh</text>
<g transform="translate(163.8612, 564)" data-type="breaker" data-id="f1cb"><g class="lt-sld-ansi"><style>.lt-sld-ansi .lt-sld-stroke, .lt-sld-ansi .lt-sld-fill { stroke-width: 1.4; }
.lt-sld-ansi .lt-sld-stroke-thick { stroke-width: 1.8; }
.lt-sld-ansi .lt-sld-ansi-fine { stroke-width: 1.4; }
.lt-sld-ansi .lt-sld-ansi-core { stroke-width: 1.4; }
.lt-sld-ansi .lt-sld-ansi-grid { stroke-width: 1.4; }
.lt-sld-ansi .lt-sld-ansi-hook { stroke-width: 1.4; }
.lt-sld-ansi text { dominant-baseline: auto; }
.lt-sld-ansi text[font-weight="600"] { font-weight: 600; }</style>
<line x1="0" y1="-18" x2="0" y2="-14.25" class="lt-sld-stroke"/>
<line x1="0" y1="14.25" x2="0" y2="18" class="lt-sld-stroke"/>
<line x1="0" y1="14.25" x2="8.25" y2="-8.25" class="lt-sld-stroke-thick" data-sld-role="blade"/>
<circle cx="0" cy="14.25" r="2.1" class="lt-sld-dot"/>
<circle cx="0" cy="-14.25" r="2.1" class="lt-sld-dot"/>
<path d="M 8.25 -8.25 A 4.5 4.5 0 0 0 6 -13.125" stroke-linecap="round" class="lt-sld-stroke lt-sld-ansi-hook"/></g></g>
<text x="195.8612" y="561" class="lt-sld-id-side">CB-350</text>
<text x="195.8612" y="575" class="lt-sld-rating-side">MCCB / 400 A / 3P</text>
<g transform="translate(163.8612, 656)" data-type="ct" data-id="f1ct"><g class="lt-sld-ansi"><style>.lt-sld-ansi .lt-sld-stroke, .lt-sld-ansi .lt-sld-fill { stroke-width: 1.4; }
.lt-sld-ansi .lt-sld-stroke-thick { stroke-width: 1.8; }
.lt-sld-ansi .lt-sld-ansi-fine { stroke-width: 1.4; }
.lt-sld-ansi .lt-sld-ansi-core { stroke-width: 1.4; }
.lt-sld-ansi .lt-sld-ansi-grid { stroke-width: 1.4; }
.lt-sld-ansi .lt-sld-ansi-hook { stroke-width: 1.4; }
.lt-sld-ansi text { dominant-baseline: auto; }
.lt-sld-ansi text[font-weight="600"] { font-weight: 600; }</style>
<line x1="0" y1="-16" x2="0" y2="-4.05" class="lt-sld-stroke"/>
<line x1="0" y1="4.05" x2="0" y2="16" class="lt-sld-stroke"/>
<line stroke-linecap="square" class="lt-sld-stroke lt-sld-ansi-core" x1="-4.05" y1="0" x2="-9.45" y2="0"/>
<circle cx="0" cy="0" r="9" class="lt-sld-fill"/>
<text x="0" y="1.35" font-size="9" font-weight="700" text-anchor="middle" class="lt-sld-symbol-text lt-sld-wdg">CT</text></g></g>
<text x="187.8612" y="653" class="lt-sld-id-side">TA-759</text>
<text x="187.8612" y="667" class="lt-sld-rating-side">3 CTs / 400/5 A</text>
<g transform="translate(100.4587, 748)" data-type="watthour_meter" data-id="f1pm"><g class="lt-sld-ansi"><style>.lt-sld-ansi .lt-sld-stroke, .lt-sld-ansi .lt-sld-fill { stroke-width: 1.4; }
.lt-sld-ansi .lt-sld-stroke-thick { stroke-width: 1.8; }
.lt-sld-ansi .lt-sld-ansi-fine { stroke-width: 1.4; }
.lt-sld-ansi .lt-sld-ansi-core { stroke-width: 1.4; }
.lt-sld-ansi .lt-sld-ansi-grid { stroke-width: 1.4; }
.lt-sld-ansi .lt-sld-ansi-hook { stroke-width: 1.4; }
.lt-sld-ansi text { dominant-baseline: auto; }
.lt-sld-ansi text[font-weight="600"] { font-weight: 600; }</style>
<g><line x1="0" y1="-14" x2="0" y2="-13" class="lt-sld-stroke"/>
<line x1="0" y1="13" x2="0" y2="14" class="lt-sld-stroke"/>
<circle cx="0" cy="0" r="13" class="lt-sld-fill"/>
<text x="0" y="4" font-size="9" font-weight="600" text-anchor="middle" class="lt-sld-symbol-text lt-sld-wdg">Wh</text></g></g></g>
<text x="74.2237" y="778" class="lt-sld-id-side">PM-1084</text>
<text x="81.91869999999999" y="792" class="lt-sld-rating-side">kW / kWh</text>
<g transform="translate(227.26370000000003, 748)" data-type="hub" data-id="f1pnl"><g class="lt-sld-ansi"><style>.lt-sld-ansi .lt-sld-stroke, .lt-sld-ansi .lt-sld-fill { stroke-width: 1.4; }
.lt-sld-ansi .lt-sld-stroke-thick { stroke-width: 1.8; }
.lt-sld-ansi .lt-sld-ansi-fine { stroke-width: 1.4; }
.lt-sld-ansi .lt-sld-ansi-core { stroke-width: 1.4; }
.lt-sld-ansi .lt-sld-ansi-grid { stroke-width: 1.4; }
.lt-sld-ansi .lt-sld-ansi-hook { stroke-width: 1.4; }
.lt-sld-ansi text { dominant-baseline: auto; }
.lt-sld-ansi text[font-weight="600"] { font-weight: 600; }</style>
<g><line x1="0" y1="-20" x2="0" y2="-16" class="lt-sld-stroke"/>
<line x1="0" y1="16" x2="0" y2="20" class="lt-sld-stroke"/>
<rect x="-30" y="-16" width="60" height="32" class="lt-sld-fill"/>
<text x="0" y="4" font-size="11" lengthAdjust="spacingAndGlyphs" font-weight="700" text-anchor="middle" class="lt-sld-symbol-text lt-sld-wdg">FD-999</text></g></g></g>
<text x="293.26370000000003" y="745" class="lt-sld-rating-side">3P+N</text>
<g transform="translate(139.7437, 870)" data-type="load" data-id="f1l1ld"><g class="lt-sld-ansi"><style>.lt-sld-ansi .lt-sld-stroke, .lt-sld-ansi .lt-sld-fill { stroke-width: 1.4; }
.lt-sld-ansi .lt-sld-stroke-thick { stroke-width: 1.8; }
.lt-sld-ansi .lt-sld-ansi-fine { stroke-width: 1.4; }
.lt-sld-ansi .lt-sld-ansi-core { stroke-width: 1.4; }
.lt-sld-ansi .lt-sld-ansi-grid { stroke-width: 1.4; }
.lt-sld-ansi .lt-sld-ansi-hook { stroke-width: 1.4; }
.lt-sld-ansi text { dominant-baseline: auto; }
.lt-sld-ansi text[font-weight="600"] { font-weight: 600; }</style>
<line x1="0" y1="-12" x2="0" y2="-10.4" class="lt-sld-stroke"/>
<line x1="0" y1="10.4" x2="0" y2="12" class="lt-sld-stroke"/>
<path d="M -11.2 -10.4 L 11.2 -10.4 L 0 10.4 Z" stroke-linejoin="miter" class="lt-sld-fill"/></g></g>
<text x="109.6609" y="898" class="lt-sld-id-side">PNL-1461</text>
<text x="74.2237" y="912" class="lt-sld-rating-side">PRESS FLOOR PANEL / 22 kW</text>
<g transform="translate(314.7837, 870)" data-type="load" data-id="f1l2ld"><g class="lt-sld-ansi"><style>.lt-sld-ansi .lt-sld-stroke, .lt-sld-ansi .lt-sld-fill { stroke-width: 1.4; }
.lt-sld-ansi .lt-sld-stroke-thick { stroke-width: 1.8; }
.lt-sld-ansi .lt-sld-ansi-fine { stroke-width: 1.4; }
.lt-sld-ansi .lt-sld-ansi-core { stroke-width: 1.4; }
.lt-sld-ansi .lt-sld-ansi-grid { stroke-width: 1.4; }
.lt-sld-ansi .lt-sld-ansi-hook { stroke-width: 1.4; }
.lt-sld-ansi text { dominant-baseline: auto; }
.lt-sld-ansi text[font-weight="600"] { font-weight: 600; }</style>
<line x1="0" y1="-12" x2="0" y2="-10.4" class="lt-sld-stroke"/>
<line x1="0" y1="10.4" x2="0" y2="12" class="lt-sld-stroke"/>
<path d="M -11.2 -10.4 L 11.2 -10.4 L 0 10.4 Z" stroke-linejoin="miter" class="lt-sld-fill"/></g></g>
<text x="284.70090000000005" y="898" class="lt-sld-id-side">PNL-1474</text>
<text x="249.26370000000003" y="912" class="lt-sld-rating-side">PRESS FLOOR PANEL / 16 kW</text>
<g transform="translate(490.94090000000006, 564)" data-type="breaker" data-id="f2cb"><g class="lt-sld-ansi"><style>.lt-sld-ansi .lt-sld-stroke, .lt-sld-ansi .lt-sld-fill { stroke-width: 1.4; }
.lt-sld-ansi .lt-sld-stroke-thick { stroke-width: 1.8; }
.lt-sld-ansi .lt-sld-ansi-fine { stroke-width: 1.4; }
.lt-sld-ansi .lt-sld-ansi-core { stroke-width: 1.4; }
.lt-sld-ansi .lt-sld-ansi-grid { stroke-width: 1.4; }
.lt-sld-ansi .lt-sld-ansi-hook { stroke-width: 1.4; }
.lt-sld-ansi text { dominant-baseline: auto; }
.lt-sld-ansi text[font-weight="600"] { font-weight: 600; }</style>
<line x1="0" y1="-18" x2="0" y2="-14.25" class="lt-sld-stroke"/>
<line x1="0" y1="14.25" x2="0" y2="18" class="lt-sld-stroke"/>
<line x1="0" y1="14.25" x2="8.25" y2="-8.25" class="lt-sld-stroke-thick" data-sld-role="blade"/>
<circle cx="0" cy="14.25" r="2.1" class="lt-sld-dot"/>
<circle cx="0" cy="-14.25" r="2.1" class="lt-sld-dot"/>
<path d="M 8.25 -8.25 A 4.5 4.5 0 0 0 6 -13.125" stroke-linecap="round" class="lt-sld-stroke lt-sld-ansi-hook"/></g></g>
<text x="522.9409" y="561" class="lt-sld-id-side">CB-302</text>
<text x="522.9409" y="575" class="lt-sld-rating-side">MCCB / 400 A / 3P</text>
<g transform="translate(490.94090000000006, 656)" data-type="ct" data-id="f2ct"><g class="lt-sld-ansi"><style>.lt-sld-ansi .lt-sld-stroke, .lt-sld-ansi .lt-sld-fill { stroke-width: 1.4; }
.lt-sld-ansi .lt-sld-stroke-thick { stroke-width: 1.8; }
.lt-sld-ansi .lt-sld-ansi-fine { stroke-width: 1.4; }
.lt-sld-ansi .lt-sld-ansi-core { stroke-width: 1.4; }
.lt-sld-ansi .lt-sld-ansi-grid { stroke-width: 1.4; }
.lt-sld-ansi .lt-sld-ansi-hook { stroke-width: 1.4; }
.lt-sld-ansi text { dominant-baseline: auto; }
.lt-sld-ansi text[font-weight="600"] { font-weight: 600; }</style>
<line x1="0" y1="-16" x2="0" y2="-4.05" class="lt-sld-stroke"/>
<line x1="0" y1="4.05" x2="0" y2="16" class="lt-sld-stroke"/>
<line stroke-linecap="square" class="lt-sld-stroke lt-sld-ansi-core" x1="-4.05" y1="0" x2="-9.45" y2="0"/>
<circle cx="0" cy="0" r="9" class="lt-sld-fill"/>
<text x="0" y="1.35" font-size="9" font-weight="700" text-anchor="middle" class="lt-sld-symbol-text lt-sld-wdg">CT</text></g></g>
<text x="514.9409" y="653" class="lt-sld-id-side">TA-712</text>
<text x="514.9409" y="667" class="lt-sld-rating-side">3 CTs / 400/5 A</text>
<g transform="translate(408.27310000000006, 748)" data-type="watthour_meter" data-id="f2pm"><g class="lt-sld-ansi"><style>.lt-sld-ansi .lt-sld-stroke, .lt-sld-ansi .lt-sld-fill { stroke-width: 1.4; }
.lt-sld-ansi .lt-sld-stroke-thick { stroke-width: 1.8; }
.lt-sld-ansi .lt-sld-ansi-fine { stroke-width: 1.4; }
.lt-sld-ansi .lt-sld-ansi-core { stroke-width: 1.4; }
.lt-sld-ansi .lt-sld-ansi-grid { stroke-width: 1.4; }
.lt-sld-ansi .lt-sld-ansi-hook { stroke-width: 1.4; }
.lt-sld-ansi text { dominant-baseline: auto; }
.lt-sld-ansi text[font-weight="600"] { font-weight: 600; }</style>
<g><line x1="0" y1="-14" x2="0" y2="-13" class="lt-sld-stroke"/>
<line x1="0" y1="13" x2="0" y2="14" class="lt-sld-stroke"/>
<circle cx="0" cy="0" r="13" class="lt-sld-fill"/>
<text x="0" y="4" font-size="9" font-weight="600" text-anchor="middle" class="lt-sld-symbol-text lt-sld-wdg">Wh</text></g></g></g>
<text x="382.03810000000004" y="778" class="lt-sld-id-side">PM-1003</text>
<text x="389.73310000000004" y="792" class="lt-sld-rating-side">kW / kWh</text>
<g transform="translate(573.6087, 748)" data-type="hub" data-id="f2pnl"><g class="lt-sld-ansi"><style>.lt-sld-ansi .lt-sld-stroke, .lt-sld-ansi .lt-sld-fill { stroke-width: 1.4; }
.lt-sld-ansi .lt-sld-stroke-thick { stroke-width: 1.8; }
.lt-sld-ansi .lt-sld-ansi-fine { stroke-width: 1.4; }
.lt-sld-ansi .lt-sld-ansi-core { stroke-width: 1.4; }
.lt-sld-ansi .lt-sld-ansi-grid { stroke-width: 1.4; }
.lt-sld-ansi .lt-sld-ansi-hook { stroke-width: 1.4; }
.lt-sld-ansi text { dominant-baseline: auto; }
.lt-sld-ansi text[font-weight="600"] { font-weight: 600; }</style>
<g><line x1="0" y1="-20" x2="0" y2="-16" class="lt-sld-stroke"/>
<line x1="0" y1="16" x2="0" y2="20" class="lt-sld-stroke"/>
<rect x="-30" y="-16" width="60" height="32" class="lt-sld-fill"/>
<text x="0" y="4" font-size="11" lengthAdjust="spacingAndGlyphs" font-weight="700" text-anchor="middle" class="lt-sld-symbol-text lt-sld-wdg">FD-953</text></g></g></g>
<text x="639.6087" y="745" class="lt-sld-rating-side">3P+N</text>
<g transform="translate(489.82370000000003, 870)" data-type="load" data-id="f2l1ld"><g class="lt-sld-ansi"><style>.lt-sld-ansi .lt-sld-stroke, .lt-sld-ansi .lt-sld-fill { stroke-width: 1.4; }
.lt-sld-ansi .lt-sld-stroke-thick { stroke-width: 1.8; }
.lt-sld-ansi .lt-sld-ansi-fine { stroke-width: 1.4; }
.lt-sld-ansi .lt-sld-ansi-core { stroke-width: 1.4; }
.lt-sld-ansi .lt-sld-ansi-grid { stroke-width: 1.4; }
.lt-sld-ansi .lt-sld-ansi-hook { stroke-width: 1.4; }
.lt-sld-ansi text { dominant-baseline: auto; }
.lt-sld-ansi text[font-weight="600"] { font-weight: 600; }</style>
<line x1="0" y1="-12" x2="0" y2="-10.4" class="lt-sld-stroke"/>
<line x1="0" y1="10.4" x2="0" y2="12" class="lt-sld-stroke"/>
<path d="M -11.2 -10.4 L 11.2 -10.4 L 0 10.4 Z" stroke-linejoin="miter" class="lt-sld-fill"/></g></g>
<text x="459.7409" y="898" class="lt-sld-id-side">PNL-1483</text>
<text x="424.30370000000005" y="912" class="lt-sld-rating-side">PRESS FLOOR PANEL / 24 kW</text>
<g transform="translate(657.3937000000001, 870)" data-type="load" data-id="f2l2ld"><g class="lt-sld-ansi"><style>.lt-sld-ansi .lt-sld-stroke, .lt-sld-ansi .lt-sld-fill { stroke-width: 1.4; }
.lt-sld-ansi .lt-sld-stroke-thick { stroke-width: 1.8; }
.lt-sld-ansi .lt-sld-ansi-fine { stroke-width: 1.4; }
.lt-sld-ansi .lt-sld-ansi-core { stroke-width: 1.4; }
.lt-sld-ansi .lt-sld-ansi-grid { stroke-width: 1.4; }
.lt-sld-ansi .lt-sld-ansi-hook { stroke-width: 1.4; }
.lt-sld-ansi text { dominant-baseline: auto; }
.lt-sld-ansi text[font-weight="600"] { font-weight: 600; }</style>
<line x1="0" y1="-12" x2="0" y2="-10.4" class="lt-sld-stroke"/>
<line x1="0" y1="10.4" x2="0" y2="12" class="lt-sld-stroke"/>
<path d="M -11.2 -10.4 L 11.2 -10.4 L 0 10.4 Z" stroke-linejoin="miter" class="lt-sld-fill"/></g></g>
<text x="627.3109000000001" y="898" class="lt-sld-id-side">PNL-1488</text>
<text x="599.3437000000001" y="912" class="lt-sld-rating-side">AUXILIARY PANEL / 30 kW</text>
<g transform="translate(826.0808999999999, 564)" data-type="breaker" data-id="f3cb"><g class="lt-sld-ansi"><style>.lt-sld-ansi .lt-sld-stroke, .lt-sld-ansi .lt-sld-fill { stroke-width: 1.4; }
.lt-sld-ansi .lt-sld-stroke-thick { stroke-width: 1.8; }
.lt-sld-ansi .lt-sld-ansi-fine { stroke-width: 1.4; }
.lt-sld-ansi .lt-sld-ansi-core { stroke-width: 1.4; }
.lt-sld-ansi .lt-sld-ansi-grid { stroke-width: 1.4; }
.lt-sld-ansi .lt-sld-ansi-hook { stroke-width: 1.4; }
.lt-sld-ansi text { dominant-baseline: auto; }
.lt-sld-ansi text[font-weight="600"] { font-weight: 600; }</style>
<line x1="0" y1="-18" x2="0" y2="-14.25" class="lt-sld-stroke"/>
<line x1="0" y1="14.25" x2="0" y2="18" class="lt-sld-stroke"/>
<line x1="0" y1="14.25" x2="8.25" y2="-8.25" class="lt-sld-stroke-thick" data-sld-role="blade"/>
<circle cx="0" cy="14.25" r="2.1" class="lt-sld-dot"/>
<circle cx="0" cy="-14.25" r="2.1" class="lt-sld-dot"/>
<path d="M 8.25 -8.25 A 4.5 4.5 0 0 0 6 -13.125" stroke-linecap="round" class="lt-sld-stroke lt-sld-ansi-hook"/></g></g>
<text x="858.0808999999999" y="561" class="lt-sld-id-side">CB-335</text>
<text x="858.0808999999999" y="575" class="lt-sld-rating-side">MCCB / 100 A / 3P</text>
<g transform="translate(826.0808999999999, 656)" data-type="ct" data-id="f3ct"><g class="lt-sld-ansi"><style>.lt-sld-ansi .lt-sld-stroke, .lt-sld-ansi .lt-sld-fill { stroke-width: 1.4; }
.lt-sld-ansi .lt-sld-stroke-thick { stroke-width: 1.8; }
.lt-sld-ansi .lt-sld-ansi-fine { stroke-width: 1.4; }
.lt-sld-ansi .lt-sld-ansi-core { stroke-width: 1.4; }
.lt-sld-ansi .lt-sld-ansi-grid { stroke-width: 1.4; }
.lt-sld-ansi .lt-sld-ansi-hook { stroke-width: 1.4; }
.lt-sld-ansi text { dominant-baseline: auto; }
.lt-sld-ansi text[font-weight="600"] { font-weight: 600; }</style>
<line x1="0" y1="-16" x2="0" y2="-4.05" class="lt-sld-stroke"/>
<line x1="0" y1="4.05" x2="0" y2="16" class="lt-sld-stroke"/>
<line stroke-linecap="square" class="lt-sld-stroke lt-sld-ansi-core" x1="-4.05" y1="0" x2="-9.45" y2="0"/>
<circle cx="0" cy="0" r="9" class="lt-sld-fill"/>
<text x="0" y="1.35" font-size="9" font-weight="700" text-anchor="middle" class="lt-sld-symbol-text lt-sld-wdg">CT</text></g></g>
<text x="850.0808999999999" y="653" class="lt-sld-id-side">TA-776</text>
<text x="850.0808999999999" y="667" class="lt-sld-rating-side">3 CTs / 100/5 A</text>
<g transform="translate(754.6181, 748)" data-type="watthour_meter" data-id="f3pm"><g class="lt-sld-ansi"><style>.lt-sld-ansi .lt-sld-stroke, .lt-sld-ansi .lt-sld-fill { stroke-width: 1.4; }
.lt-sld-ansi .lt-sld-stroke-thick { stroke-width: 1.8; }
.lt-sld-ansi .lt-sld-ansi-fine { stroke-width: 1.4; }
.lt-sld-ansi .lt-sld-ansi-core { stroke-width: 1.4; }
.lt-sld-ansi .lt-sld-ansi-grid { stroke-width: 1.4; }
.lt-sld-ansi .lt-sld-ansi-hook { stroke-width: 1.4; }
.lt-sld-ansi text { dominant-baseline: auto; }
.lt-sld-ansi text[font-weight="600"] { font-weight: 600; }</style>
<g><line x1="0" y1="-14" x2="0" y2="-13" class="lt-sld-stroke"/>
<line x1="0" y1="13" x2="0" y2="14" class="lt-sld-stroke"/>
<circle cx="0" cy="0" r="13" class="lt-sld-fill"/>
<text x="0" y="4" font-size="9" font-weight="600" text-anchor="middle" class="lt-sld-symbol-text lt-sld-wdg">Wh</text></g></g></g>
<text x="728.3831" y="778" class="lt-sld-id-side">PM-1041</text>
<text x="736.0781000000001" y="792" class="lt-sld-rating-side">kW / kWh</text>
<g transform="translate(897.5437, 748)" data-type="hub" data-id="f3pnl"><g class="lt-sld-ansi"><style>.lt-sld-ansi .lt-sld-stroke, .lt-sld-ansi .lt-sld-fill { stroke-width: 1.4; }
.lt-sld-ansi .lt-sld-stroke-thick { stroke-width: 1.8; }
.lt-sld-ansi .lt-sld-ansi-fine { stroke-width: 1.4; }
.lt-sld-ansi .lt-sld-ansi-core { stroke-width: 1.4; }
.lt-sld-ansi .lt-sld-ansi-grid { stroke-width: 1.4; }
.lt-sld-ansi .lt-sld-ansi-hook { stroke-width: 1.4; }
.lt-sld-ansi text { dominant-baseline: auto; }
.lt-sld-ansi text[font-weight="600"] { font-weight: 600; }</style>
<g><line x1="0" y1="-20" x2="0" y2="-16" class="lt-sld-stroke"/>
<line x1="0" y1="16" x2="0" y2="20" class="lt-sld-stroke"/>
<rect x="-30" y="-16" width="60" height="32" class="lt-sld-fill"/>
<text x="0" y="4" font-size="11" lengthAdjust="spacingAndGlyphs" font-weight="700" text-anchor="middle" class="lt-sld-symbol-text lt-sld-wdg">FD-986</text></g></g></g>
<text x="963.5437" y="745" class="lt-sld-rating-side">3P+N</text>
<g transform="translate(817.4937, 870)" data-type="load" data-id="f3l1ld"><g class="lt-sld-ansi"><style>.lt-sld-ansi .lt-sld-stroke, .lt-sld-ansi .lt-sld-fill { stroke-width: 1.4; }
.lt-sld-ansi .lt-sld-stroke-thick { stroke-width: 1.8; }
.lt-sld-ansi .lt-sld-ansi-fine { stroke-width: 1.4; }
.lt-sld-ansi .lt-sld-ansi-core { stroke-width: 1.4; }
.lt-sld-ansi .lt-sld-ansi-grid { stroke-width: 1.4; }
.lt-sld-ansi .lt-sld-ansi-hook { stroke-width: 1.4; }
.lt-sld-ansi text { dominant-baseline: auto; }
.lt-sld-ansi text[font-weight="600"] { font-weight: 600; }</style>
<line x1="0" y1="-12" x2="0" y2="-10.4" class="lt-sld-stroke"/>
<line x1="0" y1="10.4" x2="0" y2="12" class="lt-sld-stroke"/>
<path d="M -11.2 -10.4 L 11.2 -10.4 L 0 10.4 Z" stroke-linejoin="miter" class="lt-sld-fill"/></g></g>
<text x="787.4109" y="898" class="lt-sld-id-side">PNL-1430</text>
<text x="759.4437" y="912" class="lt-sld-rating-side">AUXILIARY PANEL / 30 kW</text>
<g transform="translate(977.5936999999999, 870)" data-type="load" data-id="f3l2ld"><g class="lt-sld-ansi"><style>.lt-sld-ansi .lt-sld-stroke, .lt-sld-ansi .lt-sld-fill { stroke-width: 1.4; }
.lt-sld-ansi .lt-sld-stroke-thick { stroke-width: 1.8; }
.lt-sld-ansi .lt-sld-ansi-fine { stroke-width: 1.4; }
.lt-sld-ansi .lt-sld-ansi-core { stroke-width: 1.4; }
.lt-sld-ansi .lt-sld-ansi-grid { stroke-width: 1.4; }
.lt-sld-ansi .lt-sld-ansi-hook { stroke-width: 1.4; }
.lt-sld-ansi text { dominant-baseline: auto; }
.lt-sld-ansi text[font-weight="600"] { font-weight: 600; }</style>
<line x1="0" y1="-12" x2="0" y2="-10.4" class="lt-sld-stroke"/>
<line x1="0" y1="10.4" x2="0" y2="12" class="lt-sld-stroke"/>
<path d="M -11.2 -10.4 L 11.2 -10.4 L 0 10.4 Z" stroke-linejoin="miter" class="lt-sld-fill"/></g></g>
<text x="947.5108999999999" y="898" class="lt-sld-id-side">PNL-1497</text>
<text x="919.5437" y="912" class="lt-sld-rating-side">AUXILIARY PANEL / 34 kW</text></g></svg>