<svg xmlns="http://www.w3.org/2000/svg" xmlns:xlink="http://www.w3.org/1999/xlink" class="lt-sld" role="img" aria-labelledby="lt-sld-title lt-sld-desc" width="807" height="1183" viewBox="0 0 807 1183"><title>GEN-0366 — GREENHOUSE COMPLEX / ELECTRICAL DISTRIBUTION</title>
<desc>Single-line diagram with 22 nodes and 21 connections</desc>
<style>.lt-sld { font-family: "Inter", "Helvetica Neue", sans-serif; }
.lt-sld-stroke { stroke: #222222; stroke-width: 1.4; fill: none; }
.lt-sld-stroke-thick { stroke: #222222; stroke-width: 1.8; fill: none; stroke-linecap: round; }
.lt-sld-fill { fill: #ffffff; stroke: #222222; stroke-width: 1.4; }
.lt-sld-fill-dark { fill: #222222; stroke: #222222; stroke-width: 1; }
.lt-sld-dot { fill: #222222; stroke: none; }
.lt-sld-wire-clearance { stroke: #ffffff; stroke-width: 5; fill: none; }
.lt-sld-control { stroke: #222222; stroke-width: 1.4; stroke-dasharray: 5 4; fill: none; }
.lt-sld-wire { stroke: #222222; stroke-width: 1.4; fill: none; }
.lt-sld-bus { stroke: #111111; stroke-width: 3; stroke-linecap: square; }
.lt-sld-title { font-size: 16px; font-weight: 700; fill: #111111; }
.lt-sld-id { font-size: 11px; font-weight: 700; fill: #111111; text-anchor: middle; }
.lt-sld-id-side { font-size: 11px; font-weight: 700; fill: #111111; text-anchor: start; }
.lt-sld-rating { font-size: 9px; fill: #555555; text-anchor: middle; }
.lt-sld-rating-side { font-size: 9px; fill: #555555; text-anchor: start; }
.lt-sld-voltage { font-size: 10px; font-weight: 700; fill: #555555; }
.lt-sld-nameplate { font-size: 9px; fill: #555555; }
.lt-sld-cable { font-size: 9px; fill: #555555; }
.lt-sld-symbol-text:not([font-size]) { font-size: 11px; }
.lt-sld-symbol-text { fill: #111111; dominant-baseline: middle; }
.lt-sld-wdg:not([font-size]) { font-size: 10px; }
.lt-sld-wdg { font-weight: 700; fill: #222222; dominant-baseline: middle; }
.lt-sld-bus-label { font-size: 11px; font-weight: 700; fill: #1d4e89; }
.lt-sld-standard-badge { font-size: 10px; font-weight: 700; fill: #555555; letter-spacing: 0.3px; }
.lt-sld-unknown-box { fill: none; stroke: #1d4e89; stroke-width: 1.6; stroke-dasharray: 5 3; }
.lt-sld-unknown-mark { font-size: 16px; font-weight: 700; fill: #1d4e89; dominant-baseline: middle; }
.lt-sld-unknown-type { font-size: 9px; font-family: monospace; fill: #555555; }</style>
<text x="20" y="22" class="lt-sld-title" data-sld-role="title">GEN-0366 — GREENHOUSE COMPLEX / ELECTRICAL DISTRIBUTION</text>
<g transform="translate(0, 12)"><path d="M 356.0575 74 L 356.0575 124" class="lt-sld-wire-clearance"/>
<path d="M 356.0575 74 L 356.0575 124" data-from="srcA1" data-to="txA1" class="lt-sld-wire"/>
<path d="M 356.0575 172 L 356.0575 234" class="lt-sld-wire-clearance"/>
<path d="M 356.0575 172 L 356.0575 234" data-from="txA1" data-to="mcbA1" class="lt-sld-wire"/>
<path d="M 356.0575 270 L 356.0575 328" class="lt-sld-wire-clearance"/>
<path d="M 356.0575 270 L 356.0575 328" data-from="mcbA1" data-to="mctA1" class="lt-sld-wire"/>
<path d="M 356.0575 360 L 356.0575 436" class="lt-sld-wire-clearance"/>
<path d="M 356.0575 360 L 356.0575 436" data-from="mctA1" data-to="busA" class="lt-sld-wire"/>
<path d="M 276.7154999999999 436 L 276.7154999999999 546" class="lt-sld-wire-clearance"/>
<path d="M 276.7154999999999 436 L 276.7154999999999 546" data-from="busA" data-to="f1cb" class="lt-sld-wire"/>
<text x="283.7154999999999" y="513" class="lt-sld-cable">3#4 AWG</text>
<path d="M 276.7154999999999 582 L 276.7154999999999 640" class="lt-sld-wire-clearance"/>
<path d="M 276.7154999999999 582 L 276.7154999999999 640" data-from="f1cb" data-to="f1ct" class="lt-sld-wire"/>
<path d="M 276.7154999999999 672 L 276.7154999999999 684 L 375.97759999999994 684 L 375.97759999999994 728" class="lt-sld-wire-clearance"/>
<path d="M 276.7154999999999 672 L 276.7154999999999 684 L 375.97759999999994 684 L 375.97759999999994 728" data-from="f1ct" data-to="f1pnl" class="lt-sld-wire"/>
<path d="M 375.97759999999994 768 L 375.97759999999994 840 L 181.30119999999994 840 L 181.30119999999994 852" class="lt-sld-wire-clearance"/>
<path d="M 375.97759999999994 768 L 375.97759999999994 840 L 181.30119999999994 840 L 181.30119999999994 852" data-from="f1pnl" data-to="f1l1cb" class="lt-sld-wire"/>
<path d="M 181.30119999999994 888 L 181.30119999999994 972" class="lt-sld-wire-clearance"/>
<path d="M 181.30119999999994 888 L 181.30119999999994 972" data-from="f1l1cb" data-to="f1l1drv" class="lt-sld-wire"/>
<path d="M 181.30119999999994 1008 L 181.30119999999994 1066" class="lt-sld-wire-clearance"/>
<path d="M 181.30119999999994 1008 L 181.30119999999994 1066" data-from="f1l1drv" data-to="f1l1m" class="lt-sld-wire"/>
<path d="M 375.97759999999994 768 L 375.97759999999994 846 L 570.654 846 L 570.654 858" class="lt-sld-wire-clearance"/>
<path d="M 375.97759999999994 768 L 375.97759999999994 846 L 570.654 846 L 570.654 858" data-from="f1pnl" data-to="f1l2ld" class="lt-sld-wire"/>
<path d="M 618.1044999999999 436 L 618.1044999999999 546" class="lt-sld-wire-clearance"/>
<path d="M 618.1044999999999 436 L 618.1044999999999 546" data-from="busA" data-to="f2cb" class="lt-sld-wire"/>
<text x="625.1044999999999" y="513" class="lt-sld-cable">3#1/0 AWG</text>
<path d="M 618.1044999999999 582 L 618.1044999999999 640" class="lt-sld-wire-clearance"/>
<path d="M 618.1044999999999 582 L 618.1044999999999 640" data-from="f2cb" data-to="f2ct" class="lt-sld-wire"/>
<path d="M 618.1044999999999 672 L 618.1044999999999 684 L 679.222 684 L 679.222 728" class="lt-sld-wire-clearance"/>
<path d="M 618.1044999999999 672 L 618.1044999999999 684 L 679.222 684 L 679.222 728" data-from="f2ct" data-to="f2pnl" class="lt-sld-wire"/>
<path d="M 679.222 768 L 679.222 832 L 364.96399999999994 832 L 364.96399999999994 852" class="lt-sld-wire-clearance"/>
<path d="M 679.222 768 L 679.222 832 L 364.96399999999994 832 L 364.96399999999994 852" data-from="f2pnl" data-to="f2l1cb" class="lt-sld-wire"/>
<path d="M 364.96399999999994 888 L 364.96399999999994 972" class="lt-sld-wire-clearance"/>
<path d="M 364.96399999999994 888 L 364.96399999999994 972" data-from="f2l1cb" data-to="f2l1drv" class="lt-sld-wire"/>
<path d="M 364.96399999999994 1008 L 364.96399999999994 1066" class="lt-sld-wire-clearance"/>
<path d="M 364.96399999999994 1008 L 364.96399999999994 1066" data-from="f2l1drv" data-to="f2l1m" class="lt-sld-wire"/>
<path d="M 679.222 768 L 679.222 846 L 718.874 846 L 718.874 858" class="lt-sld-wire-clearance"/>
<path d="M 679.222 768 L 679.222 846 L 718.874 846 L 718.874 858" data-from="f2pnl" data-to="f2l2ld" class="lt-sld-wire"/>
<path d="M 356.0575 360 L 356.0575 410 L 736.3394999999999 410 L 736.3394999999999 422" class="lt-sld-wire-clearance"/>
<path d="M 356.0575 360 L 356.0575 410 L 736.3394999999999 410 L 736.3394999999999 422" data-from="mctA1" data-to="mpmA1" class="lt-sld-wire" stroke-dasharray="6 4"/>
<path d="M 276.7154999999999 672 L 276.7154999999999 684 L 177.45339999999993 684 L 177.45339999999993 734" class="lt-sld-wire-clearance"/>
<path d="M 276.7154999999999 672 L 276.7154999999999 684 L 177.45339999999993 684 L 177.45339999999993 734" data-from="f1ct" data-to="f1pm" class="lt-sld-wire" stroke-dasharray="6 4"/>
<path d="M 618.1044999999999 672 L 618.1044999999999 684 L 556.987 684 L 556.987 734" class="lt-sld-wire-clearance"/>
<path d="M 618.1044999999999 672 L 618.1044999999999 684 L 556.987 684 L 556.987 734" data-from="f2ct" data-to="f2pm" class="lt-sld-wire" stroke-dasharray="6 4"/>
<circle cx="356.0575" cy="410" r="2" class="lt-sld-dot"/>
<circle cx="276.7154999999999" cy="684" r="2" class="lt-sld-dot"/>
<circle cx="375.97759999999994" cy="840" r="2" class="lt-sld-dot"/>
<circle cx="618.1044999999999" cy="684" r="2" class="lt-sld-dot"/>
<circle cx="679.222" cy="832" r="2" class="lt-sld-dot"/>
<line x1="228.71549999999993" y1="436" x2="666.1044999999999" y2="436" class="lt-sld-bus" data-id="busA"/>
<text x="148.8542999999999" y="433" class="lt-sld-id-side">BUS-472</text>
<text x="148.8542999999999" y="447" class="lt-sld-id-side">400Y/230V</text>
<g transform="translate(356.0575, 56)" data-type="utility" data-id="srcA1"><g class="lt-sld-ansi"><style>.lt-sld-ansi .lt-sld-stroke, .lt-sld-ansi .lt-sld-fill { stroke-width: 1.4; }
.lt-sld-ansi .lt-sld-stroke-thick { stroke-width: 1.8; }
.lt-sld-ansi .lt-sld-ansi-fine { stroke-width: 1.4; }
.lt-sld-ansi .lt-sld-ansi-core { stroke-width: 1.4; }
.lt-sld-ansi .lt-sld-ansi-grid { stroke-width: 1.4; }
.lt-sld-ansi .lt-sld-ansi-hook { stroke-width: 1.4; }
.lt-sld-ansi text { dominant-baseline: auto; }
.lt-sld-ansi text[font-weight="600"] { font-weight: 600; }</style>
<g><line x1="0" y1="-24" x2="0" y2="-17" class="lt-sld-stroke"/>
<line x1="0" y1="17" x2="0" y2="18" class="lt-sld-stroke"/>
<circle cx="0" cy="0" r="17" class="lt-sld-fill"/>
<path d="M -9 0 Q -4.5 -9 0 0 T 9 0" stroke-linecap="round" class="lt-sld-stroke lt-sld-ansi-fine"/></g></g></g>
<text x="388.0575" y="53" class="lt-sld-id-side">6.6kV SUPPLY A</text>
<text x="388.0575" y="67" class="lt-sld-rating-side">6.6kV</text>
<g transform="translate(356.0575, 148)" data-type="transformer_yd" data-id="txA1"><g class="lt-sld-ansi"><style>.lt-sld-ansi .lt-sld-stroke, .lt-sld-ansi .lt-sld-fill { stroke-width: 1.4; }
.lt-sld-ansi .lt-sld-stroke-thick { stroke-width: 1.8; }
.lt-sld-ansi .lt-sld-ansi-fine { stroke-width: 1.4; }
.lt-sld-ansi .lt-sld-ansi-core { stroke-width: 1.4; }
.lt-sld-ansi .lt-sld-ansi-grid { stroke-width: 1.4; }
.lt-sld-ansi .lt-sld-ansi-hook { stroke-width: 1.4; }
.lt-sld-ansi text { dominant-baseline: auto; }
.lt-sld-ansi text[font-weight="600"] { font-weight: 600; }</style>
<line x1="0" y1="-24" x2="0" y2="-8" class="lt-sld-stroke"/>
<line x1="0" y1="8" x2="0" y2="24" class="lt-sld-stroke"/>
<path d="M -9 -5 A 3 3 0 0 1 -3 -5 A 3 3 0 0 1 3 -5 A 3 3 0 0 1 9 -5" stroke-linecap="round" class="lt-sld-stroke"/>
<path d="M -9 5 A 3 3 0 0 0 -3 5 A 3 3 0 0 0 3 5 A 3 3 0 0 0 9 5" stroke-linecap="round" class="lt-sld-stroke"/>
<path d="M -11 -1.5 L 11 -1.5 M -11 1.5 L 11 1.5" class="lt-sld-stroke lt-sld-ansi-core"/>
<path d="M -19.5 -14.5 L -16.5 -11.5 L -13.5 -14.5 M -16.5 -11.5 L -16.5 -4" stroke-linecap="round" class="lt-sld-stroke lt-sld-ansi-fine"/>
<path d="M -20.5 -4 L -12.5 -4 M -19 -2 L -14 -2 M -17.5 0 L -15.5 0" stroke-linecap="round" class="lt-sld-stroke lt-sld-ansi-fine"/>
<path d="M -16.5 3 L -13.25 8.5 L -19.75 8.5 Z" stroke-linecap="round" stroke-linejoin="round" class="lt-sld-stroke lt-sld-ansi-fine"/></g></g>
<text x="392.0575" y="145" class="lt-sld-id-side">TX-1686</text>
<text x="392.0575" y="159" class="lt-sld-rating-side">550 kVA</text>
<text x="392.0575" y="171" class="lt-sld-rating-side">6.6kV / 400Y/230V</text>
<g transform="translate(356.0575, 252)" data-type="breaker" data-id="mcbA1"><g class="lt-sld-ansi"><style>.lt-sld-ansi .lt-sld-stroke, .lt-sld-ansi .lt-sld-fill { stroke-width: 1.4; }
.lt-sld-ansi .lt-sld-stroke-thick { stroke-width: 1.8; }
.lt-sld-ansi .lt-sld-ansi-fine { stroke-width: 1.4; }
.lt-sld-ansi .lt-sld-ansi-core { stroke-width: 1.4; }
.lt-sld-ansi .lt-sld-ansi-grid { stroke-width: 1.4; }
.lt-sld-ansi .lt-sld-ansi-hook { stroke-width: 1.4; }
.lt-sld-ansi text { dominant-baseline: auto; }
.lt-sld-ansi text[font-weight="600"] { font-weight: 600; }</style>
<line x1="0" y1="-18" x2="0" y2="-14.25" class="lt-sld-stroke"/>
<line x1="0" y1="14.25" x2="0" y2="18" class="lt-sld-stroke"/>
<line x1="0" y1="14.25" x2="8.25" y2="-8.25" class="lt-sld-stroke-thick" data-sld-role="blade"/>
<circle cx="0" cy="14.25" r="2.1" class="lt-sld-dot"/>
<circle cx="0" cy="-14.25" r="2.1" class="lt-sld-dot"/>
<path d="M 8.25 -8.25 A 4.5 4.5 0 0 0 6 -13.125" stroke-linecap="round" class="lt-sld-stroke lt-sld-ansi-hook"/></g></g>
<text x="388.0575" y="249" class="lt-sld-id-side">CB-368</text>
<text x="388.0575" y="263" class="lt-sld-rating-side">ACB / 800 A / 3P</text>
<g transform="translate(356.0575, 344)" data-type="ct" data-id="mctA1"><g class="lt-sld-ansi"><style>.lt-sld-ansi .lt-sld-stroke, .lt-sld-ansi .lt-sld-fill { stroke-width: 1.4; }
.lt-sld-ansi .lt-sld-stroke-thick { stroke-width: 1.8; }
.lt-sld-ansi .lt-sld-ansi-fine { stroke-width: 1.4; }
.lt-sld-ansi .lt-sld-ansi-core { stroke-width: 1.4; }
.lt-sld-ansi .lt-sld-ansi-grid { stroke-width: 1.4; }
.lt-sld-ansi .lt-sld-ansi-hook { stroke-width: 1.4; }
.lt-sld-ansi text { dominant-baseline: auto; }
.lt-sld-ansi text[font-weight="600"] { font-weight: 600; }</style>
<line x1="0" y1="-16" x2="0" y2="-4.05" class="lt-sld-stroke"/>
<line x1="0" y1="4.05" x2="0" y2="16" class="lt-sld-stroke"/>
<line stroke-linecap="square" class="lt-sld-stroke lt-sld-ansi-core" x1="-4.05" y1="0" x2="-9.45" y2="0"/>
<circle cx="0" cy="0" r="9" class="lt-sld-fill"/>
<text x="0" y="1.35" font-size="9" font-weight="700" text-anchor="middle" class="lt-sld-symbol-text lt-sld-wdg">CT</text></g></g>
<text x="380.0575" y="341" class="lt-sld-id-side">TA-722</text>
<text x="380.0575" y="355" class="lt-sld-rating-side">3 CTs / 800/5 A</text>
<g transform="translate(736.3394999999999, 436)" data-type="watthour_meter" data-id="mpmA1"><g class="lt-sld-ansi"><style>.lt-sld-ansi .lt-sld-stroke, .lt-sld-ansi .lt-sld-fill { stroke-width: 1.4; }
.lt-sld-ansi .lt-sld-stroke-thick { stroke-width: 1.8; }
.lt-sld-ansi .lt-sld-ansi-fine { stroke-width: 1.4; }
.lt-sld-ansi .lt-sld-ansi-core { stroke-width: 1.4; }
.lt-sld-ansi .lt-sld-ansi-grid { stroke-width: 1.4; }
.lt-sld-ansi .lt-sld-ansi-hook { stroke-width: 1.4; }
.lt-sld-ansi text { dominant-baseline: auto; }
.lt-sld-ansi text[font-weight="600"] { font-weight: 600; }</style>
<g><line x1="0" y1="-14" x2="0" y2="-13" class="lt-sld-stroke"/>
<line x1="0" y1="13" x2="0" y2="14" class="lt-sld-stroke"/>
<circle cx="0" cy="0" r="13" class="lt-sld-fill"/>
<text x="0" y="4" font-size="9" font-weight="600" text-anchor="middle" class="lt-sld-symbol-text lt-sld-wdg">Wh</text></g></g></g>
<text x="710.1044999999999" y="466" class="lt-sld-id-side">PM-1031</text>
<text x="717.7995" y="480" class="lt-sld-rating-side">kW / kWh</text>
<g transform="translate(276.7154999999999, 564)" data-type="breaker" data-id="f1cb"><g class="lt-sld-ansi"><style>.lt-sld-ansi .lt-sld-stroke, .lt-sld-ansi .lt-sld-fill { stroke-width: 1.4; }
.lt-sld-ansi .lt-sld-stroke-thick { stroke-width: 1.8; }
.lt-sld-ansi .lt-sld-ansi-fine { stroke-width: 1.4; }
.lt-sld-ansi .lt-sld-ansi-core { stroke-width: 1.4; }
.lt-sld-ansi .lt-sld-ansi-grid { stroke-width: 1.4; }
.lt-sld-ansi .lt-sld-ansi-hook { stroke-width: 1.4; }
.lt-sld-ansi text { dominant-baseline: auto; }
.lt-sld-ansi text[font-weight="600"] { font-weight: 600; }</style>
<line x1="0" y1="-18" x2="0" y2="-14.25" class="lt-sld-stroke"/>
<line x1="0" y1="14.25" x2="0" y2="18" class="lt-sld-stroke"/>
<line x1="0" y1="14.25" x2="8.25" y2="-8.25" class="lt-sld-stroke-thick" data-sld-role="blade"/>
<circle cx="0" cy="14.25" r="2.1" class="lt-sld-dot"/>
<circle cx="0" cy="-14.25" r="2.1" class="lt-sld-dot"/>
<path d="M 8.25 -8.25 A 4.5 4.5 0 0 0 6 -13.125" stroke-linecap="round" class="lt-sld-stroke lt-sld-ansi-hook"/></g></g>
<text x="308.7154999999999" y="561" class="lt-sld-id-side">CB-305</text>
<text x="308.7154999999999" y="575" class="lt-sld-rating-side">MCCB / 100 A / 3P</text>
<g transform="translate(276.7154999999999, 656)" data-type="ct" data-id="f1ct"><g class="lt-sld-ansi"><style>.lt-sld-ansi .lt-sld-stroke, .lt-sld-ansi .lt-sld-fill { stroke-width: 1.4; }
.lt-sld-ansi .lt-sld-stroke-thick { stroke-width: 1.8; }
.lt-sld-ansi .lt-sld-ansi-fine { stroke-width: 1.4; }
.lt-sld-ansi .lt-sld-ansi-core { stroke-width: 1.4; }
.lt-sld-ansi .lt-sld-ansi-grid { stroke-width: 1.4; }
.lt-sld-ansi .lt-sld-ansi-hook { stroke-width: 1.4; }
.lt-sld-ansi text { dominant-baseline: auto; }
.lt-sld-ansi text[font-weight="600"] { font-weight: 600; }</style>
<line x1="0" y1="-16" x2="0" y2="-4.05" class="lt-sld-stroke"/>
<line x1="0" y1="4.05" x2="0" y2="16" class="lt-sld-stroke"/>
<line stroke-linecap="square" class="lt-sld-stroke lt-sld-ansi-core" x1="-4.05" y1="0" x2="-9.45" y2="0"/>
<circle cx="0" cy="0" r="9" class="lt-sld-fill"/>
<text x="0" y="1.35" font-size="9" font-weight="700" text-anchor="middle" class="lt-sld-symbol-text lt-sld-wdg">CT</text></g></g>
<text x="300.7154999999999" y="653" class="lt-sld-id-side">TA-785</text>
<text x="300.7154999999999" y="667" class="lt-sld-rating-side">3 CTs / 100/5 A</text>
<g transform="translate(177.45339999999993, 748)" data-type="watthour_meter" data-id="f1pm"><g class="lt-sld-ansi"><style>.lt-sld-ansi .lt-sld-stroke, .lt-sld-ansi .lt-sld-fill { stroke-width: 1.4; }
.lt-sld-ansi .lt-sld-stroke-thick { stroke-width: 1.8; }
.lt-sld-ansi .lt-sld-ansi-fine { stroke-width: 1.4; }
.lt-sld-ansi .lt-sld-ansi-core { stroke-width: 1.4; }
.lt-sld-ansi .lt-sld-ansi-grid { stroke-width: 1.4; }
.lt-sld-ansi .lt-sld-ansi-hook { stroke-width: 1.4; }
.lt-sld-ansi text { dominant-baseline: auto; }
.lt-sld-ansi text[font-weight="600"] { font-weight: 600; }</style>
<g><line x1="0" y1="-14" x2="0" y2="-13" class="lt-sld-stroke"/>
<line x1="0" y1="13" x2="0" y2="14" class="lt-sld-stroke"/>
<circle cx="0" cy="0" r="13" class="lt-sld-fill"/>
<text x="0" y="4" font-size="9" font-weight="600" text-anchor="middle" class="lt-sld-symbol-text lt-sld-wdg">Wh</text></g></g></g>
<text x="151.21839999999992" y="778" class="lt-sld-id-side">PM-1020</text>
<text x="158.9133999999999" y="792" class="lt-sld-rating-side">kW / kWh</text>
<g transform="translate(375.97759999999994, 748)" data-type="hub" data-id="f1pnl"><g class="lt-sld-ansi"><style>.lt-sld-ansi .lt-sld-stroke, .lt-sld-ansi .lt-sld-fill { stroke-width: 1.4; }
.lt-sld-ansi .lt-sld-stroke-thick { stroke-width: 1.8; }
.lt-sld-ansi .lt-sld-ansi-fine { stroke-width: 1.4; }
.lt-sld-ansi .lt-sld-ansi-core { stroke-width: 1.4; }
.lt-sld-ansi .lt-sld-ansi-grid { stroke-width: 1.4; }
.lt-sld-ansi .lt-sld-ansi-hook { stroke-width: 1.4; }
.lt-sld-ansi text { dominant-baseline: auto; }
.lt-sld-ansi text[font-weight="600"] { font-weight: 600; }</style>
<g><line x1="0" y1="-20" x2="0" y2="-16" class="lt-sld-stroke"/>
<line x1="0" y1="16" x2="0" y2="20" class="lt-sld-stroke"/>
<rect x="-30" y="-16" width="60" height="32" class="lt-sld-fill"/>
<text x="0" y="4" font-size="11" lengthAdjust="spacingAndGlyphs" font-weight="700" text-anchor="middle" class="lt-sld-symbol-text lt-sld-wdg">FD-900</text></g></g></g>
<text x="441.97759999999994" y="745" class="lt-sld-rating-side">3P+N</text>
<g transform="translate(181.30119999999994, 870)" data-type="breaker" data-id="f1l1cb"><g class="lt-sld-ansi"><style>.lt-sld-ansi .lt-sld-stroke, .lt-sld-ansi .lt-sld-fill { stroke-width: 1.4; }
.lt-sld-ansi .lt-sld-stroke-thick { stroke-width: 1.8; }
.lt-sld-ansi .lt-sld-ansi-fine { stroke-width: 1.4; }
.lt-sld-ansi .lt-sld-ansi-core { stroke-width: 1.4; }
.lt-sld-ansi .lt-sld-ansi-grid { stroke-width: 1.4; }
.lt-sld-ansi .lt-sld-ansi-hook { stroke-width: 1.4; }
.lt-sld-ansi text { dominant-baseline: auto; }
.lt-sld-ansi text[font-weight="600"] { font-weight: 600; }</style>
<line x1="0" y1="-18" x2="0" y2="-14.25" class="lt-sld-stroke"/>
<line x1="0" y1="14.25" x2="0" y2="18" class="lt-sld-stroke"/>
<line x1="0" y1="14.25" x2="8.25" y2="-8.25" class="lt-sld-stroke-thick" data-sld-role="blade"/>
<circle cx="0" cy="14.25" r="2.1" class="lt-sld-dot"/>
<circle cx="0" cy="-14.25" r="2.1" class="lt-sld-dot"/>
<path d="M 8.25 -8.25 A 4.5 4.5 0 0 0 6 -13.125" stroke-linecap="round" class="lt-sld-stroke lt-sld-ansi-hook"/></g></g>
<text x="213.30119999999994" y="867" class="lt-sld-id-side">CB-380</text>
<text x="213.30119999999994" y="881" class="lt-sld-rating-side">MCCB / 32 A / 3P</text>
<g transform="translate(181.30119999999994, 990)" data-type="vfd" data-id="f1l1drv"><g class="lt-sld-ansi"><style>.lt-sld-ansi .lt-sld-stroke, .lt-sld-ansi .lt-sld-fill { stroke-width: 1.4; }
.lt-sld-ansi .lt-sld-stroke-thick { stroke-width: 1.8; }
.lt-sld-ansi .lt-sld-ansi-fine { stroke-width: 1.4; }
.lt-sld-ansi .lt-sld-ansi-core { stroke-width: 1.4; }
.lt-sld-ansi .lt-sld-ansi-grid { stroke-width: 1.4; }
.lt-sld-ansi .lt-sld-ansi-hook { stroke-width: 1.4; }
.lt-sld-ansi text { dominant-baseline: auto; }
.lt-sld-ansi text[font-weight="600"] { font-weight: 600; }</style>
<line x1="0" y1="-18" x2="0" y2="-12" class="lt-sld-stroke"/>
<line x1="0" y1="12" x2="0" y2="18" class="lt-sld-stroke"/>
<rect x="-22.5" y="-12" width="45" height="24" class="lt-sld-fill"/>
<text x="0" y="3" font-size="11" font-weight="700" text-anchor="middle" class="lt-sld-symbol-text lt-sld-wdg">VFD</text></g></g>
<text x="219.30119999999994" y="987" class="lt-sld-id-side">DRV-846</text>
<text x="219.30119999999994" y="1001" class="lt-sld-rating-side">VFD / OL</text>
<g transform="translate(181.30119999999994, 1082)" data-type="motor" data-id="f1l1m"><g class="lt-sld-ansi"><style>.lt-sld-ansi .lt-sld-stroke, .lt-sld-ansi .lt-sld-fill { stroke-width: 1.4; }
.lt-sld-ansi .lt-sld-stroke-thick { stroke-width: 1.8; }
.lt-sld-ansi .lt-sld-ansi-fine { stroke-width: 1.4; }
.lt-sld-ansi .lt-sld-ansi-core { stroke-width: 1.4; }
.lt-sld-ansi .lt-sld-ansi-grid { stroke-width: 1.4; }
.lt-sld-ansi .lt-sld-ansi-hook { stroke-width: 1.4; }
.lt-sld-ansi text { dominant-baseline: auto; }
.lt-sld-ansi text[font-weight="600"] { font-weight: 600; }</style>
<g><line x1="0" y1="-16" x2="0" y2="-15" class="lt-sld-stroke"/>
<line x1="0" y1="15" x2="0" y2="22" class="lt-sld-stroke"/>
<circle cx="0" cy="0" r="15" class="lt-sld-fill"/>
<text x="0" y="5" font-size="13" font-weight="700" text-anchor="middle" class="lt-sld-symbol-text lt-sld-wdg">M</text></g></g></g>
<text x="151.21839999999992" y="1120" class="lt-sld-id-side">MTR-1172</text>
<text x="157.27119999999994" y="1134" class="lt-sld-rating-side">14 kW / EF</text>
<g transform="translate(570.654, 870)" data-type="load" data-id="f1l2ld"><g class="lt-sld-ansi"><style>.lt-sld-ansi .lt-sld-stroke, .lt-sld-ansi .lt-sld-fill { stroke-width: 1.4; }
.lt-sld-ansi .lt-sld-stroke-thick { stroke-width: 1.8; }
.lt-sld-ansi .lt-sld-ansi-fine { stroke-width: 1.4; }
.lt-sld-ansi .lt-sld-ansi-core { stroke-width: 1.4; }
.lt-sld-ansi .lt-sld-ansi-grid { stroke-width: 1.4; }
.lt-sld-ansi .lt-sld-ansi-hook { stroke-width: 1.4; }
.lt-sld-ansi text { dominant-baseline: auto; }
.lt-sld-ansi text[font-weight="600"] { font-weight: 600; }</style>
<line x1="0" y1="-12" x2="0" y2="-10.4" class="lt-sld-stroke"/>
<line x1="0" y1="10.4" x2="0" y2="12" class="lt-sld-stroke"/>
<path d="M -11.2 -10.4 L 11.2 -10.4 L 0 10.4 Z" stroke-linejoin="miter" class="lt-sld-fill"/></g></g>
<text x="540.5712" y="898" class="lt-sld-id-side">PNL-1445</text>
<text x="518.544" y="912" class="lt-sld-rating-side">GROW LIGHTING / 41 kW</text>
<g transform="translate(618.1044999999999, 564)" data-type="breaker" data-id="f2cb"><g class="lt-sld-ansi"><style>.lt-sld-ansi .lt-sld-stroke, .lt-sld-ansi .lt-sld-fill { stroke-width: 1.4; }
.lt-sld-ansi .lt-sld-stroke-thick { stroke-width: 1.8; }
.lt-sld-ansi .lt-sld-ansi-fine { stroke-width: 1.4; }
.lt-sld-ansi .lt-sld-ansi-core { stroke-width: 1.4; }
.lt-sld-ansi .lt-sld-ansi-grid { stroke-width: 1.4; }
.lt-sld-ansi .lt-sld-ansi-hook { stroke-width: 1.4; }
.lt-sld-ansi text { dominant-baseline: auto; }
.lt-sld-ansi text[font-weight="600"] { font-weight: 600; }</style>
<line x1="0" y1="-18" x2="0" y2="-14.25" class="lt-sld-stroke"/>
<line x1="0" y1="14.25" x2="0" y2="18" class="lt-sld-stroke"/>
<line x1="0" y1="14.25" x2="8.25" y2="-8.25" class="lt-sld-stroke-thick" data-sld-role="blade"/>
<circle cx="0" cy="14.25" r="2.1" class="lt-sld-dot"/>
<circle cx="0" cy="-14.25" r="2.1" class="lt-sld-dot"/>
<path d="M 8.25 -8.25 A 4.5 4.5 0 0 0 6 -13.125" stroke-linecap="round" class="lt-sld-stroke lt-sld-ansi-hook"/></g></g>
<text x="650.1044999999999" y="561" class="lt-sld-id-side">CB-344</text>
<text x="650.1044999999999" y="575" class="lt-sld-rating-side">MCCB / 160 A / 3P</text>
<g transform="translate(618.1044999999999, 656)" data-type="ct" data-id="f2ct"><g class="lt-sld-ansi"><style>.lt-sld-ansi .lt-sld-stroke, .lt-sld-ansi .lt-sld-fill { stroke-width: 1.4; }
.lt-sld-ansi .lt-sld-stroke-thick { stroke-width: 1.8; }
.lt-sld-ansi .lt-sld-ansi-fine { stroke-width: 1.4; }
.lt-sld-ansi .lt-sld-ansi-core { stroke-width: 1.4; }
.lt-sld-ansi .lt-sld-ansi-grid { stroke-width: 1.4; }
.lt-sld-ansi .lt-sld-ansi-hook { stroke-width: 1.4; }
.lt-sld-ansi text { dominant-baseline: auto; }
.lt-sld-ansi text[font-weight="600"] { font-weight: 600; }</style>
<line x1="0" y1="-16" x2="0" y2="-4.05" class="lt-sld-stroke"/>
<line x1="0" y1="4.05" x2="0" y2="16" class="lt-sld-stroke"/>
<line stroke-linecap="square" class="lt-sld-stroke lt-sld-ansi-core" x1="-4.05" y1="0" x2="-9.45" y2="0"/>
<circle cx="0" cy="0" r="9" class="lt-sld-fill"/>
<text x="0" y="1.35" font-size="9" font-weight="700" text-anchor="middle" class="lt-sld-symbol-text lt-sld-wdg">CT</text></g></g>
<text x="642.1044999999999" y="653" class="lt-sld-id-side">TA-716</text>
<text x="642.1044999999999" y="667" class="lt-sld-rating-side">3 CTs / 160/5 A</text>
<g transform="translate(556.987, 748)" data-type="watthour_meter" data-id="f2pm"><g class="lt-sld-ansi"><style>.lt-sld-ansi .lt-sld-stroke, .lt-sld-ansi .lt-sld-fill { stroke-width: 1.4; }
.lt-sld-ansi .lt-sld-stroke-thick { stroke-width: 1.8; }
.lt-sld-ansi .lt-sld-ansi-fine { stroke-width: 1.4; }
.lt-sld-ansi .lt-sld-ansi-core { stroke-width: 1.4; }
.lt-sld-ansi .lt-sld-ansi-grid { stroke-width: 1.4; }
.lt-sld-ansi .lt-sld-ansi-hook { stroke-width: 1.4; }
.lt-sld-ansi text { dominant-baseline: auto; }
.lt-sld-ansi text[font-weight="600"] { font-weight: 600; }</style>
<g><line x1="0" y1="-14" x2="0" y2="-13" class="lt-sld-stroke"/>
<line x1="0" y1="13" x2="0" y2="14" class="lt-sld-stroke"/>
<circle cx="0" cy="0" r="13" class="lt-sld-fill"/>
<text x="0" y="4" font-size="9" font-weight="600" text-anchor="middle" class="lt-sld-symbol-text lt-sld-wdg">Wh</text></g></g></g>
<text x="530.752" y="778" class="lt-sld-id-side">PM-1044</text>
<text x="538.4469999999999" y="792" class="lt-sld-rating-side">kW / kWh</text>
<g transform="translate(679.222, 748)" data-type="hub" data-id="f2pnl"><g class="lt-sld-ansi"><style>.lt-sld-ansi .lt-sld-stroke, .lt-sld-ansi .lt-sld-fill { stroke-width: 1.4; }
.lt-sld-ansi .lt-sld-stroke-thick { stroke-width: 1.8; }
.lt-sld-ansi .lt-sld-ansi-fine { stroke-width: 1.4; }
.lt-sld-ansi .lt-sld-ansi-core { stroke-width: 1.4; }
.lt-sld-ansi .lt-sld-ansi-grid { stroke-width: 1.4; }
.lt-sld-ansi .lt-sld-ansi-hook { stroke-width: 1.4; }
.lt-sld-ansi text { dominant-baseline: auto; }
.lt-sld-ansi text[font-weight="600"] { font-weight: 600; }</style>
<g><line x1="0" y1="-20" x2="0" y2="-16" class="lt-sld-stroke"/>
<line x1="0" y1="16" x2="0" y2="20" class="lt-sld-stroke"/>
<rect x="-30" y="-16" width="60" height="32" class="lt-sld-fill"/>
<text x="0" y="4" font-size="11" lengthAdjust="spacingAndGlyphs" font-weight="700" text-anchor="middle" class="lt-sld-symbol-text lt-sld-wdg">FD-912</text></g></g></g>
<text x="745.222" y="745" class="lt-sld-rating-side">3P+N</text>
<g transform="translate(364.96399999999994, 870)" data-type="breaker" data-id="f2l1cb"><g class="lt-sld-ansi"><style>.lt-sld-ansi .lt-sld-stroke, .lt-sld-ansi .lt-sld-fill { stroke-width: 1.4; }
.lt-sld-ansi .lt-sld-stroke-thick { stroke-width: 1.8; }
.lt-sld-ansi .lt-sld-ansi-fine { stroke-width: 1.4; }
.lt-sld-ansi .lt-sld-ansi-core { stroke-width: 1.4; }
.lt-sld-ansi .lt-sld-ansi-grid { stroke-width: 1.4; }
.lt-sld-ansi .lt-sld-ansi-hook { stroke-width: 1.4; }
.lt-sld-ansi text { dominant-baseline: auto; }
.lt-sld-ansi text[font-weight="600"] { font-weight: 600; }</style>
<line x1="0" y1="-18" x2="0" y2="-14.25" class="lt-sld-stroke"/>
<line x1="0" y1="14.25" x2="0" y2="18" class="lt-sld-stroke"/>
<line x1="0" y1="14.25" x2="8.25" y2="-8.25" class="lt-sld-stroke-thick" data-sld-role="blade"/>
<circle cx="0" cy="14.25" r="2.1" class="lt-sld-dot"/>
<circle cx="0" cy="-14.25" r="2.1" class="lt-sld-dot"/>
<path d="M 8.25 -8.25 A 4.5 4.5 0 0 0 6 -13.125" stroke-linecap="round" class="lt-sld-stroke lt-sld-ansi-hook"/></g></g>
<text x="396.96399999999994" y="867" class="lt-sld-id-side">CB-347</text>
<text x="396.96399999999994" y="881" class="lt-sld-rating-side">MCCB / 20 A / 3P</text>
<g transform="translate(364.96399999999994, 990)" data-type="vfd" data-id="f2l1drv"><g class="lt-sld-ansi"><style>.lt-sld-ansi .lt-sld-stroke, .lt-sld-ansi .lt-sld-fill { stroke-width: 1.4; }
.lt-sld-ansi .lt-sld-stroke-thick { stroke-width: 1.8; }
.lt-sld-ansi .lt-sld-ansi-fine { stroke-width: 1.4; }
.lt-sld-ansi .lt-sld-ansi-core { stroke-width: 1.4; }
.lt-sld-ansi .lt-sld-ansi-grid { stroke-width: 1.4; }
.lt-sld-ansi .lt-sld-ansi-hook { stroke-width: 1.4; }
.lt-sld-ansi text { dominant-baseline: auto; }
.lt-sld-ansi text[font-weight="600"] { font-weight: 600; }</style>
<line x1="0" y1="-18" x2="0" y2="-12" class="lt-sld-stroke"/>
<line x1="0" y1="12" x2="0" y2="18" class="lt-sld-stroke"/>
<rect x="-22.5" y="-12" width="45" height="24" class="lt-sld-fill"/>
<text x="0" y="3" font-size="11" font-weight="700" text-anchor="middle" class="lt-sld-symbol-text lt-sld-wdg">VFD</text></g></g>
<text x="402.96399999999994" y="987" class="lt-sld-id-side">DRV-839</text>
<text x="402.96399999999994" y="1001" class="lt-sld-rating-side">VFD / OL</text>
<g transform="translate(364.96399999999994, 1082)" data-type="motor" data-id="f2l1m"><g class="lt-sld-ansi"><style>.lt-sld-ansi .lt-sld-stroke, .lt-sld-ansi .lt-sld-fill { stroke-width: 1.4; }
.lt-sld-ansi .lt-sld-stroke-thick { stroke-width: 1.8; }
.lt-sld-ansi .lt-sld-ansi-fine { stroke-width: 1.4; }
.lt-sld-ansi .lt-sld-ansi-core { stroke-width: 1.4; }
.lt-sld-ansi .lt-sld-ansi-grid { stroke-width: 1.4; }
.lt-sld-ansi .lt-sld-ansi-hook { stroke-width: 1.4; }
.lt-sld-ansi text { dominant-baseline: auto; }
.lt-sld-ansi text[font-weight="600"] { font-weight: 600; }</style>
<g><line x1="0" y1="-16" x2="0" y2="-15" class="lt-sld-stroke"/>
<line x1="0" y1="15" x2="0" y2="22" class="lt-sld-stroke"/>
<circle cx="0" cy="0" r="15" class="lt-sld-fill"/>
<text x="0" y="5" font-size="13" font-weight="700" text-anchor="middle" class="lt-sld-symbol-text lt-sld-wdg">M</text></g></g></g>
<text x="334.8811999999999" y="1120" class="lt-sld-id-side">MTR-1174</text>
<text x="343.90399999999994" y="1134" class="lt-sld-rating-side">8 kW / EF</text>
<g transform="translate(718.874, 870)" data-type="load" data-id="f2l2ld"><g class="lt-sld-ansi"><style>.lt-sld-ansi .lt-sld-stroke, .lt-sld-ansi .lt-sld-fill { stroke-width: 1.4; }
.lt-sld-ansi .lt-sld-stroke-thick { stroke-width: 1.8; }
.lt-sld-ansi .lt-sld-ansi-fine { stroke-width: 1.4; }
.lt-sld-ansi .lt-sld-ansi-core { stroke-width: 1.4; }
.lt-sld-ansi .lt-sld-ansi-grid { stroke-width: 1.4; }
.lt-sld-ansi .lt-sld-ansi-hook { stroke-width: 1.4; }
.lt-sld-ansi text { dominant-baseline: auto; }
.lt-sld-ansi text[font-weight="600"] { font-weight: 600; }</style>
<line x1="0" y1="-12" x2="0" y2="-10.4" class="lt-sld-stroke"/>
<line x1="0" y1="10.4" x2="0" y2="12" class="lt-sld-stroke"/>
<path d="M -11.2 -10.4 L 11.2 -10.4 L 0 10.4 Z" stroke-linejoin="miter" class="lt-sld-fill"/></g></g>
<text x="688.7912" y="898" class="lt-sld-id-side">PNL-1428</text>
<text x="666.764" y="912" class="lt-sld-rating-side">GROW LIGHTING / 42 kW</text></g></svg>