<svg xmlns="http://www.w3.org/2000/svg" xmlns:xlink="http://www.w3.org/1999/xlink" class="lt-sld" role="img" aria-labelledby="lt-sld-title lt-sld-desc" width="692" height="1063" viewBox="0 0 692 1063"><title>GEN-1347 — BREWERY / ELECTRICAL DISTRIBUTION</title>
<desc>Single-line diagram with 25 nodes and 24 connections</desc>
<style>.lt-sld { font-family: "Inter", "Helvetica Neue", sans-serif; }
.lt-sld-stroke { stroke: #222222; stroke-width: 1.4; fill: none; }
.lt-sld-stroke-thick { stroke: #222222; stroke-width: 1.8; fill: none; stroke-linecap: round; }
.lt-sld-fill { fill: #ffffff; stroke: #222222; stroke-width: 1.4; }
.lt-sld-fill-dark { fill: #222222; stroke: #222222; stroke-width: 1; }
.lt-sld-dot { fill: #222222; stroke: none; }
.lt-sld-wire-clearance { stroke: #ffffff; stroke-width: 5; fill: none; }
.lt-sld-control { stroke: #222222; stroke-width: 1.4; stroke-dasharray: 5 4; fill: none; }
.lt-sld-wire { stroke: #222222; stroke-width: 1.4; fill: none; }
.lt-sld-bus { stroke: #111111; stroke-width: 3; stroke-linecap: square; }
.lt-sld-title { font-size: 16px; font-weight: 700; fill: #111111; }
.lt-sld-id { font-size: 11px; font-weight: 700; fill: #111111; text-anchor: middle; }
.lt-sld-id-side { font-size: 11px; font-weight: 700; fill: #111111; text-anchor: start; }
.lt-sld-rating { font-size: 9px; fill: #555555; text-anchor: middle; }
.lt-sld-rating-side { font-size: 9px; fill: #555555; text-anchor: start; }
.lt-sld-voltage { font-size: 10px; font-weight: 700; fill: #555555; }
.lt-sld-nameplate { font-size: 9px; fill: #555555; }
.lt-sld-cable { font-size: 9px; fill: #555555; }
.lt-sld-symbol-text:not([font-size]) { font-size: 11px; }
.lt-sld-symbol-text { fill: #111111; dominant-baseline: middle; }
.lt-sld-wdg:not([font-size]) { font-size: 10px; }
.lt-sld-wdg { font-weight: 700; fill: #222222; dominant-baseline: middle; }
.lt-sld-bus-label { font-size: 11px; font-weight: 700; fill: #1d4e89; }
.lt-sld-standard-badge { font-size: 10px; font-weight: 700; fill: #555555; letter-spacing: 0.3px; }
.lt-sld-unknown-box { fill: none; stroke: #1d4e89; stroke-width: 1.6; stroke-dasharray: 5 3; }
.lt-sld-unknown-mark { font-size: 16px; font-weight: 700; fill: #1d4e89; dominant-baseline: middle; }
.lt-sld-unknown-type { font-size: 9px; font-family: monospace; fill: #555555; }</style>
<text x="20" y="22" class="lt-sld-title" data-sld-role="title">GEN-1347 — BREWERY / ELECTRICAL DISTRIBUTION</text>
<g transform="translate(0, 12)"><path d="M 190.54945 74 L 190.54945 124" class="lt-sld-wire-clearance"/>
<path d="M 190.54945 74 L 190.54945 124" data-from="srcA1" data-to="txA1" class="lt-sld-wire"/>
<path d="M 190.54945 172 L 190.54945 234" class="lt-sld-wire-clearance"/>
<path d="M 190.54945 172 L 190.54945 234" data-from="txA1" data-to="mcbA1" class="lt-sld-wire"/>
<path d="M 190.54945 270 L 190.54945 328" class="lt-sld-wire-clearance"/>
<path d="M 190.54945 270 L 190.54945 328" data-from="mcbA1" data-to="mctA1" class="lt-sld-wire"/>
<path d="M 190.54945 360 L 190.54945 372 L 208.54945 372 L 208.54945 424 L 190.54945 424 L 190.54945 436" class="lt-sld-wire-clearance"/>
<path d="M 190.54945 360 L 190.54945 372 L 208.54945 372 L 208.54945 424 L 190.54945 424 L 190.54945 436" data-from="mctA1" data-to="busA" class="lt-sld-wire"/>
<path d="M 511.5275 74 L 511.5275 124" class="lt-sld-wire-clearance"/>
<path d="M 511.5275 74 L 511.5275 124" data-from="srcB1" data-to="txB1" class="lt-sld-wire"/>
<path d="M 511.5275 172 L 511.5275 234" class="lt-sld-wire-clearance"/>
<path d="M 511.5275 172 L 511.5275 234" data-from="txB1" data-to="mcbB1" class="lt-sld-wire"/>
<path d="M 511.5275 270 L 511.5275 328" class="lt-sld-wire-clearance"/>
<path d="M 511.5275 270 L 511.5275 328" data-from="mcbB1" data-to="mctB1" class="lt-sld-wire"/>
<path d="M 511.5275 360 L 511.5275 372 L 537.5274999999999 372 L 537.5274999999999 424 L 511.5275 424 L 511.5275 436" class="lt-sld-wire-clearance"/>
<path d="M 511.5275 360 L 511.5275 372 L 537.5274999999999 372 L 537.5274999999999 424 L 511.5275 424 L 511.5275 436" data-from="mctB1" data-to="busB" class="lt-sld-wire"/>
<path d="M 257.90195 436 L 263.90195 436" class="lt-sld-wire-clearance"/>
<path d="M 257.90195 436 L 263.90195 436" data-from="busA" data-to="tie" class="lt-sld-wire"/>
<path d="M 299.90195 436 L 305.90195 436" class="lt-sld-wire-clearance"/>
<path d="M 299.90195 436 L 305.90195 436" data-from="tie" data-to="busB" class="lt-sld-wire"/>
<path d="M 112.3939 436 L 112.3939 546" class="lt-sld-wire-clearance"/>
<path d="M 112.3939 436 L 112.3939 546" data-from="busA" data-to="f1cb" class="lt-sld-wire"/>
<text x="119.3939" y="513" class="lt-sld-cable">3#4 AWG</text>
<path d="M 112.3939 582 L 112.3939 640" class="lt-sld-wire-clearance"/>
<path d="M 112.3939 582 L 112.3939 640" data-from="f1cb" data-to="f1ct" class="lt-sld-wire"/>
<path d="M 112.3939 672 L 112.3939 684 L 150.47 684 L 150.47 730" class="lt-sld-wire-clearance"/>
<path d="M 112.3939 672 L 112.3939 684 L 150.47 684 L 150.47 730" data-from="f1ct" data-to="f1l1cb" class="lt-sld-wire"/>
<path d="M 150.47 766 L 150.47 852" class="lt-sld-wire-clearance"/>
<path d="M 150.47 766 L 150.47 852" data-from="f1l1cb" data-to="f1l1drv" class="lt-sld-wire"/>
<path d="M 150.47 888 L 150.47 946" class="lt-sld-wire-clearance"/>
<path d="M 150.47 888 L 150.47 946" data-from="f1l1drv" data-to="f1l1m" class="lt-sld-wire"/>
<path d="M 451.40999999999997 436 L 451.40999999999997 546" class="lt-sld-wire-clearance"/>
<path d="M 451.40999999999997 436 L 451.40999999999997 546" data-from="busB" data-to="f2cb" class="lt-sld-wire"/>
<text x="458.40999999999997" y="513" class="lt-sld-cable">3#4 AWG</text>
<path d="M 451.40999999999997 582 L 451.40999999999997 640" class="lt-sld-wire-clearance"/>
<path d="M 451.40999999999997 582 L 451.40999999999997 640" data-from="f2cb" data-to="f2ct" class="lt-sld-wire"/>
<path d="M 451.40999999999997 672 L 451.40999999999997 684 L 327.99 684 L 327.99 730" class="lt-sld-wire-clearance"/>
<path d="M 451.40999999999997 672 L 451.40999999999997 684 L 327.99 684 L 327.99 730" data-from="f2ct" data-to="f2l1cb" class="lt-sld-wire"/>
<path d="M 327.99 766 L 327.99 852" class="lt-sld-wire-clearance"/>
<path d="M 327.99 766 L 327.99 852" data-from="f2l1cb" data-to="f2l1drv" class="lt-sld-wire"/>
<path d="M 327.99 888 L 327.99 946" class="lt-sld-wire-clearance"/>
<path d="M 327.99 888 L 327.99 946" data-from="f2l1drv" data-to="f2l1m" class="lt-sld-wire"/>
<path d="M 190.54945 360 L 190.54945 388 L 629.7624999999999 388 L 629.7624999999999 422" class="lt-sld-wire-clearance"/>
<path d="M 190.54945 360 L 190.54945 388 L 629.7624999999999 388 L 629.7624999999999 422" data-from="mctA1" data-to="mpmA1" class="lt-sld-wire" stroke-dasharray="6 4"/>
<path d="M 511.5275 360 L 511.5275 372 L 637.7624999999999 372 L 637.7624999999999 410 L 629.7624999999999 410 L 629.7624999999999 422" class="lt-sld-wire-clearance"/>
<path d="M 511.5275 360 L 511.5275 372 L 637.7624999999999 372 L 637.7624999999999 410 L 629.7624999999999 410 L 629.7624999999999 422" data-from="mctB1" data-to="mpmB1" class="lt-sld-wire" stroke-dasharray="6 4"/>
<path d="M 112.3939 672 L 112.3939 684 L 62.235 684 L 62.235 734" class="lt-sld-wire-clearance"/>
<path d="M 112.3939 672 L 112.3939 684 L 62.235 684 L 62.235 734" data-from="f1ct" data-to="f1pm" class="lt-sld-wire" stroke-dasharray="6 4"/>
<path d="M 451.40999999999997 672 L 451.40999999999997 684 L 544.2874999999999 684 L 544.2874999999999 734" class="lt-sld-wire-clearance"/>
<path d="M 451.40999999999997 672 L 451.40999999999997 684 L 544.2874999999999 684 L 544.2874999999999 734" data-from="f2ct" data-to="f2pm" class="lt-sld-wire" stroke-dasharray="6 4"/>
<circle cx="190.54945" cy="372" r="2" class="lt-sld-dot"/>
<circle cx="537.5274999999999" cy="372" r="2" class="lt-sld-dot"/>
<circle cx="112.3939" cy="684" r="2" class="lt-sld-dot"/>
<circle cx="451.40999999999997" cy="684" r="2" class="lt-sld-dot"/>
<line x1="64.3939" y1="436" x2="257.90195" y2="436" class="lt-sld-bus" data-id="busA"/>
<text x="126.3939" y="404" class="lt-sld-id-side">BUS-408</text>
<text x="126.3939" y="418" class="lt-sld-id-side">208Y/120V</text>
<g transform="translate(190.54945, 56)" data-type="utility" data-id="srcA1"><g class="lt-sld-ansi"><style>.lt-sld-ansi .lt-sld-stroke, .lt-sld-ansi .lt-sld-fill { stroke-width: 1.4; }
.lt-sld-ansi .lt-sld-stroke-thick { stroke-width: 1.8; }
.lt-sld-ansi .lt-sld-ansi-fine { stroke-width: 1.4; }
.lt-sld-ansi .lt-sld-ansi-core { stroke-width: 1.4; }
.lt-sld-ansi .lt-sld-ansi-grid { stroke-width: 1.4; }
.lt-sld-ansi .lt-sld-ansi-hook { stroke-width: 1.4; }
.lt-sld-ansi text { dominant-baseline: auto; }
.lt-sld-ansi text[font-weight="600"] { font-weight: 600; }</style>
<g><line x1="0" y1="-24" x2="0" y2="-17" class="lt-sld-stroke"/>
<line x1="0" y1="17" x2="0" y2="18" class="lt-sld-stroke"/>
<circle cx="0" cy="0" r="17" class="lt-sld-fill"/>
<path d="M -9 0 Q -4.5 -9 0 0 T 9 0" stroke-linecap="round" class="lt-sld-stroke lt-sld-ansi-fine"/></g></g></g>
<text x="222.54945" y="53" class="lt-sld-id-side">12.47kV SUPPLY A</text>
<text x="222.54945" y="67" class="lt-sld-rating-side">12.47kV</text>
<g transform="translate(190.54945, 148)" data-type="transformer_yd" data-id="txA1"><g class="lt-sld-ansi"><style>.lt-sld-ansi .lt-sld-stroke, .lt-sld-ansi .lt-sld-fill { stroke-width: 1.4; }
.lt-sld-ansi .lt-sld-stroke-thick { stroke-width: 1.8; }
.lt-sld-ansi .lt-sld-ansi-fine { stroke-width: 1.4; }
.lt-sld-ansi .lt-sld-ansi-core { stroke-width: 1.4; }
.lt-sld-ansi .lt-sld-ansi-grid { stroke-width: 1.4; }
.lt-sld-ansi .lt-sld-ansi-hook { stroke-width: 1.4; }
.lt-sld-ansi text { dominant-baseline: auto; }
.lt-sld-ansi text[font-weight="600"] { font-weight: 600; }</style>
<line x1="0" y1="-24" x2="0" y2="-8" class="lt-sld-stroke"/>
<line x1="0" y1="8" x2="0" y2="24" class="lt-sld-stroke"/>
<path d="M -9 -5 A 3 3 0 0 1 -3 -5 A 3 3 0 0 1 3 -5 A 3 3 0 0 1 9 -5" stroke-linecap="round" class="lt-sld-stroke"/>
<path d="M -9 5 A 3 3 0 0 0 -3 5 A 3 3 0 0 0 3 5 A 3 3 0 0 0 9 5" stroke-linecap="round" class="lt-sld-stroke"/>
<path d="M -11 -1.5 L 11 -1.5 M -11 1.5 L 11 1.5" class="lt-sld-stroke lt-sld-ansi-core"/>
<path d="M -19.5 -14.5 L -16.5 -11.5 L -13.5 -14.5 M -16.5 -11.5 L -16.5 -4" stroke-linecap="round" class="lt-sld-stroke lt-sld-ansi-fine"/>
<path d="M -20.5 -4 L -12.5 -4 M -19 -2 L -14 -2 M -17.5 0 L -15.5 0" stroke-linecap="round" class="lt-sld-stroke lt-sld-ansi-fine"/>
<path d="M -16.5 3 L -13.25 8.5 L -19.75 8.5 Z" stroke-linecap="round" stroke-linejoin="round" class="lt-sld-stroke lt-sld-ansi-fine"/></g></g>
<text x="226.54945" y="145" class="lt-sld-id-side">TX-1615</text>
<text x="226.54945" y="159" class="lt-sld-rating-side">360 kVA</text>
<text x="226.54945" y="171" class="lt-sld-rating-side">12.47kV / 208Y/120V</text>
<g transform="translate(190.54945, 252)" data-type="breaker" data-id="mcbA1"><g class="lt-sld-ansi"><style>.lt-sld-ansi .lt-sld-stroke, .lt-sld-ansi .lt-sld-fill { stroke-width: 1.4; }
.lt-sld-ansi .lt-sld-stroke-thick { stroke-width: 1.8; }
.lt-sld-ansi .lt-sld-ansi-fine { stroke-width: 1.4; }
.lt-sld-ansi .lt-sld-ansi-core { stroke-width: 1.4; }
.lt-sld-ansi .lt-sld-ansi-grid { stroke-width: 1.4; }
.lt-sld-ansi .lt-sld-ansi-hook { stroke-width: 1.4; }
.lt-sld-ansi text { dominant-baseline: auto; }
.lt-sld-ansi text[font-weight="600"] { font-weight: 600; }</style>
<line x1="0" y1="-18" x2="0" y2="-14.25" class="lt-sld-stroke"/>
<line x1="0" y1="14.25" x2="0" y2="18" class="lt-sld-stroke"/>
<line x1="0" y1="14.25" x2="8.25" y2="-8.25" class="lt-sld-stroke-thick" data-sld-role="blade"/>
<circle cx="0" cy="14.25" r="2.1" class="lt-sld-dot"/>
<circle cx="0" cy="-14.25" r="2.1" class="lt-sld-dot"/>
<path d="M 8.25 -8.25 A 4.5 4.5 0 0 0 6 -13.125" stroke-linecap="round" class="lt-sld-stroke lt-sld-ansi-hook"/></g></g>
<text x="222.54945" y="249" class="lt-sld-id-side">CB-323</text>
<text x="222.54945" y="263" class="lt-sld-rating-side">ACB / 1000 A / 3P</text>
<g transform="translate(190.54945, 344)" data-type="ct" data-id="mctA1"><g class="lt-sld-ansi"><style>.lt-sld-ansi .lt-sld-stroke, .lt-sld-ansi .lt-sld-fill { stroke-width: 1.4; }
.lt-sld-ansi .lt-sld-stroke-thick { stroke-width: 1.8; }
.lt-sld-ansi .lt-sld-ansi-fine { stroke-width: 1.4; }
.lt-sld-ansi .lt-sld-ansi-core { stroke-width: 1.4; }
.lt-sld-ansi .lt-sld-ansi-grid { stroke-width: 1.4; }
.lt-sld-ansi .lt-sld-ansi-hook { stroke-width: 1.4; }
.lt-sld-ansi text { dominant-baseline: auto; }
.lt-sld-ansi text[font-weight="600"] { font-weight: 600; }</style>
<line x1="0" y1="-16" x2="0" y2="-4.05" class="lt-sld-stroke"/>
<line x1="0" y1="4.05" x2="0" y2="16" class="lt-sld-stroke"/>
<line stroke-linecap="square" class="lt-sld-stroke lt-sld-ansi-core" x1="-4.05" y1="0" x2="-9.45" y2="0"/>
<circle cx="0" cy="0" r="9" class="lt-sld-fill"/>
<text x="0" y="1.35" font-size="9" font-weight="700" text-anchor="middle" class="lt-sld-symbol-text lt-sld-wdg">CT</text></g></g>
<text x="214.54945" y="341" class="lt-sld-id-side">TA-778</text>
<text x="214.54945" y="355" class="lt-sld-rating-side">3 CTs / 1000/5 A</text>
<g transform="translate(629.7624999999999, 436)" data-type="watthour_meter" data-id="mpmA1"><g class="lt-sld-ansi"><style>.lt-sld-ansi .lt-sld-stroke, .lt-sld-ansi .lt-sld-fill { stroke-width: 1.4; }
.lt-sld-ansi .lt-sld-stroke-thick { stroke-width: 1.8; }
.lt-sld-ansi .lt-sld-ansi-fine { stroke-width: 1.4; }
.lt-sld-ansi .lt-sld-ansi-core { stroke-width: 1.4; }
.lt-sld-ansi .lt-sld-ansi-grid { stroke-width: 1.4; }
.lt-sld-ansi .lt-sld-ansi-hook { stroke-width: 1.4; }
.lt-sld-ansi text { dominant-baseline: auto; }
.lt-sld-ansi text[font-weight="600"] { font-weight: 600; }</style>
<g><line x1="0" y1="-14" x2="0" y2="-13" class="lt-sld-stroke"/>
<line x1="0" y1="13" x2="0" y2="14" class="lt-sld-stroke"/>
<circle cx="0" cy="0" r="13" class="lt-sld-fill"/>
<text x="0" y="4" font-size="9" font-weight="600" text-anchor="middle" class="lt-sld-symbol-text lt-sld-wdg">Wh</text></g></g></g>
<text x="603.5274999999999" y="466" class="lt-sld-id-side">PM-1078</text>
<text x="611.2225" y="480" class="lt-sld-rating-side">kW / kWh</text>
<line x1="305.90195" y1="436" x2="559.5274999999999" y2="436" class="lt-sld-bus" data-id="busB"/>
<text x="465.40999999999997" y="404" class="lt-sld-id-side">BUS-404</text>
<text x="465.40999999999997" y="418" class="lt-sld-id-side">208Y/120V</text>
<g transform="translate(511.5275, 56)" data-type="utility" data-id="srcB1"><g class="lt-sld-ansi"><style>.lt-sld-ansi .lt-sld-stroke, .lt-sld-ansi .lt-sld-fill { stroke-width: 1.4; }
.lt-sld-ansi .lt-sld-stroke-thick { stroke-width: 1.8; }
.lt-sld-ansi .lt-sld-ansi-fine { stroke-width: 1.4; }
.lt-sld-ansi .lt-sld-ansi-core { stroke-width: 1.4; }
.lt-sld-ansi .lt-sld-ansi-grid { stroke-width: 1.4; }
.lt-sld-ansi .lt-sld-ansi-hook { stroke-width: 1.4; }
.lt-sld-ansi text { dominant-baseline: auto; }
.lt-sld-ansi text[font-weight="600"] { font-weight: 600; }</style>
<g><line x1="0" y1="-24" x2="0" y2="-17" class="lt-sld-stroke"/>
<line x1="0" y1="17" x2="0" y2="18" class="lt-sld-stroke"/>
<circle cx="0" cy="0" r="17" class="lt-sld-fill"/>
<path d="M -9 0 Q -4.5 -9 0 0 T 9 0" stroke-linecap="round" class="lt-sld-stroke lt-sld-ansi-fine"/></g></g></g>
<text x="543.5274999999999" y="53" class="lt-sld-id-side">12.47kV SUPPLY B</text>
<text x="543.5274999999999" y="67" class="lt-sld-rating-side">12.47kV</text>
<g transform="translate(511.5275, 148)" data-type="transformer_dy" data-id="txB1"><g class="lt-sld-ansi"><style>.lt-sld-ansi .lt-sld-stroke, .lt-sld-ansi .lt-sld-fill { stroke-width: 1.4; }
.lt-sld-ansi .lt-sld-stroke-thick { stroke-width: 1.8; }
.lt-sld-ansi .lt-sld-ansi-fine { stroke-width: 1.4; }
.lt-sld-ansi .lt-sld-ansi-core { stroke-width: 1.4; }
.lt-sld-ansi .lt-sld-ansi-grid { stroke-width: 1.4; }
.lt-sld-ansi .lt-sld-ansi-hook { stroke-width: 1.4; }
.lt-sld-ansi text { dominant-baseline: auto; }
.lt-sld-ansi text[font-weight="600"] { font-weight: 600; }</style>
<line x1="0" y1="-24" x2="0" y2="-8" class="lt-sld-stroke"/>
<line x1="0" y1="8" x2="0" y2="24" class="lt-sld-stroke"/>
<path d="M -9 -5 A 3 3 0 0 1 -3 -5 A 3 3 0 0 1 3 -5 A 3 3 0 0 1 9 -5" stroke-linecap="round" class="lt-sld-stroke"/>
<path d="M -9 5 A 3 3 0 0 0 -3 5 A 3 3 0 0 0 3 5 A 3 3 0 0 0 9 5" stroke-linecap="round" class="lt-sld-stroke"/>
<path d="M -11 -1.5 L 11 -1.5 M -11 1.5 L 11 1.5" class="lt-sld-stroke lt-sld-ansi-core"/>
<path d="M -16.5 -8.5 L -13.25 -3 L -19.75 -3 Z" stroke-linejoin="round" class="lt-sld-stroke lt-sld-ansi-fine"/>
<path d="M -19.5 2.5 L -16.5 5.5 L -13.5 2.5 M -16.5 5.5 L -16.5 13" stroke-linecap="round" class="lt-sld-stroke lt-sld-ansi-fine"/>
<path d="M -20.5 13 L -12.5 13 M -19 15 L -14 15 M -17.5 17 L -15.5 17" stroke-linecap="round" class="lt-sld-stroke lt-sld-ansi-fine"/></g></g>
<text x="547.5274999999999" y="145" class="lt-sld-id-side">TX-1619</text>
<text x="547.5274999999999" y="159" class="lt-sld-rating-side">140 kVA</text>
<text x="547.5274999999999" y="171" class="lt-sld-rating-side">12.47kV / 208Y/120V</text>
<g transform="translate(511.5275, 252)" data-type="breaker" data-id="mcbB1"><g class="lt-sld-ansi"><style>.lt-sld-ansi .lt-sld-stroke, .lt-sld-ansi .lt-sld-fill { stroke-width: 1.4; }
.lt-sld-ansi .lt-sld-stroke-thick { stroke-width: 1.8; }
.lt-sld-ansi .lt-sld-ansi-fine { stroke-width: 1.4; }
.lt-sld-ansi .lt-sld-ansi-core { stroke-width: 1.4; }
.lt-sld-ansi .lt-sld-ansi-grid { stroke-width: 1.4; }
.lt-sld-ansi .lt-sld-ansi-hook { stroke-width: 1.4; }
.lt-sld-ansi text { dominant-baseline: auto; }
.lt-sld-ansi text[font-weight="600"] { font-weight: 600; }</style>
<line x1="0" y1="-18" x2="0" y2="-14.25" class="lt-sld-stroke"/>
<line x1="0" y1="14.25" x2="0" y2="18" class="lt-sld-stroke"/>
<line x1="0" y1="14.25" x2="8.25" y2="-8.25" class="lt-sld-stroke-thick" data-sld-role="blade"/>
<circle cx="0" cy="14.25" r="2.1" class="lt-sld-dot"/>
<circle cx="0" cy="-14.25" r="2.1" class="lt-sld-dot"/>
<path d="M 8.25 -8.25 A 4.5 4.5 0 0 0 6 -13.125" stroke-linecap="round" class="lt-sld-stroke lt-sld-ansi-hook"/></g></g>
<text x="543.5274999999999" y="249" class="lt-sld-id-side">CB-302</text>
<text x="543.5274999999999" y="263" class="lt-sld-rating-side">ACB / 400 A / 3P</text>
<g transform="translate(511.5275, 344)" data-type="ct" data-id="mctB1"><g class="lt-sld-ansi"><style>.lt-sld-ansi .lt-sld-stroke, .lt-sld-ansi .lt-sld-fill { stroke-width: 1.4; }
.lt-sld-ansi .lt-sld-stroke-thick { stroke-width: 1.8; }
.lt-sld-ansi .lt-sld-ansi-fine { stroke-width: 1.4; }
.lt-sld-ansi .lt-sld-ansi-core { stroke-width: 1.4; }
.lt-sld-ansi .lt-sld-ansi-grid { stroke-width: 1.4; }
.lt-sld-ansi .lt-sld-ansi-hook { stroke-width: 1.4; }
.lt-sld-ansi text { dominant-baseline: auto; }
.lt-sld-ansi text[font-weight="600"] { font-weight: 600; }</style>
<line x1="0" y1="-16" x2="0" y2="-4.05" class="lt-sld-stroke"/>
<line x1="0" y1="4.05" x2="0" y2="16" class="lt-sld-stroke"/>
<line stroke-linecap="square" class="lt-sld-stroke lt-sld-ansi-core" x1="-4.05" y1="0" x2="-9.45" y2="0"/>
<circle cx="0" cy="0" r="9" class="lt-sld-fill"/>
<text x="0" y="1.35" font-size="9" font-weight="700" text-anchor="middle" class="lt-sld-symbol-text lt-sld-wdg">CT</text></g></g>
<text x="535.5274999999999" y="341" class="lt-sld-id-side">TA-738</text>
<text x="535.5274999999999" y="355" class="lt-sld-rating-side">3 CTs / 400/5 A</text>
<g transform="translate(629.7624999999999, 436)" data-type="watthour_meter" data-id="mpmB1"><g class="lt-sld-ansi"><style>.lt-sld-ansi .lt-sld-stroke, .lt-sld-ansi .lt-sld-fill { stroke-width: 1.4; }
.lt-sld-ansi .lt-sld-stroke-thick { stroke-width: 1.8; }
.lt-sld-ansi .lt-sld-ansi-fine { stroke-width: 1.4; }
.lt-sld-ansi .lt-sld-ansi-core { stroke-width: 1.4; }
.lt-sld-ansi .lt-sld-ansi-grid { stroke-width: 1.4; }
.lt-sld-ansi .lt-sld-ansi-hook { stroke-width: 1.4; }
.lt-sld-ansi text { dominant-baseline: auto; }
.lt-sld-ansi text[font-weight="600"] { font-weight: 600; }</style>
<g><line x1="0" y1="-14" x2="0" y2="-13" class="lt-sld-stroke"/>
<line x1="0" y1="13" x2="0" y2="14" class="lt-sld-stroke"/>
<circle cx="0" cy="0" r="13" class="lt-sld-fill"/>
<text x="0" y="4" font-size="9" font-weight="600" text-anchor="middle" class="lt-sld-symbol-text lt-sld-wdg">Wh</text></g></g></g>
<text x="603.5274999999999" y="466" class="lt-sld-id-side">PM-1025</text>
<text x="611.2225" y="480" class="lt-sld-rating-side">kW / kWh</text>
<g transform="translate(281.90195, 436)" data-type="bus_tie" data-id="tie"><g class="lt-sld-ansi"><style>.lt-sld-ansi .lt-sld-stroke, .lt-sld-ansi .lt-sld-fill { stroke-width: 1.4; }
.lt-sld-ansi .lt-sld-stroke-thick { stroke-width: 1.8; }
.lt-sld-ansi .lt-sld-ansi-fine { stroke-width: 1.4; }
.lt-sld-ansi .lt-sld-ansi-core { stroke-width: 1.4; }
.lt-sld-ansi .lt-sld-ansi-grid { stroke-width: 1.4; }
.lt-sld-ansi .lt-sld-ansi-hook { stroke-width: 1.4; }
.lt-sld-ansi text { dominant-baseline: auto; }
.lt-sld-ansi text[font-weight="600"] { font-weight: 600; }</style>
<g transform="rotate(-90)"><line x1="0" y1="-18" x2="0" y2="-14.25" class="lt-sld-stroke"/>
<line x1="0" y1="14.25" x2="0" y2="18" class="lt-sld-stroke"/>
<line x1="0" y1="14.25" x2="8.25" y2="-8.25" class="lt-sld-stroke-thick" data-sld-role="blade"/>
<circle cx="0" cy="14.25" r="2.1" class="lt-sld-dot"/>
<circle cx="0" cy="-14.25" r="2.1" class="lt-sld-dot"/>
<path d="M 8.25 -8.25 A 4.5 4.5 0 0 0 6 -13.125" stroke-linecap="round" class="lt-sld-stroke lt-sld-ansi-hook"/></g></g></g>
<text x="259.51475" y="456" class="lt-sld-id-side">CB-382</text>
<text x="208.10195" y="470" class="lt-sld-rating-side">1000 A / 3P / NORMALLY OPEN /</text>
<text x="240.41195" y="482" class="lt-sld-rating-side">KEY INTERLOCKED</text>
<g transform="translate(112.3939, 564)" data-type="breaker" data-id="f1cb"><g class="lt-sld-ansi"><style>.lt-sld-ansi .lt-sld-stroke, .lt-sld-ansi .lt-sld-fill { stroke-width: 1.4; }
.lt-sld-ansi .lt-sld-stroke-thick { stroke-width: 1.8; }
.lt-sld-ansi .lt-sld-ansi-fine { stroke-width: 1.4; }
.lt-sld-ansi .lt-sld-ansi-core { stroke-width: 1.4; }
.lt-sld-ansi .lt-sld-ansi-grid { stroke-width: 1.4; }
.lt-sld-ansi .lt-sld-ansi-hook { stroke-width: 1.4; }
.lt-sld-ansi text { dominant-baseline: auto; }
.lt-sld-ansi text[font-weight="600"] { font-weight: 600; }</style>
<line x1="0" y1="-18" x2="0" y2="-14.25" class="lt-sld-stroke"/>
<line x1="0" y1="14.25" x2="0" y2="18" class="lt-sld-stroke"/>
<line x1="0" y1="14.25" x2="8.25" y2="-8.25" class="lt-sld-stroke-thick" data-sld-role="blade"/>
<circle cx="0" cy="14.25" r="2.1" class="lt-sld-dot"/>
<circle cx="0" cy="-14.25" r="2.1" class="lt-sld-dot"/>
<path d="M 8.25 -8.25 A 4.5 4.5 0 0 0 6 -13.125" stroke-linecap="round" class="lt-sld-stroke lt-sld-ansi-hook"/></g></g>
<text x="144.3939" y="561" class="lt-sld-id-side">CB-324</text>
<text x="144.3939" y="575" class="lt-sld-rating-side">MCCB / 63 A / 3P</text>
<g transform="translate(112.3939, 656)" data-type="ct" data-id="f1ct"><g class="lt-sld-ansi"><style>.lt-sld-ansi .lt-sld-stroke, .lt-sld-ansi .lt-sld-fill { stroke-width: 1.4; }
.lt-sld-ansi .lt-sld-stroke-thick { stroke-width: 1.8; }
.lt-sld-ansi .lt-sld-ansi-fine { stroke-width: 1.4; }
.lt-sld-ansi .lt-sld-ansi-core { stroke-width: 1.4; }
.lt-sld-ansi .lt-sld-ansi-grid { stroke-width: 1.4; }
.lt-sld-ansi .lt-sld-ansi-hook { stroke-width: 1.4; }
.lt-sld-ansi text { dominant-baseline: auto; }
.lt-sld-ansi text[font-weight="600"] { font-weight: 600; }</style>
<line x1="0" y1="-16" x2="0" y2="-4.05" class="lt-sld-stroke"/>
<line x1="0" y1="4.05" x2="0" y2="16" class="lt-sld-stroke"/>
<line stroke-linecap="square" class="lt-sld-stroke lt-sld-ansi-core" x1="-4.05" y1="0" x2="-9.45" y2="0"/>
<circle cx="0" cy="0" r="9" class="lt-sld-fill"/>
<text x="0" y="1.35" font-size="9" font-weight="700" text-anchor="middle" class="lt-sld-symbol-text lt-sld-wdg">CT</text></g></g>
<text x="136.3939" y="653" class="lt-sld-id-side">TA-741</text>
<text x="136.3939" y="667" class="lt-sld-rating-side">3 CTs / 63/5 A</text>
<g transform="translate(62.235, 748)" data-type="watthour_meter" data-id="f1pm"><g class="lt-sld-ansi"><style>.lt-sld-ansi .lt-sld-stroke, .lt-sld-ansi .lt-sld-fill { stroke-width: 1.4; }
.lt-sld-ansi .lt-sld-stroke-thick { stroke-width: 1.8; }
.lt-sld-ansi .lt-sld-ansi-fine { stroke-width: 1.4; }
.lt-sld-ansi .lt-sld-ansi-core { stroke-width: 1.4; }
.lt-sld-ansi .lt-sld-ansi-grid { stroke-width: 1.4; }
.lt-sld-ansi .lt-sld-ansi-hook { stroke-width: 1.4; }
.lt-sld-ansi text { dominant-baseline: auto; }
.lt-sld-ansi text[font-weight="600"] { font-weight: 600; }</style>
<g><line x1="0" y1="-14" x2="0" y2="-13" class="lt-sld-stroke"/>
<line x1="0" y1="13" x2="0" y2="14" class="lt-sld-stroke"/>
<circle cx="0" cy="0" r="13" class="lt-sld-fill"/>
<text x="0" y="4" font-size="9" font-weight="600" text-anchor="middle" class="lt-sld-symbol-text lt-sld-wdg">Wh</text></g></g></g>
<text x="36" y="778" class="lt-sld-id-side">PM-1014</text>
<text x="43.69499999999999" y="792" class="lt-sld-rating-side">kW / kWh</text>
<g transform="translate(150.47, 748)" data-type="breaker" data-id="f1l1cb"><g class="lt-sld-ansi"><style>.lt-sld-ansi .lt-sld-stroke, .lt-sld-ansi .lt-sld-fill { stroke-width: 1.4; }
.lt-sld-ansi .lt-sld-stroke-thick { stroke-width: 1.8; }
.lt-sld-ansi .lt-sld-ansi-fine { stroke-width: 1.4; }
.lt-sld-ansi .lt-sld-ansi-core { stroke-width: 1.4; }
.lt-sld-ansi .lt-sld-ansi-grid { stroke-width: 1.4; }
.lt-sld-ansi .lt-sld-ansi-hook { stroke-width: 1.4; }
.lt-sld-ansi text { dominant-baseline: auto; }
.lt-sld-ansi text[font-weight="600"] { font-weight: 600; }</style>
<line x1="0" y1="-18" x2="0" y2="-14.25" class="lt-sld-stroke"/>
<line x1="0" y1="14.25" x2="0" y2="18" class="lt-sld-stroke"/>
<line x1="0" y1="14.25" x2="8.25" y2="-8.25" class="lt-sld-stroke-thick" data-sld-role="blade"/>
<circle cx="0" cy="14.25" r="2.1" class="lt-sld-dot"/>
<circle cx="0" cy="-14.25" r="2.1" class="lt-sld-dot"/>
<path d="M 8.25 -8.25 A 4.5 4.5 0 0 0 6 -13.125" stroke-linecap="round" class="lt-sld-stroke lt-sld-ansi-hook"/></g></g>
<text x="182.47" y="745" class="lt-sld-id-side">CB-372</text>
<text x="182.47" y="759" class="lt-sld-rating-side">MCCB / 200 A / 3P</text>
<g transform="translate(150.47, 870)" data-type="vfd" data-id="f1l1drv"><g class="lt-sld-ansi"><style>.lt-sld-ansi .lt-sld-stroke, .lt-sld-ansi .lt-sld-fill { stroke-width: 1.4; }
.lt-sld-ansi .lt-sld-stroke-thick { stroke-width: 1.8; }
.lt-sld-ansi .lt-sld-ansi-fine { stroke-width: 1.4; }
.lt-sld-ansi .lt-sld-ansi-core { stroke-width: 1.4; }
.lt-sld-ansi .lt-sld-ansi-grid { stroke-width: 1.4; }
.lt-sld-ansi .lt-sld-ansi-hook { stroke-width: 1.4; }
.lt-sld-ansi text { dominant-baseline: auto; }
.lt-sld-ansi text[font-weight="600"] { font-weight: 600; }</style>
<line x1="0" y1="-18" x2="0" y2="-12" class="lt-sld-stroke"/>
<line x1="0" y1="12" x2="0" y2="18" class="lt-sld-stroke"/>
<rect x="-22.5" y="-12" width="45" height="24" class="lt-sld-fill"/>
<text x="0" y="3" font-size="11" font-weight="700" text-anchor="middle" class="lt-sld-symbol-text lt-sld-wdg">VFD</text></g></g>
<text x="188.47" y="867" class="lt-sld-id-side">DRV-878</text>
<text x="188.47" y="881" class="lt-sld-rating-side">VFD / OL</text>
<g transform="translate(150.47, 962)" data-type="motor" data-id="f1l1m"><g class="lt-sld-ansi"><style>.lt-sld-ansi .lt-sld-stroke, .lt-sld-ansi .lt-sld-fill { stroke-width: 1.4; }
.lt-sld-ansi .lt-sld-stroke-thick { stroke-width: 1.8; }
.lt-sld-ansi .lt-sld-ansi-fine { stroke-width: 1.4; }
.lt-sld-ansi .lt-sld-ansi-core { stroke-width: 1.4; }
.lt-sld-ansi .lt-sld-ansi-grid { stroke-width: 1.4; }
.lt-sld-ansi .lt-sld-ansi-hook { stroke-width: 1.4; }
.lt-sld-ansi text { dominant-baseline: auto; }
.lt-sld-ansi text[font-weight="600"] { font-weight: 600; }</style>
<g><line x1="0" y1="-16" x2="0" y2="-15" class="lt-sld-stroke"/>
<line x1="0" y1="15" x2="0" y2="22" class="lt-sld-stroke"/>
<circle cx="0" cy="0" r="15" class="lt-sld-fill"/>
<text x="0" y="5" font-size="13" font-weight="700" text-anchor="middle" class="lt-sld-symbol-text lt-sld-wdg">M</text></g></g></g>
<text x="120.38719999999999" y="1000" class="lt-sld-id-side">MTR-1115</text>
<text x="120.5" y="1014" class="lt-sld-rating-side">42 kW / PROC</text>
<g transform="translate(451.40999999999997, 564)" data-type="breaker" data-id="f2cb"><g class="lt-sld-ansi"><style>.lt-sld-ansi .lt-sld-stroke, .lt-sld-ansi .lt-sld-fill { stroke-width: 1.4; }
.lt-sld-ansi .lt-sld-stroke-thick { stroke-width: 1.8; }
.lt-sld-ansi .lt-sld-ansi-fine { stroke-width: 1.4; }
.lt-sld-ansi .lt-sld-ansi-core { stroke-width: 1.4; }
.lt-sld-ansi .lt-sld-ansi-grid { stroke-width: 1.4; }
.lt-sld-ansi .lt-sld-ansi-hook { stroke-width: 1.4; }
.lt-sld-ansi text { dominant-baseline: auto; }
.lt-sld-ansi text[font-weight="600"] { font-weight: 600; }</style>
<line x1="0" y1="-18" x2="0" y2="-14.25" class="lt-sld-stroke"/>
<line x1="0" y1="14.25" x2="0" y2="18" class="lt-sld-stroke"/>
<line x1="0" y1="14.25" x2="8.25" y2="-8.25" class="lt-sld-stroke-thick" data-sld-role="blade"/>
<circle cx="0" cy="14.25" r="2.1" class="lt-sld-dot"/>
<circle cx="0" cy="-14.25" r="2.1" class="lt-sld-dot"/>
<path d="M 8.25 -8.25 A 4.5 4.5 0 0 0 6 -13.125" stroke-linecap="round" class="lt-sld-stroke lt-sld-ansi-hook"/></g></g>
<text x="483.40999999999997" y="561" class="lt-sld-id-side">CB-396</text>
<text x="483.40999999999997" y="575" class="lt-sld-rating-side">MCCB / 63 A / 3P</text>
<g transform="translate(451.40999999999997, 656)" data-type="ct" data-id="f2ct"><g class="lt-sld-ansi"><style>.lt-sld-ansi .lt-sld-stroke, .lt-sld-ansi .lt-sld-fill { stroke-width: 1.4; }
.lt-sld-ansi .lt-sld-stroke-thick { stroke-width: 1.8; }
.lt-sld-ansi .lt-sld-ansi-fine { stroke-width: 1.4; }
.lt-sld-ansi .lt-sld-ansi-core { stroke-width: 1.4; }
.lt-sld-ansi .lt-sld-ansi-grid { stroke-width: 1.4; }
.lt-sld-ansi .lt-sld-ansi-hook { stroke-width: 1.4; }
.lt-sld-ansi text { dominant-baseline: auto; }
.lt-sld-ansi text[font-weight="600"] { font-weight: 600; }</style>
<line x1="0" y1="-16" x2="0" y2="-4.05" class="lt-sld-stroke"/>
<line x1="0" y1="4.05" x2="0" y2="16" class="lt-sld-stroke"/>
<line stroke-linecap="square" class="lt-sld-stroke lt-sld-ansi-core" x1="-4.05" y1="0" x2="-9.45" y2="0"/>
<circle cx="0" cy="0" r="9" class="lt-sld-fill"/>
<text x="0" y="1.35" font-size="9" font-weight="700" text-anchor="middle" class="lt-sld-symbol-text lt-sld-wdg">CT</text></g></g>
<text x="475.40999999999997" y="653" class="lt-sld-id-side">TA-708</text>
<text x="475.40999999999997" y="667" class="lt-sld-rating-side">3 CTs / 63/5 A</text>
<g transform="translate(544.2874999999999, 748)" data-type="watthour_meter" data-id="f2pm"><g class="lt-sld-ansi"><style>.lt-sld-ansi .lt-sld-stroke, .lt-sld-ansi .lt-sld-fill { stroke-width: 1.4; }
.lt-sld-ansi .lt-sld-stroke-thick { stroke-width: 1.8; }
.lt-sld-ansi .lt-sld-ansi-fine { stroke-width: 1.4; }
.lt-sld-ansi .lt-sld-ansi-core { stroke-width: 1.4; }
.lt-sld-ansi .lt-sld-ansi-grid { stroke-width: 1.4; }
.lt-sld-ansi .lt-sld-ansi-hook { stroke-width: 1.4; }
.lt-sld-ansi text { dominant-baseline: auto; }
.lt-sld-ansi text[font-weight="600"] { font-weight: 600; }</style>
<g><line x1="0" y1="-14" x2="0" y2="-13" class="lt-sld-stroke"/>
<line x1="0" y1="13" x2="0" y2="14" class="lt-sld-stroke"/>
<circle cx="0" cy="0" r="13" class="lt-sld-fill"/>
<text x="0" y="4" font-size="9" font-weight="600" text-anchor="middle" class="lt-sld-symbol-text lt-sld-wdg">Wh</text></g></g></g>
<text x="518.0525" y="778" class="lt-sld-id-side">PM-1033</text>
<text x="525.7475" y="792" class="lt-sld-rating-side">kW / kWh</text>
<g transform="translate(327.99, 748)" data-type="breaker" data-id="f2l1cb"><g class="lt-sld-ansi"><style>.lt-sld-ansi .lt-sld-stroke, .lt-sld-ansi .lt-sld-fill { stroke-width: 1.4; }
.lt-sld-ansi .lt-sld-stroke-thick { stroke-width: 1.8; }
.lt-sld-ansi .lt-sld-ansi-fine { stroke-width: 1.4; }
.lt-sld-ansi .lt-sld-ansi-core { stroke-width: 1.4; }
.lt-sld-ansi .lt-sld-ansi-grid { stroke-width: 1.4; }
.lt-sld-ansi .lt-sld-ansi-hook { stroke-width: 1.4; }
.lt-sld-ansi text { dominant-baseline: auto; }
.lt-sld-ansi text[font-weight="600"] { font-weight: 600; }</style>
<line x1="0" y1="-18" x2="0" y2="-14.25" class="lt-sld-stroke"/>
<line x1="0" y1="14.25" x2="0" y2="18" class="lt-sld-stroke"/>
<line x1="0" y1="14.25" x2="8.25" y2="-8.25" class="lt-sld-stroke-thick" data-sld-role="blade"/>
<circle cx="0" cy="14.25" r="2.1" class="lt-sld-dot"/>
<circle cx="0" cy="-14.25" r="2.1" class="lt-sld-dot"/>
<path d="M 8.25 -8.25 A 4.5 4.5 0 0 0 6 -13.125" stroke-linecap="round" class="lt-sld-stroke lt-sld-ansi-hook"/></g></g>
<text x="359.99" y="745" class="lt-sld-id-side">CB-315</text>
<text x="359.99" y="759" class="lt-sld-rating-side">MCCB / 100 A / 3P</text>
<g transform="translate(327.99, 870)" data-type="vfd" data-id="f2l1drv"><g class="lt-sld-ansi"><style>.lt-sld-ansi .lt-sld-stroke, .lt-sld-ansi .lt-sld-fill { stroke-width: 1.4; }
.lt-sld-ansi .lt-sld-stroke-thick { stroke-width: 1.8; }
.lt-sld-ansi .lt-sld-ansi-fine { stroke-width: 1.4; }
.lt-sld-ansi .lt-sld-ansi-core { stroke-width: 1.4; }
.lt-sld-ansi .lt-sld-ansi-grid { stroke-width: 1.4; }
.lt-sld-ansi .lt-sld-ansi-hook { stroke-width: 1.4; }
.lt-sld-ansi text { dominant-baseline: auto; }
.lt-sld-ansi text[font-weight="600"] { font-weight: 600; }</style>
<line x1="0" y1="-18" x2="0" y2="-12" class="lt-sld-stroke"/>
<line x1="0" y1="12" x2="0" y2="18" class="lt-sld-stroke"/>
<rect x="-22.5" y="-12" width="45" height="24" class="lt-sld-fill"/>
<text x="0" y="3" font-size="11" font-weight="700" text-anchor="middle" class="lt-sld-symbol-text lt-sld-wdg">VFD</text></g></g>
<text x="365.99" y="867" class="lt-sld-id-side">DRV-856</text>
<text x="365.99" y="881" class="lt-sld-rating-side">VFD / OL</text>
<g transform="translate(327.99, 962)" data-type="motor" data-id="f2l1m"><g class="lt-sld-ansi"><style>.lt-sld-ansi .lt-sld-stroke, .lt-sld-ansi .lt-sld-fill { stroke-width: 1.4; }
.lt-sld-ansi .lt-sld-stroke-thick { stroke-width: 1.8; }
.lt-sld-ansi .lt-sld-ansi-fine { stroke-width: 1.4; }
.lt-sld-ansi .lt-sld-ansi-core { stroke-width: 1.4; }
.lt-sld-ansi .lt-sld-ansi-grid { stroke-width: 1.4; }
.lt-sld-ansi .lt-sld-ansi-hook { stroke-width: 1.4; }
.lt-sld-ansi text { dominant-baseline: auto; }
.lt-sld-ansi text[font-weight="600"] { font-weight: 600; }</style>
<g><line x1="0" y1="-16" x2="0" y2="-15" class="lt-sld-stroke"/>
<line x1="0" y1="15" x2="0" y2="22" class="lt-sld-stroke"/>
<circle cx="0" cy="0" r="15" class="lt-sld-fill"/>
<text x="0" y="5" font-size="13" font-weight="700" text-anchor="middle" class="lt-sld-symbol-text lt-sld-wdg">M</text></g></g></g>
<text x="297.9072" y="1000" class="lt-sld-id-side">MTR-1163</text>
<text x="298.02" y="1014" class="lt-sld-rating-side">22 kW / PROC</text></g></svg>