<svg xmlns="http://www.w3.org/2000/svg" xmlns:xlink="http://www.w3.org/1999/xlink" class="lt-sld" role="img" aria-labelledby="lt-sld-title lt-sld-desc" width="708" height="1105" viewBox="0 0 708 1105"><title>GEN-0690 — TELECOM SITE / ELECTRICAL DISTRIBUTION</title>
<desc>Single-line diagram with 20 nodes and 19 connections</desc>
<style>.lt-sld { font-family: "Inter", "Helvetica Neue", sans-serif; }
.lt-sld-stroke { stroke: #222222; stroke-width: 1.4; fill: none; }
.lt-sld-stroke-thick { stroke: #222222; stroke-width: 1.8; fill: none; stroke-linecap: round; }
.lt-sld-fill { fill: #ffffff; stroke: #222222; stroke-width: 1.4; }
.lt-sld-fill-dark { fill: #222222; stroke: #222222; stroke-width: 1; }
.lt-sld-dot { fill: #222222; stroke: none; }
.lt-sld-wire-clearance { stroke: #ffffff; stroke-width: 5; fill: none; }
.lt-sld-control { stroke: #222222; stroke-width: 1.4; stroke-dasharray: 5 4; fill: none; }
.lt-sld-wire { stroke: #222222; stroke-width: 1.4; fill: none; }
.lt-sld-bus { stroke: #111111; stroke-width: 3; stroke-linecap: square; }
.lt-sld-title { font-size: 16px; font-weight: 700; fill: #111111; }
.lt-sld-id { font-size: 11px; font-weight: 700; fill: #111111; text-anchor: middle; }
.lt-sld-id-side { font-size: 11px; font-weight: 700; fill: #111111; text-anchor: start; }
.lt-sld-rating { font-size: 9px; fill: #555555; text-anchor: middle; }
.lt-sld-rating-side { font-size: 9px; fill: #555555; text-anchor: start; }
.lt-sld-voltage { font-size: 10px; font-weight: 700; fill: #555555; }
.lt-sld-nameplate { font-size: 9px; fill: #555555; }
.lt-sld-cable { font-size: 9px; fill: #555555; }
.lt-sld-symbol-text:not([font-size]) { font-size: 11px; }
.lt-sld-symbol-text { fill: #111111; dominant-baseline: middle; }
.lt-sld-wdg:not([font-size]) { font-size: 10px; }
.lt-sld-wdg { font-weight: 700; fill: #222222; dominant-baseline: middle; }
.lt-sld-bus-label { font-size: 11px; font-weight: 700; fill: #1d4e89; }
.lt-sld-standard-badge { font-size: 10px; font-weight: 700; fill: #555555; letter-spacing: 0.3px; }
.lt-sld-unknown-box { fill: none; stroke: #1d4e89; stroke-width: 1.6; stroke-dasharray: 5 3; }
.lt-sld-unknown-mark { font-size: 16px; font-weight: 700; fill: #1d4e89; dominant-baseline: middle; }
.lt-sld-unknown-type { font-size: 9px; font-family: monospace; fill: #555555; }</style>
<text x="20" y="22" class="lt-sld-title" data-sld-role="title">GEN-0690 — TELECOM SITE / ELECTRICAL DISTRIBUTION</text>
<g transform="translate(0, 12)"><path d="M 526.78655 74 L 526.78655 136" class="lt-sld-wire-clearance"/>
<path d="M 526.78655 74 L 526.78655 136" data-from="srcA1" data-to="txA1" class="lt-sld-wire"/>
<path d="M 526.78655 184 L 526.78655 246" class="lt-sld-wire-clearance"/>
<path d="M 526.78655 184 L 526.78655 246" data-from="txA1" data-to="mcbA1" class="lt-sld-wire"/>
<path d="M 526.78655 282 L 526.78655 340" class="lt-sld-wire-clearance"/>
<path d="M 526.78655 282 L 526.78655 340" data-from="mcbA1" data-to="mctA1" class="lt-sld-wire"/>
<path d="M 526.78655 372 L 526.78655 478" class="lt-sld-wire-clearance"/>
<path d="M 526.78655 372 L 526.78655 478" data-from="mctA1" data-to="busA" class="lt-sld-wire"/>
<path d="M 305.92575000000005 74 L 305.92575000000005 142" class="lt-sld-wire-clearance"/>
<path d="M 305.92575000000005 74 L 305.92575000000005 142" data-from="srcA2" data-to="mcbA2" class="lt-sld-wire"/>
<path d="M 305.92575000000005 178 L 305.92575000000005 248" class="lt-sld-wire-clearance"/>
<path d="M 305.92575000000005 178 L 305.92575000000005 248" data-from="mcbA2" data-to="mctA2" class="lt-sld-wire"/>
<path d="M 305.92575000000005 280 L 305.92575000000005 292 L 332.9571 292 L 332.9571 466 L 305.92575000000005 466 L 305.92575000000005 478" class="lt-sld-wire-clearance"/>
<path d="M 305.92575000000005 280 L 305.92575000000005 292 L 332.9571 292 L 332.9571 466 L 305.92575000000005 466 L 305.92575000000005 478" data-from="mctA2" data-to="busA" class="lt-sld-wire"/>
<path d="M 163.8612 478 L 163.8612 588" class="lt-sld-wire-clearance"/>
<path d="M 163.8612 478 L 163.8612 588" data-from="busA" data-to="f1cb" class="lt-sld-wire"/>
<text x="170.8612" y="555" class="lt-sld-cable">3#4 AWG</text>
<path d="M 163.8612 624 L 163.8612 682" class="lt-sld-wire-clearance"/>
<path d="M 163.8612 624 L 163.8612 682" data-from="f1cb" data-to="f1ct" class="lt-sld-wire"/>
<path d="M 163.8612 714 L 163.8612 726 L 201.9373 726 L 201.9373 772" class="lt-sld-wire-clearance"/>
<path d="M 163.8612 714 L 163.8612 726 L 201.9373 726 L 201.9373 772" data-from="f1ct" data-to="f1l1cb" class="lt-sld-wire"/>
<path d="M 201.9373 808 L 201.9373 894" class="lt-sld-wire-clearance"/>
<path d="M 201.9373 808 L 201.9373 894" data-from="f1l1cb" data-to="f1l1drv" class="lt-sld-wire"/>
<path d="M 201.9373 930 L 201.9373 988" class="lt-sld-wire-clearance"/>
<path d="M 201.9373 930 L 201.9373 988" data-from="f1l1drv" data-to="f1l1m" class="lt-sld-wire"/>
<path d="M 455.0076000000001 478 L 455.0076000000001 588" class="lt-sld-wire-clearance"/>
<path d="M 455.0076000000001 478 L 455.0076000000001 588" data-from="busA" data-to="f2cb" class="lt-sld-wire"/>
<text x="462.0076000000001" y="555" class="lt-sld-cable">3#4 AWG</text>
<path d="M 455.0076000000001 624 L 455.0076000000001 682" class="lt-sld-wire-clearance"/>
<path d="M 455.0076000000001 624 L 455.0076000000001 682" data-from="f2cb" data-to="f2ct" class="lt-sld-wire"/>
<path d="M 455.0076000000001 714 L 455.0076000000001 726 L 516.1801 726 L 516.1801 778" class="lt-sld-wire-clearance"/>
<path d="M 455.0076000000001 714 L 455.0076000000001 726 L 516.1801 726 L 516.1801 778" data-from="f2ct" data-to="f2l1ld" class="lt-sld-wire"/>
<path d="M 526.78655 372 L 526.78655 452 L 645.02155 452 L 645.02155 464" class="lt-sld-wire-clearance"/>
<path d="M 526.78655 372 L 526.78655 452 L 645.02155 452 L 645.02155 464" data-from="mctA1" data-to="mpmA1" class="lt-sld-wire" stroke-dasharray="6 4"/>
<path d="M 305.92575000000005 280 L 305.92575000000005 292 L 302.41710000000006 292 L 302.41710000000006 342" class="lt-sld-wire-clearance"/>
<path d="M 305.92575000000005 280 L 305.92575000000005 292 L 302.41710000000006 292 L 302.41710000000006 342" data-from="mctA2" data-to="mpmA2" class="lt-sld-wire" stroke-dasharray="6 4"/>
<path d="M 163.8612 714 L 163.8612 726 L 113.70230000000001 726 L 113.70230000000001 776" class="lt-sld-wire-clearance"/>
<path d="M 163.8612 714 L 163.8612 726 L 113.70230000000001 726 L 113.70230000000001 776" data-from="f1ct" data-to="f1pm" class="lt-sld-wire" stroke-dasharray="6 4"/>
<path d="M 455.0076000000001 714 L 455.0076000000001 726 L 393.83510000000007 726 L 393.83510000000007 776" class="lt-sld-wire-clearance"/>
<path d="M 455.0076000000001 714 L 455.0076000000001 726 L 393.83510000000007 726 L 393.83510000000007 776" data-from="f2ct" data-to="f2pm" class="lt-sld-wire" stroke-dasharray="6 4"/>
<circle cx="305.92575000000005" cy="292" r="2" class="lt-sld-dot"/>
<circle cx="526.78655" cy="452" r="2" class="lt-sld-dot"/>
<circle cx="163.8612" cy="726" r="2" class="lt-sld-dot"/>
<circle cx="455.0076000000001" cy="726" r="2" class="lt-sld-dot"/>
<line x1="115.86120000000001" y1="478" x2="574.78655" y2="478" class="lt-sld-bus" data-id="busA"/>
<text x="36" y="475" class="lt-sld-id-side">BUS-415</text>
<text x="36" y="489" class="lt-sld-id-side">400Y/230V</text>
<g transform="translate(526.78655, 56)" data-type="utility" data-id="srcA1"><g class="lt-sld-ansi"><style>.lt-sld-ansi .lt-sld-stroke, .lt-sld-ansi .lt-sld-fill { stroke-width: 1.4; }
.lt-sld-ansi .lt-sld-stroke-thick { stroke-width: 1.8; }
.lt-sld-ansi .lt-sld-ansi-fine { stroke-width: 1.4; }
.lt-sld-ansi .lt-sld-ansi-core { stroke-width: 1.4; }
.lt-sld-ansi .lt-sld-ansi-grid { stroke-width: 1.4; }
.lt-sld-ansi .lt-sld-ansi-hook { stroke-width: 1.4; }
.lt-sld-ansi text { dominant-baseline: auto; }
.lt-sld-ansi text[font-weight="600"] { font-weight: 600; }</style>
<g><line x1="0" y1="-24" x2="0" y2="-17" class="lt-sld-stroke"/>
<line x1="0" y1="17" x2="0" y2="18" class="lt-sld-stroke"/>
<circle cx="0" cy="0" r="17" class="lt-sld-fill"/>
<path d="M -9 0 Q -4.5 -9 0 0 T 9 0" stroke-linecap="round" class="lt-sld-stroke lt-sld-ansi-fine"/></g></g></g>
<text x="558.78655" y="53" class="lt-sld-id-side">20kV SUPPLY A</text>
<text x="558.78655" y="67" class="lt-sld-rating-side">20kV</text>
<g transform="translate(526.78655, 160)" data-type="transformer_dy" data-id="txA1"><g class="lt-sld-ansi"><style>.lt-sld-ansi .lt-sld-stroke, .lt-sld-ansi .lt-sld-fill { stroke-width: 1.4; }
.lt-sld-ansi .lt-sld-stroke-thick { stroke-width: 1.8; }
.lt-sld-ansi .lt-sld-ansi-fine { stroke-width: 1.4; }
.lt-sld-ansi .lt-sld-ansi-core { stroke-width: 1.4; }
.lt-sld-ansi .lt-sld-ansi-grid { stroke-width: 1.4; }
.lt-sld-ansi .lt-sld-ansi-hook { stroke-width: 1.4; }
.lt-sld-ansi text { dominant-baseline: auto; }
.lt-sld-ansi text[font-weight="600"] { font-weight: 600; }</style>
<line x1="0" y1="-24" x2="0" y2="-8" class="lt-sld-stroke"/>
<line x1="0" y1="8" x2="0" y2="24" class="lt-sld-stroke"/>
<path d="M -9 -5 A 3 3 0 0 1 -3 -5 A 3 3 0 0 1 3 -5 A 3 3 0 0 1 9 -5" stroke-linecap="round" class="lt-sld-stroke"/>
<path d="M -9 5 A 3 3 0 0 0 -3 5 A 3 3 0 0 0 3 5 A 3 3 0 0 0 9 5" stroke-linecap="round" class="lt-sld-stroke"/>
<path d="M -11 -1.5 L 11 -1.5 M -11 1.5 L 11 1.5" class="lt-sld-stroke lt-sld-ansi-core"/>
<path d="M -16.5 -8.5 L -13.25 -3 L -19.75 -3 Z" stroke-linejoin="round" class="lt-sld-stroke lt-sld-ansi-fine"/>
<path d="M -19.5 2.5 L -16.5 5.5 L -13.5 2.5 M -16.5 5.5 L -16.5 13" stroke-linecap="round" class="lt-sld-stroke lt-sld-ansi-fine"/>
<path d="M -20.5 13 L -12.5 13 M -19 15 L -14 15 M -17.5 17 L -15.5 17" stroke-linecap="round" class="lt-sld-stroke lt-sld-ansi-fine"/></g></g>
<text x="562.78655" y="157" class="lt-sld-id-side">TX-1667</text>
<text x="562.78655" y="171" class="lt-sld-rating-side">280 kVA</text>
<text x="562.78655" y="183" class="lt-sld-rating-side">20kV / 400Y/230V</text>
<g transform="translate(526.78655, 264)" data-type="breaker" data-id="mcbA1"><g class="lt-sld-ansi"><style>.lt-sld-ansi .lt-sld-stroke, .lt-sld-ansi .lt-sld-fill { stroke-width: 1.4; }
.lt-sld-ansi .lt-sld-stroke-thick { stroke-width: 1.8; }
.lt-sld-ansi .lt-sld-ansi-fine { stroke-width: 1.4; }
.lt-sld-ansi .lt-sld-ansi-core { stroke-width: 1.4; }
.lt-sld-ansi .lt-sld-ansi-grid { stroke-width: 1.4; }
.lt-sld-ansi .lt-sld-ansi-hook { stroke-width: 1.4; }
.lt-sld-ansi text { dominant-baseline: auto; }
.lt-sld-ansi text[font-weight="600"] { font-weight: 600; }</style>
<line x1="0" y1="-18" x2="0" y2="-14.25" class="lt-sld-stroke"/>
<line x1="0" y1="14.25" x2="0" y2="18" class="lt-sld-stroke"/>
<line x1="0" y1="14.25" x2="8.25" y2="-8.25" class="lt-sld-stroke-thick" data-sld-role="blade"/>
<circle cx="0" cy="14.25" r="2.1" class="lt-sld-dot"/>
<circle cx="0" cy="-14.25" r="2.1" class="lt-sld-dot"/>
<path d="M 8.25 -8.25 A 4.5 4.5 0 0 0 6 -13.125" stroke-linecap="round" class="lt-sld-stroke lt-sld-ansi-hook"/></g></g>
<text x="558.78655" y="261" class="lt-sld-id-side">CB-392</text>
<text x="558.78655" y="275" class="lt-sld-rating-side">MCCB / 400 A / 3P</text>
<g transform="translate(526.78655, 356)" data-type="ct" data-id="mctA1"><g class="lt-sld-ansi"><style>.lt-sld-ansi .lt-sld-stroke, .lt-sld-ansi .lt-sld-fill { stroke-width: 1.4; }
.lt-sld-ansi .lt-sld-stroke-thick { stroke-width: 1.8; }
.lt-sld-ansi .lt-sld-ansi-fine { stroke-width: 1.4; }
.lt-sld-ansi .lt-sld-ansi-core { stroke-width: 1.4; }
.lt-sld-ansi .lt-sld-ansi-grid { stroke-width: 1.4; }
.lt-sld-ansi .lt-sld-ansi-hook { stroke-width: 1.4; }
.lt-sld-ansi text { dominant-baseline: auto; }
.lt-sld-ansi text[font-weight="600"] { font-weight: 600; }</style>
<line x1="0" y1="-16" x2="0" y2="-4.05" class="lt-sld-stroke"/>
<line x1="0" y1="4.05" x2="0" y2="16" class="lt-sld-stroke"/>
<line stroke-linecap="square" class="lt-sld-stroke lt-sld-ansi-core" x1="-4.05" y1="0" x2="-9.45" y2="0"/>
<circle cx="0" cy="0" r="9" class="lt-sld-fill"/>
<text x="0" y="1.35" font-size="9" font-weight="700" text-anchor="middle" class="lt-sld-symbol-text lt-sld-wdg">CT</text></g></g>
<text x="550.78655" y="353" class="lt-sld-id-side">TA-745</text>
<text x="550.78655" y="367" class="lt-sld-rating-side">3 CTs / 400/5 A</text>
<g transform="translate(645.02155, 478)" data-type="watthour_meter" data-id="mpmA1"><g class="lt-sld-ansi"><style>.lt-sld-ansi .lt-sld-stroke, .lt-sld-ansi .lt-sld-fill { stroke-width: 1.4; }
.lt-sld-ansi .lt-sld-stroke-thick { stroke-width: 1.8; }
.lt-sld-ansi .lt-sld-ansi-fine { stroke-width: 1.4; }
.lt-sld-ansi .lt-sld-ansi-core { stroke-width: 1.4; }
.lt-sld-ansi .lt-sld-ansi-grid { stroke-width: 1.4; }
.lt-sld-ansi .lt-sld-ansi-hook { stroke-width: 1.4; }
.lt-sld-ansi text { dominant-baseline: auto; }
.lt-sld-ansi text[font-weight="600"] { font-weight: 600; }</style>
<g><line x1="0" y1="-14" x2="0" y2="-13" class="lt-sld-stroke"/>
<line x1="0" y1="13" x2="0" y2="14" class="lt-sld-stroke"/>
<circle cx="0" cy="0" r="13" class="lt-sld-fill"/>
<text x="0" y="4" font-size="9" font-weight="600" text-anchor="middle" class="lt-sld-symbol-text lt-sld-wdg">Wh</text></g></g></g>
<text x="618.78655" y="508" class="lt-sld-id-side">PM-1070</text>
<text x="626.4815500000001" y="522" class="lt-sld-rating-side">kW / kWh</text>
<g transform="translate(305.92575000000005, 56)" data-type="generator" data-id="srcA2"><g class="lt-sld-ansi"><style>.lt-sld-ansi .lt-sld-stroke, .lt-sld-ansi .lt-sld-fill { stroke-width: 1.4; }
.lt-sld-ansi .lt-sld-stroke-thick { stroke-width: 1.8; }
.lt-sld-ansi .lt-sld-ansi-fine { stroke-width: 1.4; }
.lt-sld-ansi .lt-sld-ansi-core { stroke-width: 1.4; }
.lt-sld-ansi .lt-sld-ansi-grid { stroke-width: 1.4; }
.lt-sld-ansi .lt-sld-ansi-hook { stroke-width: 1.4; }
.lt-sld-ansi text { dominant-baseline: auto; }
.lt-sld-ansi text[font-weight="600"] { font-weight: 600; }</style>
<line x1="0" y1="-24" x2="0" y2="-8.5" class="lt-sld-stroke"/>
<line x1="0" y1="8.5" x2="0" y2="18" class="lt-sld-stroke"/>
<circle cx="0" cy="0" r="12" class="lt-sld-fill"/>
<text x="0" y="-0.5" font-size="14" font-weight="700" text-anchor="middle" class="lt-sld-symbol-text lt-sld-wdg">G</text>
<path d="M -3.5 4 Q -1.75 1 0 4 T 3.5 4" stroke-linecap="round" class="lt-sld-stroke lt-sld-ansi-fine"/>
<path d="M -16.25 -4 L -13.25 -1 L -10.25 -4 M -13.25 -1 L -13.25 6.5" stroke-linecap="round" class="lt-sld-stroke lt-sld-ansi-fine"/>
<path d="M -17.25 6.5 L -9.25 6.5 M -15.75 8.5 L -10.75 8.5 M -14.25 10.5 L -12.25 10.5" stroke-linecap="round" class="lt-sld-stroke lt-sld-ansi-fine"/></g></g>
<text x="337.92575000000005" y="53" class="lt-sld-id-side">STANDBY GENERATOR</text>
<text x="337.92575000000005" y="67" class="lt-sld-rating-side">250 kW</text>
<text x="337.92575000000005" y="79" class="lt-sld-rating-side">400Y/230V</text>
<g transform="translate(305.92575000000005, 160)" data-type="breaker" data-id="mcbA2"><g class="lt-sld-ansi"><style>.lt-sld-ansi .lt-sld-stroke, .lt-sld-ansi .lt-sld-fill { stroke-width: 1.4; }
.lt-sld-ansi .lt-sld-stroke-thick { stroke-width: 1.8; }
.lt-sld-ansi .lt-sld-ansi-fine { stroke-width: 1.4; }
.lt-sld-ansi .lt-sld-ansi-core { stroke-width: 1.4; }
.lt-sld-ansi .lt-sld-ansi-grid { stroke-width: 1.4; }
.lt-sld-ansi .lt-sld-ansi-hook { stroke-width: 1.4; }
.lt-sld-ansi text { dominant-baseline: auto; }
.lt-sld-ansi text[font-weight="600"] { font-weight: 600; }</style>
<line x1="0" y1="-18" x2="0" y2="-14.25" class="lt-sld-stroke"/>
<line x1="0" y1="14.25" x2="0" y2="18" class="lt-sld-stroke"/>
<line x1="0" y1="14.25" x2="8.25" y2="-8.25" class="lt-sld-stroke-thick" data-sld-role="blade"/>
<circle cx="0" cy="14.25" r="2.1" class="lt-sld-dot"/>
<circle cx="0" cy="-14.25" r="2.1" class="lt-sld-dot"/>
<path d="M 8.25 -8.25 A 4.5 4.5 0 0 0 6 -13.125" stroke-linecap="round" class="lt-sld-stroke lt-sld-ansi-hook"/></g></g>
<text x="337.92575000000005" y="157" class="lt-sld-id-side">CB-311</text>
<text x="337.92575000000005" y="171" class="lt-sld-rating-side">MCCB / 400 A / 3P</text>
<g transform="translate(305.92575000000005, 264)" data-type="ct" data-id="mctA2"><g class="lt-sld-ansi"><style>.lt-sld-ansi .lt-sld-stroke, .lt-sld-ansi .lt-sld-fill { stroke-width: 1.4; }
.lt-sld-ansi .lt-sld-stroke-thick { stroke-width: 1.8; }
.lt-sld-ansi .lt-sld-ansi-fine { stroke-width: 1.4; }
.lt-sld-ansi .lt-sld-ansi-core { stroke-width: 1.4; }
.lt-sld-ansi .lt-sld-ansi-grid { stroke-width: 1.4; }
.lt-sld-ansi .lt-sld-ansi-hook { stroke-width: 1.4; }
.lt-sld-ansi text { dominant-baseline: auto; }
.lt-sld-ansi text[font-weight="600"] { font-weight: 600; }</style>
<line x1="0" y1="-16" x2="0" y2="-4.05" class="lt-sld-stroke"/>
<line x1="0" y1="4.05" x2="0" y2="16" class="lt-sld-stroke"/>
<line stroke-linecap="square" class="lt-sld-stroke lt-sld-ansi-core" x1="-4.05" y1="0" x2="-9.45" y2="0"/>
<circle cx="0" cy="0" r="9" class="lt-sld-fill"/>
<text x="0" y="1.35" font-size="9" font-weight="700" text-anchor="middle" class="lt-sld-symbol-text lt-sld-wdg">CT</text></g></g>
<text x="329.92575000000005" y="261" class="lt-sld-id-side">TA-701</text>
<text x="329.92575000000005" y="275" class="lt-sld-rating-side">3 CTs / 400/5 A</text>
<g transform="translate(302.41710000000006, 356)" data-type="watthour_meter" data-id="mpmA2"><g class="lt-sld-ansi"><style>.lt-sld-ansi .lt-sld-stroke, .lt-sld-ansi .lt-sld-fill { stroke-width: 1.4; }
.lt-sld-ansi .lt-sld-stroke-thick { stroke-width: 1.8; }
.lt-sld-ansi .lt-sld-ansi-fine { stroke-width: 1.4; }
.lt-sld-ansi .lt-sld-ansi-core { stroke-width: 1.4; }
.lt-sld-ansi .lt-sld-ansi-grid { stroke-width: 1.4; }
.lt-sld-ansi .lt-sld-ansi-hook { stroke-width: 1.4; }
.lt-sld-ansi text { dominant-baseline: auto; }
.lt-sld-ansi text[font-weight="600"] { font-weight: 600; }</style>
<g><line x1="0" y1="-14" x2="0" y2="-13" class="lt-sld-stroke"/>
<line x1="0" y1="13" x2="0" y2="14" class="lt-sld-stroke"/>
<circle cx="0" cy="0" r="13" class="lt-sld-fill"/>
<text x="0" y="4" font-size="9" font-weight="600" text-anchor="middle" class="lt-sld-symbol-text lt-sld-wdg">Wh</text></g></g></g>
<text x="276.18210000000005" y="386" class="lt-sld-id-side">PM-1068</text>
<text x="283.87710000000004" y="400" class="lt-sld-rating-side">kW / kWh</text>
<g transform="translate(163.8612, 606)" data-type="breaker" data-id="f1cb"><g class="lt-sld-ansi"><style>.lt-sld-ansi .lt-sld-stroke, .lt-sld-ansi .lt-sld-fill { stroke-width: 1.4; }
.lt-sld-ansi .lt-sld-stroke-thick { stroke-width: 1.8; }
.lt-sld-ansi .lt-sld-ansi-fine { stroke-width: 1.4; }
.lt-sld-ansi .lt-sld-ansi-core { stroke-width: 1.4; }
.lt-sld-ansi .lt-sld-ansi-grid { stroke-width: 1.4; }
.lt-sld-ansi .lt-sld-ansi-hook { stroke-width: 1.4; }
.lt-sld-ansi text { dominant-baseline: auto; }
.lt-sld-ansi text[font-weight="600"] { font-weight: 600; }</style>
<line x1="0" y1="-18" x2="0" y2="-14.25" class="lt-sld-stroke"/>
<line x1="0" y1="14.25" x2="0" y2="18" class="lt-sld-stroke"/>
<line x1="0" y1="14.25" x2="8.25" y2="-8.25" class="lt-sld-stroke-thick" data-sld-role="blade"/>
<circle cx="0" cy="14.25" r="2.1" class="lt-sld-dot"/>
<circle cx="0" cy="-14.25" r="2.1" class="lt-sld-dot"/>
<path d="M 8.25 -8.25 A 4.5 4.5 0 0 0 6 -13.125" stroke-linecap="round" class="lt-sld-stroke lt-sld-ansi-hook"/></g></g>
<text x="195.8612" y="603" class="lt-sld-id-side">CB-383</text>
<text x="195.8612" y="617" class="lt-sld-rating-side">MCCB / 63 A / 3P</text>
<g transform="translate(163.8612, 698)" data-type="ct" data-id="f1ct"><g class="lt-sld-ansi"><style>.lt-sld-ansi .lt-sld-stroke, .lt-sld-ansi .lt-sld-fill { stroke-width: 1.4; }
.lt-sld-ansi .lt-sld-stroke-thick { stroke-width: 1.8; }
.lt-sld-ansi .lt-sld-ansi-fine { stroke-width: 1.4; }
.lt-sld-ansi .lt-sld-ansi-core { stroke-width: 1.4; }
.lt-sld-ansi .lt-sld-ansi-grid { stroke-width: 1.4; }
.lt-sld-ansi .lt-sld-ansi-hook { stroke-width: 1.4; }
.lt-sld-ansi text { dominant-baseline: auto; }
.lt-sld-ansi text[font-weight="600"] { font-weight: 600; }</style>
<line x1="0" y1="-16" x2="0" y2="-4.05" class="lt-sld-stroke"/>
<line x1="0" y1="4.05" x2="0" y2="16" class="lt-sld-stroke"/>
<line stroke-linecap="square" class="lt-sld-stroke lt-sld-ansi-core" x1="-4.05" y1="0" x2="-9.45" y2="0"/>
<circle cx="0" cy="0" r="9" class="lt-sld-fill"/>
<text x="0" y="1.35" font-size="9" font-weight="700" text-anchor="middle" class="lt-sld-symbol-text lt-sld-wdg">CT</text></g></g>
<text x="187.8612" y="695" class="lt-sld-id-side">TA-702</text>
<text x="187.8612" y="709" class="lt-sld-rating-side">3 CTs / 63/5 A</text>
<g transform="translate(113.70230000000001, 790)" data-type="watthour_meter" data-id="f1pm"><g class="lt-sld-ansi"><style>.lt-sld-ansi .lt-sld-stroke, .lt-sld-ansi .lt-sld-fill { stroke-width: 1.4; }
.lt-sld-ansi .lt-sld-stroke-thick { stroke-width: 1.8; }
.lt-sld-ansi .lt-sld-ansi-fine { stroke-width: 1.4; }
.lt-sld-ansi .lt-sld-ansi-core { stroke-width: 1.4; }
.lt-sld-ansi .lt-sld-ansi-grid { stroke-width: 1.4; }
.lt-sld-ansi .lt-sld-ansi-hook { stroke-width: 1.4; }
.lt-sld-ansi text { dominant-baseline: auto; }
.lt-sld-ansi text[font-weight="600"] { font-weight: 600; }</style>
<g><line x1="0" y1="-14" x2="0" y2="-13" class="lt-sld-stroke"/>
<line x1="0" y1="13" x2="0" y2="14" class="lt-sld-stroke"/>
<circle cx="0" cy="0" r="13" class="lt-sld-fill"/>
<text x="0" y="4" font-size="9" font-weight="600" text-anchor="middle" class="lt-sld-symbol-text lt-sld-wdg">Wh</text></g></g></g>
<text x="87.46730000000001" y="820" class="lt-sld-id-side">PM-1096</text>
<text x="95.1623" y="834" class="lt-sld-rating-side">kW / kWh</text>
<g transform="translate(201.9373, 790)" data-type="breaker" data-id="f1l1cb"><g class="lt-sld-ansi"><style>.lt-sld-ansi .lt-sld-stroke, .lt-sld-ansi .lt-sld-fill { stroke-width: 1.4; }
.lt-sld-ansi .lt-sld-stroke-thick { stroke-width: 1.8; }
.lt-sld-ansi .lt-sld-ansi-fine { stroke-width: 1.4; }
.lt-sld-ansi .lt-sld-ansi-core { stroke-width: 1.4; }
.lt-sld-ansi .lt-sld-ansi-grid { stroke-width: 1.4; }
.lt-sld-ansi .lt-sld-ansi-hook { stroke-width: 1.4; }
.lt-sld-ansi text { dominant-baseline: auto; }
.lt-sld-ansi text[font-weight="600"] { font-weight: 600; }</style>
<line x1="0" y1="-18" x2="0" y2="-14.25" class="lt-sld-stroke"/>
<line x1="0" y1="14.25" x2="0" y2="18" class="lt-sld-stroke"/>
<line x1="0" y1="14.25" x2="8.25" y2="-8.25" class="lt-sld-stroke-thick" data-sld-role="blade"/>
<circle cx="0" cy="14.25" r="2.1" class="lt-sld-dot"/>
<circle cx="0" cy="-14.25" r="2.1" class="lt-sld-dot"/>
<path d="M 8.25 -8.25 A 4.5 4.5 0 0 0 6 -13.125" stroke-linecap="round" class="lt-sld-stroke lt-sld-ansi-hook"/></g></g>
<text x="233.9373" y="787" class="lt-sld-id-side">CB-374</text>
<text x="233.9373" y="801" class="lt-sld-rating-side">MCCB / 20 A / 3P</text>
<g transform="translate(201.9373, 912)" data-type="vfd" data-id="f1l1drv"><g class="lt-sld-ansi"><style>.lt-sld-ansi .lt-sld-stroke, .lt-sld-ansi .lt-sld-fill { stroke-width: 1.4; }
.lt-sld-ansi .lt-sld-stroke-thick { stroke-width: 1.8; }
.lt-sld-ansi .lt-sld-ansi-fine { stroke-width: 1.4; }
.lt-sld-ansi .lt-sld-ansi-core { stroke-width: 1.4; }
.lt-sld-ansi .lt-sld-ansi-grid { stroke-width: 1.4; }
.lt-sld-ansi .lt-sld-ansi-hook { stroke-width: 1.4; }
.lt-sld-ansi text { dominant-baseline: auto; }
.lt-sld-ansi text[font-weight="600"] { font-weight: 600; }</style>
<line x1="0" y1="-18" x2="0" y2="-12" class="lt-sld-stroke"/>
<line x1="0" y1="12" x2="0" y2="18" class="lt-sld-stroke"/>
<rect x="-22.5" y="-12" width="45" height="24" class="lt-sld-fill"/>
<text x="0" y="3" font-size="11" font-weight="700" text-anchor="middle" class="lt-sld-symbol-text lt-sld-wdg">VFD</text></g></g>
<text x="239.9373" y="909" class="lt-sld-id-side">DRV-814</text>
<text x="239.9373" y="923" class="lt-sld-rating-side">VFD / OL</text>
<g transform="translate(201.9373, 1004)" data-type="motor" data-id="f1l1m"><g class="lt-sld-ansi"><style>.lt-sld-ansi .lt-sld-stroke, .lt-sld-ansi .lt-sld-fill { stroke-width: 1.4; }
.lt-sld-ansi .lt-sld-stroke-thick { stroke-width: 1.8; }
.lt-sld-ansi .lt-sld-ansi-fine { stroke-width: 1.4; }
.lt-sld-ansi .lt-sld-ansi-core { stroke-width: 1.4; }
.lt-sld-ansi .lt-sld-ansi-grid { stroke-width: 1.4; }
.lt-sld-ansi .lt-sld-ansi-hook { stroke-width: 1.4; }
.lt-sld-ansi text { dominant-baseline: auto; }
.lt-sld-ansi text[font-weight="600"] { font-weight: 600; }</style>
<g><line x1="0" y1="-16" x2="0" y2="-15" class="lt-sld-stroke"/>
<line x1="0" y1="15" x2="0" y2="22" class="lt-sld-stroke"/>
<circle cx="0" cy="0" r="15" class="lt-sld-fill"/>
<text x="0" y="5" font-size="13" font-weight="700" text-anchor="middle" class="lt-sld-symbol-text lt-sld-wdg">M</text></g></g></g>
<text x="171.8545" y="1042" class="lt-sld-id-side">MTR-1102</text>
<text x="174.9373" y="1056" class="lt-sld-rating-side">8 kW / CRAC</text>
<g transform="translate(455.0076000000001, 606)" data-type="breaker" data-id="f2cb"><g class="lt-sld-ansi"><style>.lt-sld-ansi .lt-sld-stroke, .lt-sld-ansi .lt-sld-fill { stroke-width: 1.4; }
.lt-sld-ansi .lt-sld-stroke-thick { stroke-width: 1.8; }
.lt-sld-ansi .lt-sld-ansi-fine { stroke-width: 1.4; }
.lt-sld-ansi .lt-sld-ansi-core { stroke-width: 1.4; }
.lt-sld-ansi .lt-sld-ansi-grid { stroke-width: 1.4; }
.lt-sld-ansi .lt-sld-ansi-hook { stroke-width: 1.4; }
.lt-sld-ansi text { dominant-baseline: auto; }
.lt-sld-ansi text[font-weight="600"] { font-weight: 600; }</style>
<line x1="0" y1="-18" x2="0" y2="-14.25" class="lt-sld-stroke"/>
<line x1="0" y1="14.25" x2="0" y2="18" class="lt-sld-stroke"/>
<line x1="0" y1="14.25" x2="8.25" y2="-8.25" class="lt-sld-stroke-thick" data-sld-role="blade"/>
<circle cx="0" cy="14.25" r="2.1" class="lt-sld-dot"/>
<circle cx="0" cy="-14.25" r="2.1" class="lt-sld-dot"/>
<path d="M 8.25 -8.25 A 4.5 4.5 0 0 0 6 -13.125" stroke-linecap="round" class="lt-sld-stroke lt-sld-ansi-hook"/></g></g>
<text x="487.0076000000001" y="603" class="lt-sld-id-side">CB-397</text>
<text x="487.0076000000001" y="617" class="lt-sld-rating-side">MCCB / 63 A / 3P</text>
<g transform="translate(455.0076000000001, 698)" data-type="ct" data-id="f2ct"><g class="lt-sld-ansi"><style>.lt-sld-ansi .lt-sld-stroke, .lt-sld-ansi .lt-sld-fill { stroke-width: 1.4; }
.lt-sld-ansi .lt-sld-stroke-thick { stroke-width: 1.8; }
.lt-sld-ansi .lt-sld-ansi-fine { stroke-width: 1.4; }
.lt-sld-ansi .lt-sld-ansi-core { stroke-width: 1.4; }
.lt-sld-ansi .lt-sld-ansi-grid { stroke-width: 1.4; }
.lt-sld-ansi .lt-sld-ansi-hook { stroke-width: 1.4; }
.lt-sld-ansi text { dominant-baseline: auto; }
.lt-sld-ansi text[font-weight="600"] { font-weight: 600; }</style>
<line x1="0" y1="-16" x2="0" y2="-4.05" class="lt-sld-stroke"/>
<line x1="0" y1="4.05" x2="0" y2="16" class="lt-sld-stroke"/>
<line stroke-linecap="square" class="lt-sld-stroke lt-sld-ansi-core" x1="-4.05" y1="0" x2="-9.45" y2="0"/>
<circle cx="0" cy="0" r="9" class="lt-sld-fill"/>
<text x="0" y="1.35" font-size="9" font-weight="700" text-anchor="middle" class="lt-sld-symbol-text lt-sld-wdg">CT</text></g></g>
<text x="479.0076000000001" y="695" class="lt-sld-id-side">TA-717</text>
<text x="479.0076000000001" y="709" class="lt-sld-rating-side">3 CTs / 63/5 A</text>
<g transform="translate(393.83510000000007, 790)" data-type="watthour_meter" data-id="f2pm"><g class="lt-sld-ansi"><style>.lt-sld-ansi .lt-sld-stroke, .lt-sld-ansi .lt-sld-fill { stroke-width: 1.4; }
.lt-sld-ansi .lt-sld-stroke-thick { stroke-width: 1.8; }
.lt-sld-ansi .lt-sld-ansi-fine { stroke-width: 1.4; }
.lt-sld-ansi .lt-sld-ansi-core { stroke-width: 1.4; }
.lt-sld-ansi .lt-sld-ansi-grid { stroke-width: 1.4; }
.lt-sld-ansi .lt-sld-ansi-hook { stroke-width: 1.4; }
.lt-sld-ansi text { dominant-baseline: auto; }
.lt-sld-ansi text[font-weight="600"] { font-weight: 600; }</style>
<g><line x1="0" y1="-14" x2="0" y2="-13" class="lt-sld-stroke"/>
<line x1="0" y1="13" x2="0" y2="14" class="lt-sld-stroke"/>
<circle cx="0" cy="0" r="13" class="lt-sld-fill"/>
<text x="0" y="4" font-size="9" font-weight="600" text-anchor="middle" class="lt-sld-symbol-text lt-sld-wdg">Wh</text></g></g></g>
<text x="367.60010000000005" y="820" class="lt-sld-id-side">PM-1064</text>
<text x="375.29510000000005" y="834" class="lt-sld-rating-side">kW / kWh</text>
<g transform="translate(516.1801, 790)" data-type="load" data-id="f2l1ld"><g class="lt-sld-ansi"><style>.lt-sld-ansi .lt-sld-stroke, .lt-sld-ansi .lt-sld-fill { stroke-width: 1.4; }
.lt-sld-ansi .lt-sld-stroke-thick { stroke-width: 1.8; }
.lt-sld-ansi .lt-sld-ansi-fine { stroke-width: 1.4; }
.lt-sld-ansi .lt-sld-ansi-core { stroke-width: 1.4; }
.lt-sld-ansi .lt-sld-ansi-grid { stroke-width: 1.4; }
.lt-sld-ansi .lt-sld-ansi-hook { stroke-width: 1.4; }
.lt-sld-ansi text { dominant-baseline: auto; }
.lt-sld-ansi text[font-weight="600"] { font-weight: 600; }</style>
<line x1="0" y1="-12" x2="0" y2="-10.4" class="lt-sld-stroke"/>
<line x1="0" y1="10.4" x2="0" y2="12" class="lt-sld-stroke"/>
<path d="M -11.2 -10.4 L 11.2 -10.4 L 0 10.4 Z" stroke-linejoin="miter" class="lt-sld-fill"/></g></g>
<text x="486.0973000000001" y="818" class="lt-sld-id-side">PNL-1450</text>
<text x="464.0701000000001" y="832" class="lt-sld-rating-side">RECTIFIER PDU / 20 kW</text></g></svg>