<svg xmlns="http://www.w3.org/2000/svg" xmlns:xlink="http://www.w3.org/1999/xlink" class="lt-sld" role="img" aria-labelledby="lt-sld-title lt-sld-desc" width="935" height="991" viewBox="0 0 935 991"><title>GEN-0149 — PRIMARY SUBSTATION / DISTRIBUTION FEEDER BAY</title>
<desc>Single-line diagram with 22 nodes and 21 connections</desc>
<style>.lt-sld { font-family: "Inter", "Helvetica Neue", sans-serif; }
.lt-sld-stroke { stroke: #222222; stroke-width: 1.4; fill: none; }
.lt-sld-stroke-thick { stroke: #222222; stroke-width: 1.8; fill: none; stroke-linecap: round; }
.lt-sld-fill { fill: #ffffff; stroke: #222222; stroke-width: 1.4; }
.lt-sld-fill-dark { fill: #222222; stroke: #222222; stroke-width: 1; }
.lt-sld-dot { fill: #222222; stroke: none; }
.lt-sld-wire-clearance { stroke: #ffffff; stroke-width: 5; fill: none; }
.lt-sld-control { stroke: #222222; stroke-width: 1.4; stroke-dasharray: 5 4; fill: none; }
.lt-sld-wire { stroke: #222222; stroke-width: 1.4; fill: none; }
.lt-sld-bus { stroke: #111111; stroke-width: 3; stroke-linecap: square; }
.lt-sld-title { font-size: 16px; font-weight: 700; fill: #111111; }
.lt-sld-id { font-size: 11px; font-weight: 700; fill: #111111; text-anchor: middle; }
.lt-sld-id-side { font-size: 11px; font-weight: 700; fill: #111111; text-anchor: start; }
.lt-sld-rating { font-size: 9px; fill: #555555; text-anchor: middle; }
.lt-sld-rating-side { font-size: 9px; fill: #555555; text-anchor: start; }
.lt-sld-voltage { font-size: 10px; font-weight: 700; fill: #555555; }
.lt-sld-nameplate { font-size: 9px; fill: #555555; }
.lt-sld-cable { font-size: 9px; fill: #555555; }
.lt-sld-symbol-text:not([font-size]) { font-size: 11px; }
.lt-sld-symbol-text { fill: #111111; dominant-baseline: middle; }
.lt-sld-wdg:not([font-size]) { font-size: 10px; }
.lt-sld-wdg { font-weight: 700; fill: #222222; dominant-baseline: middle; }
.lt-sld-bus-label { font-size: 11px; font-weight: 700; fill: #1d4e89; }
.lt-sld-standard-badge { font-size: 10px; font-weight: 700; fill: #555555; letter-spacing: 0.3px; }
.lt-sld-unknown-box { fill: none; stroke: #1d4e89; stroke-width: 1.6; stroke-dasharray: 5 3; }
.lt-sld-unknown-mark { font-size: 16px; font-weight: 700; fill: #1d4e89; dominant-baseline: middle; }
.lt-sld-unknown-type { font-size: 9px; font-family: monospace; fill: #555555; }</style>
<text x="20" y="22" class="lt-sld-title" data-sld-role="title">GEN-0149 — PRIMARY SUBSTATION / DISTRIBUTION FEEDER BAY</text>
<g transform="translate(0, 12)"><path d="M 211.14625 74 L 211.14625 86 L 62.235 86 L 62.235 132" class="lt-sld-wire-clearance"/>
<path d="M 211.14625 74 L 211.14625 86 L 62.235 86 L 62.235 132" data-from="srcA1" data-to="laA1" class="lt-sld-wire"/>
<path d="M 211.14625 74 L 211.14625 86 L 360.0575 86 L 360.0575 124" class="lt-sld-wire-clearance"/>
<path d="M 211.14625 74 L 211.14625 86 L 360.0575 86 L 360.0575 124" data-from="srcA1" data-to="txA1" class="lt-sld-wire"/>
<path d="M 360.0575 172 L 360.0575 264" class="lt-sld-wire-clearance"/>
<path d="M 360.0575 172 L 360.0575 264" data-from="txA1" data-to="mcbA1" class="lt-sld-wire"/>
<path d="M 360.0575 300 L 360.0575 358" class="lt-sld-wire-clearance"/>
<path d="M 360.0575 300 L 360.0575 358" data-from="mcbA1" data-to="mctA1" class="lt-sld-wire"/>
<path d="M 360.0575 390 L 360.0575 466" class="lt-sld-wire-clearance"/>
<path d="M 360.0575 390 L 360.0575 466" data-from="mctA1" data-to="busA" class="lt-sld-wire"/>
<path d="M 148.48309999999992 466 L 148.48309999999992 576" class="lt-sld-wire-clearance"/>
<path d="M 148.48309999999992 466 L 148.48309999999992 576" data-from="busA" data-to="f1cb" class="lt-sld-wire"/>
<text x="155.48309999999992" y="543" class="lt-sld-cable">3#2/0 AWG</text>
<path d="M 148.48309999999992 612 L 148.48309999999992 670" class="lt-sld-wire-clearance"/>
<path d="M 148.48309999999992 612 L 148.48309999999992 670" data-from="f1cb" data-to="f1ct" class="lt-sld-wire"/>
<path d="M 148.48309999999992 702 L 148.48309999999992 714 L 209.6005999999999 714 L 209.6005999999999 758" class="lt-sld-wire-clearance"/>
<path d="M 148.48309999999992 702 L 148.48309999999992 714 L 209.6005999999999 714 L 209.6005999999999 758" data-from="f1ct" data-to="f1pnl" class="lt-sld-wire"/>
<path d="M 209.6005999999999 798 L 209.6005999999999 810 L 119.18059999999991 810 L 119.18059999999991 888" class="lt-sld-wire-clearance"/>
<path d="M 209.6005999999999 798 L 209.6005999999999 810 L 119.18059999999991 810 L 119.18059999999991 888" data-from="f1pnl" data-to="f1l1ld" class="lt-sld-wire"/>
<path d="M 209.6005999999999 798 L 209.6005999999999 810 L 292.60059999999993 810 L 292.60059999999993 888" class="lt-sld-wire-clearance"/>
<path d="M 209.6005999999999 798 L 209.6005999999999 810 L 292.60059999999993 810 L 292.60059999999993 888" data-from="f1pnl" data-to="f1l2ld" class="lt-sld-wire"/>
<path d="M 462.8975 466 L 462.8975 576" class="lt-sld-wire-clearance"/>
<path d="M 462.8975 466 L 462.8975 576" data-from="busA" data-to="f2cb" class="lt-sld-wire"/>
<text x="469.8975" y="543" class="lt-sld-cable">3#4 AWG</text>
<path d="M 462.8975 612 L 462.8975 670" class="lt-sld-wire-clearance"/>
<path d="M 462.8975 612 L 462.8975 670" data-from="f2cb" data-to="f2ct" class="lt-sld-wire"/>
<path d="M 462.8975 702 L 462.8975 714 L 486.84499999999997 714 L 486.84499999999997 760" class="lt-sld-wire-clearance"/>
<path d="M 462.8975 702 L 462.8975 714 L 486.84499999999997 714 L 486.84499999999997 760" data-from="f2ct" data-to="f2pr" class="lt-sld-wire"/>
<path d="M 486.84499999999997 796 L 486.84499999999997 888" class="lt-sld-wire-clearance"/>
<path d="M 486.84499999999997 796 L 486.84499999999997 888" data-from="f2pr" data-to="f2l1ld" class="lt-sld-wire"/>
<path d="M 754.3369 466 L 754.3369 576" class="lt-sld-wire-clearance"/>
<path d="M 754.3369 466 L 754.3369 576" data-from="busA" data-to="f3cb" class="lt-sld-wire"/>
<text x="761.3369" y="543" class="lt-sld-cable">3#4 AWG</text>
<path d="M 754.3369 612 L 754.3369 670" class="lt-sld-wire-clearance"/>
<path d="M 754.3369 612 L 754.3369 670" data-from="f3cb" data-to="f3ct" class="lt-sld-wire"/>
<path d="M 754.3369 702 L 754.3369 714 L 818.4794000000002 714 L 818.4794000000002 766" class="lt-sld-wire-clearance"/>
<path d="M 754.3369 702 L 754.3369 714 L 818.4794000000002 714 L 818.4794000000002 766" data-from="f3ct" data-to="f3l1ld" class="lt-sld-wire"/>
<path d="M 360.0575 390 L 360.0575 440 L 872.5719 440 L 872.5719 452" class="lt-sld-wire-clearance"/>
<path d="M 360.0575 390 L 360.0575 440 L 872.5719 440 L 872.5719 452" data-from="mctA1" data-to="mpmA1" class="lt-sld-wire" stroke-dasharray="6 4"/>
<path d="M 148.48309999999992 702 L 148.48309999999992 714 L 87.3655999999999 714 L 87.3655999999999 764" class="lt-sld-wire-clearance"/>
<path d="M 148.48309999999992 702 L 148.48309999999992 714 L 87.3655999999999 714 L 87.3655999999999 764" data-from="f1ct" data-to="f1pm" class="lt-sld-wire" stroke-dasharray="6 4"/>
<path d="M 462.8975 702 L 462.8975 714 L 390.60999999999996 714 L 390.60999999999996 764" class="lt-sld-wire-clearance"/>
<path d="M 462.8975 702 L 462.8975 714 L 390.60999999999996 714 L 390.60999999999996 764" data-from="f2ct" data-to="f2pm" class="lt-sld-wire" stroke-dasharray="6 4"/>
<path d="M 754.3369 702 L 754.3369 714 L 690.1944000000001 714 L 690.1944000000001 764" class="lt-sld-wire-clearance"/>
<path d="M 754.3369 702 L 754.3369 714 L 690.1944000000001 714 L 690.1944000000001 764" data-from="f3ct" data-to="f3pm" class="lt-sld-wire" stroke-dasharray="6 4"/>
<circle cx="211.14625" cy="86" r="2" class="lt-sld-dot"/>
<circle cx="360.0575" cy="440" r="2" class="lt-sld-dot"/>
<circle cx="148.48309999999992" cy="714" r="2" class="lt-sld-dot"/>
<circle cx="209.6005999999999" cy="810" r="2" class="lt-sld-dot"/>
<circle cx="462.8975" cy="714" r="2" class="lt-sld-dot"/>
<circle cx="754.3369" cy="714" r="2" class="lt-sld-dot"/>
<line x1="100.48309999999991" y1="466" x2="802.3369" y2="466" class="lt-sld-bus" data-id="busA"/>
<text x="36.0130999999999" y="463" class="lt-sld-id-side">BUS-428</text>
<text x="36.0130999999999" y="477" class="lt-sld-id-side">13.8kV</text>
<g transform="translate(211.14625, 56)" data-type="utility" data-id="srcA1"><g class="lt-sld-ansi"><style>.lt-sld-ansi .lt-sld-stroke, .lt-sld-ansi .lt-sld-fill { stroke-width: 1.4; }
.lt-sld-ansi .lt-sld-stroke-thick { stroke-width: 1.8; }
.lt-sld-ansi .lt-sld-ansi-fine { stroke-width: 1.4; }
.lt-sld-ansi .lt-sld-ansi-core { stroke-width: 1.4; }
.lt-sld-ansi .lt-sld-ansi-grid { stroke-width: 1.4; }
.lt-sld-ansi .lt-sld-ansi-hook { stroke-width: 1.4; }
.lt-sld-ansi text { dominant-baseline: auto; }
.lt-sld-ansi text[font-weight="600"] { font-weight: 600; }</style>
<g><line x1="0" y1="-24" x2="0" y2="-17" class="lt-sld-stroke"/>
<line x1="0" y1="17" x2="0" y2="18" class="lt-sld-stroke"/>
<circle cx="0" cy="0" r="17" class="lt-sld-fill"/>
<path d="M -9 0 Q -4.5 -9 0 0 T 9 0" stroke-linecap="round" class="lt-sld-stroke lt-sld-ansi-fine"/></g></g></g>
<text x="243.14625" y="53" class="lt-sld-id-side">138kV SUPPLY A</text>
<text x="243.14625" y="67" class="lt-sld-rating-side">138kV</text>
<g transform="translate(62.235, 148)" data-type="surge_arrester" data-id="laA1"><g class="lt-sld-ansi"><style>.lt-sld-ansi .lt-sld-stroke, .lt-sld-ansi .lt-sld-fill { stroke-width: 1.4; }
.lt-sld-ansi .lt-sld-stroke-thick { stroke-width: 1.8; }
.lt-sld-ansi .lt-sld-ansi-fine { stroke-width: 1.4; }
.lt-sld-ansi .lt-sld-ansi-core { stroke-width: 1.4; }
.lt-sld-ansi .lt-sld-ansi-grid { stroke-width: 1.4; }
.lt-sld-ansi .lt-sld-ansi-hook { stroke-width: 1.4; }
.lt-sld-ansi text { dominant-baseline: auto; }
.lt-sld-ansi text[font-weight="600"] { font-weight: 600; }</style>
<line x1="0" y1="-16" x2="0" y2="-11.2" class="lt-sld-stroke"/>
<line x1="0" y1="24" x2="0" y2="26" class="lt-sld-stroke"/>
<line stroke-linecap="square" class="lt-sld-stroke" x1="0" y1="11.2" x2="0" y2="17.6"/>
<rect x="-8" y="-11.2" width="16" height="22.4" class="lt-sld-fill"/>
<path d="M 0 -11.2 L 0 -7.2 M -4 -7.2 L 4 -7.2 L 0 -1.6 Z M -4 7.2 L 4 7.2 L 0 1.6 Z M 0 7.2 L 0 11.2" stroke-linecap="round" stroke-linejoin="round" class="lt-sld-stroke lt-sld-ansi-fine"/>
<path d="M -6.4 17.6 L 6.4 17.6 M -4 20.8 L 4 20.8 M -1.6 24 L 1.6 24" stroke-linecap="round" class="lt-sld-stroke lt-sld-ansi-fine"/></g></g>
<text x="36" y="190" class="lt-sld-id-side">LA-1227</text>
<text x="47.925000000000004" y="204" class="lt-sld-rating-side">138kV</text>
<g transform="translate(360.0575, 148)" data-type="transformer_yd" data-id="txA1"><g class="lt-sld-ansi"><style>.lt-sld-ansi .lt-sld-stroke, .lt-sld-ansi .lt-sld-fill { stroke-width: 1.4; }
.lt-sld-ansi .lt-sld-stroke-thick { stroke-width: 1.8; }
.lt-sld-ansi .lt-sld-ansi-fine { stroke-width: 1.4; }
.lt-sld-ansi .lt-sld-ansi-core { stroke-width: 1.4; }
.lt-sld-ansi .lt-sld-ansi-grid { stroke-width: 1.4; }
.lt-sld-ansi .lt-sld-ansi-hook { stroke-width: 1.4; }
.lt-sld-ansi text { dominant-baseline: auto; }
.lt-sld-ansi text[font-weight="600"] { font-weight: 600; }</style>
<line x1="0" y1="-24" x2="0" y2="-8" class="lt-sld-stroke"/>
<line x1="0" y1="8" x2="0" y2="24" class="lt-sld-stroke"/>
<path d="M -9 -5 A 3 3 0 0 1 -3 -5 A 3 3 0 0 1 3 -5 A 3 3 0 0 1 9 -5" stroke-linecap="round" class="lt-sld-stroke"/>
<path d="M -9 5 A 3 3 0 0 0 -3 5 A 3 3 0 0 0 3 5 A 3 3 0 0 0 9 5" stroke-linecap="round" class="lt-sld-stroke"/>
<path d="M -11 -1.5 L 11 -1.5 M -11 1.5 L 11 1.5" class="lt-sld-stroke lt-sld-ansi-core"/>
<path d="M -19.5 -14.5 L -16.5 -11.5 L -13.5 -14.5 M -16.5 -11.5 L -16.5 -4" stroke-linecap="round" class="lt-sld-stroke lt-sld-ansi-fine"/>
<path d="M -20.5 -4 L -12.5 -4 M -19 -2 L -14 -2 M -17.5 0 L -15.5 0" stroke-linecap="round" class="lt-sld-stroke lt-sld-ansi-fine"/>
<path d="M -16.5 3 L -13.25 8.5 L -19.75 8.5 Z" stroke-linecap="round" stroke-linejoin="round" class="lt-sld-stroke lt-sld-ansi-fine"/></g></g>
<text x="396.0575" y="145" class="lt-sld-id-side">TX-1655</text>
<text x="396.0575" y="159" class="lt-sld-rating-side">47800 kVA</text>
<text x="396.0575" y="171" class="lt-sld-rating-side">138kV / 13.8kV</text>
<g transform="translate(360.0575, 282)" data-type="breaker" data-id="mcbA1"><g class="lt-sld-ansi"><style>.lt-sld-ansi .lt-sld-stroke, .lt-sld-ansi .lt-sld-fill { stroke-width: 1.4; }
.lt-sld-ansi .lt-sld-stroke-thick { stroke-width: 1.8; }
.lt-sld-ansi .lt-sld-ansi-fine { stroke-width: 1.4; }
.lt-sld-ansi .lt-sld-ansi-core { stroke-width: 1.4; }
.lt-sld-ansi .lt-sld-ansi-grid { stroke-width: 1.4; }
.lt-sld-ansi .lt-sld-ansi-hook { stroke-width: 1.4; }
.lt-sld-ansi text { dominant-baseline: auto; }
.lt-sld-ansi text[font-weight="600"] { font-weight: 600; }</style>
<line x1="0" y1="-18" x2="0" y2="-14.25" class="lt-sld-stroke"/>
<line x1="0" y1="14.25" x2="0" y2="18" class="lt-sld-stroke"/>
<line x1="0" y1="14.25" x2="8.25" y2="-8.25" class="lt-sld-stroke-thick" data-sld-role="blade"/>
<circle cx="0" cy="14.25" r="2.1" class="lt-sld-dot"/>
<circle cx="0" cy="-14.25" r="2.1" class="lt-sld-dot"/>
<path d="M 8.25 -8.25 A 4.5 4.5 0 0 0 6 -13.125" stroke-linecap="round" class="lt-sld-stroke lt-sld-ansi-hook"/></g></g>
<text x="392.0575" y="279" class="lt-sld-id-side">CB-305</text>
<text x="392.0575" y="293" class="lt-sld-rating-side">ACB / 2000 A / 3P</text>
<g transform="translate(360.0575, 374)" data-type="ct" data-id="mctA1"><g class="lt-sld-ansi"><style>.lt-sld-ansi .lt-sld-stroke, .lt-sld-ansi .lt-sld-fill { stroke-width: 1.4; }
.lt-sld-ansi .lt-sld-stroke-thick { stroke-width: 1.8; }
.lt-sld-ansi .lt-sld-ansi-fine { stroke-width: 1.4; }
.lt-sld-ansi .lt-sld-ansi-core { stroke-width: 1.4; }
.lt-sld-ansi .lt-sld-ansi-grid { stroke-width: 1.4; }
.lt-sld-ansi .lt-sld-ansi-hook { stroke-width: 1.4; }
.lt-sld-ansi text { dominant-baseline: auto; }
.lt-sld-ansi text[font-weight="600"] { font-weight: 600; }</style>
<line x1="0" y1="-16" x2="0" y2="-4.05" class="lt-sld-stroke"/>
<line x1="0" y1="4.05" x2="0" y2="16" class="lt-sld-stroke"/>
<line stroke-linecap="square" class="lt-sld-stroke lt-sld-ansi-core" x1="-4.05" y1="0" x2="-9.45" y2="0"/>
<circle cx="0" cy="0" r="9" class="lt-sld-fill"/>
<text x="0" y="1.35" font-size="9" font-weight="700" text-anchor="middle" class="lt-sld-symbol-text lt-sld-wdg">CT</text></g></g>
<text x="384.0575" y="371" class="lt-sld-id-side">TA-759</text>
<text x="384.0575" y="385" class="lt-sld-rating-side">3 CTs / 2000/5 A</text>
<g transform="translate(872.5719, 466)" data-type="watthour_meter" data-id="mpmA1"><g class="lt-sld-ansi"><style>.lt-sld-ansi .lt-sld-stroke, .lt-sld-ansi .lt-sld-fill { stroke-width: 1.4; }
.lt-sld-ansi .lt-sld-stroke-thick { stroke-width: 1.8; }
.lt-sld-ansi .lt-sld-ansi-fine { stroke-width: 1.4; }
.lt-sld-ansi .lt-sld-ansi-core { stroke-width: 1.4; }
.lt-sld-ansi .lt-sld-ansi-grid { stroke-width: 1.4; }
.lt-sld-ansi .lt-sld-ansi-hook { stroke-width: 1.4; }
.lt-sld-ansi text { dominant-baseline: auto; }
.lt-sld-ansi text[font-weight="600"] { font-weight: 600; }</style>
<g><line x1="0" y1="-14" x2="0" y2="-13" class="lt-sld-stroke"/>
<line x1="0" y1="13" x2="0" y2="14" class="lt-sld-stroke"/>
<circle cx="0" cy="0" r="13" class="lt-sld-fill"/>
<text x="0" y="4" font-size="9" font-weight="600" text-anchor="middle" class="lt-sld-symbol-text lt-sld-wdg">Wh</text></g></g></g>
<text x="846.3369" y="496" class="lt-sld-id-side">PM-1000</text>
<text x="854.0319000000001" y="510" class="lt-sld-rating-side">kW / kWh</text>
<g transform="translate(148.48309999999992, 594)" data-type="breaker" data-id="f1cb"><g class="lt-sld-ansi"><style>.lt-sld-ansi .lt-sld-stroke, .lt-sld-ansi .lt-sld-fill { stroke-width: 1.4; }
.lt-sld-ansi .lt-sld-stroke-thick { stroke-width: 1.8; }
.lt-sld-ansi .lt-sld-ansi-fine { stroke-width: 1.4; }
.lt-sld-ansi .lt-sld-ansi-core { stroke-width: 1.4; }
.lt-sld-ansi .lt-sld-ansi-grid { stroke-width: 1.4; }
.lt-sld-ansi .lt-sld-ansi-hook { stroke-width: 1.4; }
.lt-sld-ansi text { dominant-baseline: auto; }
.lt-sld-ansi text[font-weight="600"] { font-weight: 600; }</style>
<line x1="0" y1="-18" x2="0" y2="-14.25" class="lt-sld-stroke"/>
<line x1="0" y1="14.25" x2="0" y2="18" class="lt-sld-stroke"/>
<line x1="0" y1="14.25" x2="8.25" y2="-8.25" class="lt-sld-stroke-thick" data-sld-role="blade"/>
<circle cx="0" cy="14.25" r="2.1" class="lt-sld-dot"/>
<circle cx="0" cy="-14.25" r="2.1" class="lt-sld-dot"/>
<path d="M 8.25 -8.25 A 4.5 4.5 0 0 0 6 -13.125" stroke-linecap="round" class="lt-sld-stroke lt-sld-ansi-hook"/></g></g>
<text x="180.48309999999992" y="591" class="lt-sld-id-side">CB-358</text>
<text x="180.48309999999992" y="605" class="lt-sld-rating-side">MCCB / 250 A / 3P</text>
<g transform="translate(148.48309999999992, 686)" data-type="ct" data-id="f1ct"><g class="lt-sld-ansi"><style>.lt-sld-ansi .lt-sld-stroke, .lt-sld-ansi .lt-sld-fill { stroke-width: 1.4; }
.lt-sld-ansi .lt-sld-stroke-thick { stroke-width: 1.8; }
.lt-sld-ansi .lt-sld-ansi-fine { stroke-width: 1.4; }
.lt-sld-ansi .lt-sld-ansi-core { stroke-width: 1.4; }
.lt-sld-ansi .lt-sld-ansi-grid { stroke-width: 1.4; }
.lt-sld-ansi .lt-sld-ansi-hook { stroke-width: 1.4; }
.lt-sld-ansi text { dominant-baseline: auto; }
.lt-sld-ansi text[font-weight="600"] { font-weight: 600; }</style>
<line x1="0" y1="-16" x2="0" y2="-4.05" class="lt-sld-stroke"/>
<line x1="0" y1="4.05" x2="0" y2="16" class="lt-sld-stroke"/>
<line stroke-linecap="square" class="lt-sld-stroke lt-sld-ansi-core" x1="-4.05" y1="0" x2="-9.45" y2="0"/>
<circle cx="0" cy="0" r="9" class="lt-sld-fill"/>
<text x="0" y="1.35" font-size="9" font-weight="700" text-anchor="middle" class="lt-sld-symbol-text lt-sld-wdg">CT</text></g></g>
<text x="172.48309999999992" y="683" class="lt-sld-id-side">TA-744</text>
<text x="172.48309999999992" y="697" class="lt-sld-rating-side">3 CTs / 250/5 A</text>
<g transform="translate(87.3655999999999, 778)" data-type="watthour_meter" data-id="f1pm"><g class="lt-sld-ansi"><style>.lt-sld-ansi .lt-sld-stroke, .lt-sld-ansi .lt-sld-fill { stroke-width: 1.4; }
.lt-sld-ansi .lt-sld-stroke-thick { stroke-width: 1.8; }
.lt-sld-ansi .lt-sld-ansi-fine { stroke-width: 1.4; }
.lt-sld-ansi .lt-sld-ansi-core { stroke-width: 1.4; }
.lt-sld-ansi .lt-sld-ansi-grid { stroke-width: 1.4; }
.lt-sld-ansi .lt-sld-ansi-hook { stroke-width: 1.4; }
.lt-sld-ansi text { dominant-baseline: auto; }
.lt-sld-ansi text[font-weight="600"] { font-weight: 600; }</style>
<g><line x1="0" y1="-14" x2="0" y2="-13" class="lt-sld-stroke"/>
<line x1="0" y1="13" x2="0" y2="14" class="lt-sld-stroke"/>
<circle cx="0" cy="0" r="13" class="lt-sld-fill"/>
<text x="0" y="4" font-size="9" font-weight="600" text-anchor="middle" class="lt-sld-symbol-text lt-sld-wdg">Wh</text></g></g></g>
<text x="61.1305999999999" y="808" class="lt-sld-id-side">PM-1053</text>
<text x="68.8255999999999" y="822" class="lt-sld-rating-side">kW / kWh</text>
<g transform="translate(209.6005999999999, 778)" data-type="hub" data-id="f1pnl"><g class="lt-sld-ansi"><style>.lt-sld-ansi .lt-sld-stroke, .lt-sld-ansi .lt-sld-fill { stroke-width: 1.4; }
.lt-sld-ansi .lt-sld-stroke-thick { stroke-width: 1.8; }
.lt-sld-ansi .lt-sld-ansi-fine { stroke-width: 1.4; }
.lt-sld-ansi .lt-sld-ansi-core { stroke-width: 1.4; }
.lt-sld-ansi .lt-sld-ansi-grid { stroke-width: 1.4; }
.lt-sld-ansi .lt-sld-ansi-hook { stroke-width: 1.4; }
.lt-sld-ansi text { dominant-baseline: auto; }
.lt-sld-ansi text[font-weight="600"] { font-weight: 600; }</style>
<g><line x1="0" y1="-20" x2="0" y2="-16" class="lt-sld-stroke"/>
<line x1="0" y1="16" x2="0" y2="20" class="lt-sld-stroke"/>
<rect x="-30" y="-16" width="60" height="32" class="lt-sld-fill"/>
<text x="0" y="4" font-size="11" lengthAdjust="spacingAndGlyphs" font-weight="700" text-anchor="middle" class="lt-sld-symbol-text lt-sld-wdg">FD-909</text></g></g></g>
<text x="275.6005999999999" y="775" class="lt-sld-rating-side">3P+N</text>
<g transform="translate(119.18059999999991, 900)" data-type="load" data-id="f1l1ld"><g class="lt-sld-ansi"><style>.lt-sld-ansi .lt-sld-stroke, .lt-sld-ansi .lt-sld-fill { stroke-width: 1.4; }
.lt-sld-ansi .lt-sld-stroke-thick { stroke-width: 1.8; }
.lt-sld-ansi .lt-sld-ansi-fine { stroke-width: 1.4; }
.lt-sld-ansi .lt-sld-ansi-core { stroke-width: 1.4; }
.lt-sld-ansi .lt-sld-ansi-grid { stroke-width: 1.4; }
.lt-sld-ansi .lt-sld-ansi-hook { stroke-width: 1.4; }
.lt-sld-ansi text { dominant-baseline: auto; }
.lt-sld-ansi text[font-weight="600"] { font-weight: 600; }</style>
<line x1="0" y1="-12" x2="0" y2="-10.4" class="lt-sld-stroke"/>
<line x1="0" y1="10.4" x2="0" y2="12" class="lt-sld-stroke"/>
<path d="M -11.2 -10.4 L 11.2 -10.4 L 0 10.4 Z" stroke-linejoin="miter" class="lt-sld-fill"/></g></g>
<text x="89.0977999999999" y="928" class="lt-sld-id-side">PNL-1468</text>
<text x="61.1305999999999" y="942" class="lt-sld-rating-side">STATION SERVICE / 79 kW</text>
<g transform="translate(292.60059999999993, 900)" data-type="load" data-id="f1l2ld"><g class="lt-sld-ansi"><style>.lt-sld-ansi .lt-sld-stroke, .lt-sld-ansi .lt-sld-fill { stroke-width: 1.4; }
.lt-sld-ansi .lt-sld-stroke-thick { stroke-width: 1.8; }
.lt-sld-ansi .lt-sld-ansi-fine { stroke-width: 1.4; }
.lt-sld-ansi .lt-sld-ansi-core { stroke-width: 1.4; }
.lt-sld-ansi .lt-sld-ansi-grid { stroke-width: 1.4; }
.lt-sld-ansi .lt-sld-ansi-hook { stroke-width: 1.4; }
.lt-sld-ansi text { dominant-baseline: auto; }
.lt-sld-ansi text[font-weight="600"] { font-weight: 600; }</style>
<line x1="0" y1="-12" x2="0" y2="-10.4" class="lt-sld-stroke"/>
<line x1="0" y1="10.4" x2="0" y2="12" class="lt-sld-stroke"/>
<path d="M -11.2 -10.4 L 11.2 -10.4 L 0 10.4 Z" stroke-linejoin="miter" class="lt-sld-fill"/></g></g>
<text x="262.5177999999999" y="928" class="lt-sld-id-side">PNL-1475</text>
<text x="221.23059999999992" y="942" class="lt-sld-rating-side">DISTRIBUTION FEEDER / 999 kW</text>
<g transform="translate(462.8975, 594)" data-type="breaker" data-id="f2cb"><g class="lt-sld-ansi"><style>.lt-sld-ansi .lt-sld-stroke, .lt-sld-ansi .lt-sld-fill { stroke-width: 1.4; }
.lt-sld-ansi .lt-sld-stroke-thick { stroke-width: 1.8; }
.lt-sld-ansi .lt-sld-ansi-fine { stroke-width: 1.4; }
.lt-sld-ansi .lt-sld-ansi-core { stroke-width: 1.4; }
.lt-sld-ansi .lt-sld-ansi-grid { stroke-width: 1.4; }
.lt-sld-ansi .lt-sld-ansi-hook { stroke-width: 1.4; }
.lt-sld-ansi text { dominant-baseline: auto; }
.lt-sld-ansi text[font-weight="600"] { font-weight: 600; }</style>
<line x1="0" y1="-18" x2="0" y2="-14.25" class="lt-sld-stroke"/>
<line x1="0" y1="14.25" x2="0" y2="18" class="lt-sld-stroke"/>
<line x1="0" y1="14.25" x2="8.25" y2="-8.25" class="lt-sld-stroke-thick" data-sld-role="blade"/>
<circle cx="0" cy="14.25" r="2.1" class="lt-sld-dot"/>
<circle cx="0" cy="-14.25" r="2.1" class="lt-sld-dot"/>
<path d="M 8.25 -8.25 A 4.5 4.5 0 0 0 6 -13.125" stroke-linecap="round" class="lt-sld-stroke lt-sld-ansi-hook"/></g></g>
<text x="494.8975" y="591" class="lt-sld-id-side">CB-301</text>
<text x="494.8975" y="605" class="lt-sld-rating-side">MCCB / 63 A / 3P</text>
<g transform="translate(462.8975, 686)" data-type="ct" data-id="f2ct"><g class="lt-sld-ansi"><style>.lt-sld-ansi .lt-sld-stroke, .lt-sld-ansi .lt-sld-fill { stroke-width: 1.4; }
.lt-sld-ansi .lt-sld-stroke-thick { stroke-width: 1.8; }
.lt-sld-ansi .lt-sld-ansi-fine { stroke-width: 1.4; }
.lt-sld-ansi .lt-sld-ansi-core { stroke-width: 1.4; }
.lt-sld-ansi .lt-sld-ansi-grid { stroke-width: 1.4; }
.lt-sld-ansi .lt-sld-ansi-hook { stroke-width: 1.4; }
.lt-sld-ansi text { dominant-baseline: auto; }
.lt-sld-ansi text[font-weight="600"] { font-weight: 600; }</style>
<line x1="0" y1="-16" x2="0" y2="-4.05" class="lt-sld-stroke"/>
<line x1="0" y1="4.05" x2="0" y2="16" class="lt-sld-stroke"/>
<line stroke-linecap="square" class="lt-sld-stroke lt-sld-ansi-core" x1="-4.05" y1="0" x2="-9.45" y2="0"/>
<circle cx="0" cy="0" r="9" class="lt-sld-fill"/>
<text x="0" y="1.35" font-size="9" font-weight="700" text-anchor="middle" class="lt-sld-symbol-text lt-sld-wdg">CT</text></g></g>
<text x="486.8975" y="683" class="lt-sld-id-side">TA-732</text>
<text x="486.8975" y="697" class="lt-sld-rating-side">3 CTs / 63/5 A</text>
<g transform="translate(390.60999999999996, 778)" data-type="watthour_meter" data-id="f2pm"><g class="lt-sld-ansi"><style>.lt-sld-ansi .lt-sld-stroke, .lt-sld-ansi .lt-sld-fill { stroke-width: 1.4; }
.lt-sld-ansi .lt-sld-stroke-thick { stroke-width: 1.8; }
.lt-sld-ansi .lt-sld-ansi-fine { stroke-width: 1.4; }
.lt-sld-ansi .lt-sld-ansi-core { stroke-width: 1.4; }
.lt-sld-ansi .lt-sld-ansi-grid { stroke-width: 1.4; }
.lt-sld-ansi .lt-sld-ansi-hook { stroke-width: 1.4; }
.lt-sld-ansi text { dominant-baseline: auto; }
.lt-sld-ansi text[font-weight="600"] { font-weight: 600; }</style>
<g><line x1="0" y1="-14" x2="0" y2="-13" class="lt-sld-stroke"/>
<line x1="0" y1="13" x2="0" y2="14" class="lt-sld-stroke"/>
<circle cx="0" cy="0" r="13" class="lt-sld-fill"/>
<text x="0" y="4" font-size="9" font-weight="600" text-anchor="middle" class="lt-sld-symbol-text lt-sld-wdg">Wh</text></g></g></g>
<text x="364.37499999999994" y="808" class="lt-sld-id-side">PM-1070</text>
<text x="372.06999999999994" y="822" class="lt-sld-rating-side">kW / kWh</text>
<g transform="translate(486.84499999999997, 778)" data-type="sectionalizer" data-id="f2pr"><g class="lt-sld-ansi"><style>.lt-sld-ansi .lt-sld-stroke, .lt-sld-ansi .lt-sld-fill { stroke-width: 1.4; }
.lt-sld-ansi .lt-sld-stroke-thick { stroke-width: 1.8; }
.lt-sld-ansi .lt-sld-ansi-fine { stroke-width: 1.4; }
.lt-sld-ansi .lt-sld-ansi-core { stroke-width: 1.4; }
.lt-sld-ansi .lt-sld-ansi-grid { stroke-width: 1.4; }
.lt-sld-ansi .lt-sld-ansi-hook { stroke-width: 1.4; }
.lt-sld-ansi text { dominant-baseline: auto; }
.lt-sld-ansi text[font-weight="600"] { font-weight: 600; }</style>
<line x1="0" y1="-18" x2="0" y2="-14.25" class="lt-sld-stroke"/>
<line x1="0" y1="14.25" x2="0" y2="18" class="lt-sld-stroke"/>
<line x1="0" y1="14.25" x2="8.25" y2="-8.25" class="lt-sld-stroke-thick" data-sld-role="blade"/>
<circle cx="0" cy="14.25" r="2.1" class="lt-sld-dot"/>
<circle cx="0" cy="-14.25" r="2.1" class="lt-sld-dot"/>
<text x="18" y="2.625" font-size="9" font-weight="700" text-anchor="middle" class="lt-sld-symbol-text lt-sld-wdg">S</text></g></g>
<text x="526.845" y="775" class="lt-sld-id-side">CB-353</text>
<text x="526.845" y="789" class="lt-sld-rating-side">63 A</text>
<g transform="translate(486.84499999999997, 900)" data-type="load" data-id="f2l1ld"><g class="lt-sld-ansi"><style>.lt-sld-ansi .lt-sld-stroke, .lt-sld-ansi .lt-sld-fill { stroke-width: 1.4; }
.lt-sld-ansi .lt-sld-stroke-thick { stroke-width: 1.8; }
.lt-sld-ansi .lt-sld-ansi-fine { stroke-width: 1.4; }
.lt-sld-ansi .lt-sld-ansi-core { stroke-width: 1.4; }
.lt-sld-ansi .lt-sld-ansi-grid { stroke-width: 1.4; }
.lt-sld-ansi .lt-sld-ansi-hook { stroke-width: 1.4; }
.lt-sld-ansi text { dominant-baseline: auto; }
.lt-sld-ansi text[font-weight="600"] { font-weight: 600; }</style>
<line x1="0" y1="-12" x2="0" y2="-10.4" class="lt-sld-stroke"/>
<line x1="0" y1="10.4" x2="0" y2="12" class="lt-sld-stroke"/>
<path d="M -11.2 -10.4 L 11.2 -10.4 L 0 10.4 Z" stroke-linejoin="miter" class="lt-sld-fill"/></g></g>
<text x="456.76219999999995" y="928" class="lt-sld-id-side">PNL-1402</text>
<text x="412.50499999999994" y="942" class="lt-sld-rating-side">DISTRIBUTION FEEDER / 1042 kW</text>
<g transform="translate(754.3369, 594)" data-type="breaker" data-id="f3cb"><g class="lt-sld-ansi"><style>.lt-sld-ansi .lt-sld-stroke, .lt-sld-ansi .lt-sld-fill { stroke-width: 1.4; }
.lt-sld-ansi .lt-sld-stroke-thick { stroke-width: 1.8; }
.lt-sld-ansi .lt-sld-ansi-fine { stroke-width: 1.4; }
.lt-sld-ansi .lt-sld-ansi-core { stroke-width: 1.4; }
.lt-sld-ansi .lt-sld-ansi-grid { stroke-width: 1.4; }
.lt-sld-ansi .lt-sld-ansi-hook { stroke-width: 1.4; }
.lt-sld-ansi text { dominant-baseline: auto; }
.lt-sld-ansi text[font-weight="600"] { font-weight: 600; }</style>
<line x1="0" y1="-18" x2="0" y2="-14.25" class="lt-sld-stroke"/>
<line x1="0" y1="14.25" x2="0" y2="18" class="lt-sld-stroke"/>
<line x1="0" y1="14.25" x2="8.25" y2="-8.25" class="lt-sld-stroke-thick" data-sld-role="blade"/>
<circle cx="0" cy="14.25" r="2.1" class="lt-sld-dot"/>
<circle cx="0" cy="-14.25" r="2.1" class="lt-sld-dot"/>
<path d="M 8.25 -8.25 A 4.5 4.5 0 0 0 6 -13.125" stroke-linecap="round" class="lt-sld-stroke lt-sld-ansi-hook"/></g></g>
<text x="786.3369" y="591" class="lt-sld-id-side">CB-357</text>
<text x="786.3369" y="605" class="lt-sld-rating-side">MCCB / 100 A / 3P</text>
<g transform="translate(754.3369, 686)" data-type="ct" data-id="f3ct"><g class="lt-sld-ansi"><style>.lt-sld-ansi .lt-sld-stroke, .lt-sld-ansi .lt-sld-fill { stroke-width: 1.4; }
.lt-sld-ansi .lt-sld-stroke-thick { stroke-width: 1.8; }
.lt-sld-ansi .lt-sld-ansi-fine { stroke-width: 1.4; }
.lt-sld-ansi .lt-sld-ansi-core { stroke-width: 1.4; }
.lt-sld-ansi .lt-sld-ansi-grid { stroke-width: 1.4; }
.lt-sld-ansi .lt-sld-ansi-hook { stroke-width: 1.4; }
.lt-sld-ansi text { dominant-baseline: auto; }
.lt-sld-ansi text[font-weight="600"] { font-weight: 600; }</style>
<line x1="0" y1="-16" x2="0" y2="-4.05" class="lt-sld-stroke"/>
<line x1="0" y1="4.05" x2="0" y2="16" class="lt-sld-stroke"/>
<line stroke-linecap="square" class="lt-sld-stroke lt-sld-ansi-core" x1="-4.05" y1="0" x2="-9.45" y2="0"/>
<circle cx="0" cy="0" r="9" class="lt-sld-fill"/>
<text x="0" y="1.35" font-size="9" font-weight="700" text-anchor="middle" class="lt-sld-symbol-text lt-sld-wdg">CT</text></g></g>
<text x="778.3369" y="683" class="lt-sld-id-side">TA-743</text>
<text x="778.3369" y="697" class="lt-sld-rating-side">3 CTs / 100/5 A</text>
<g transform="translate(690.1944000000001, 778)" data-type="watthour_meter" data-id="f3pm"><g class="lt-sld-ansi"><style>.lt-sld-ansi .lt-sld-stroke, .lt-sld-ansi .lt-sld-fill { stroke-width: 1.4; }
.lt-sld-ansi .lt-sld-stroke-thick { stroke-width: 1.8; }
.lt-sld-ansi .lt-sld-ansi-fine { stroke-width: 1.4; }
.lt-sld-ansi .lt-sld-ansi-core { stroke-width: 1.4; }
.lt-sld-ansi .lt-sld-ansi-grid { stroke-width: 1.4; }
.lt-sld-ansi .lt-sld-ansi-hook { stroke-width: 1.4; }
.lt-sld-ansi text { dominant-baseline: auto; }
.lt-sld-ansi text[font-weight="600"] { font-weight: 600; }</style>
<g><line x1="0" y1="-14" x2="0" y2="-13" class="lt-sld-stroke"/>
<line x1="0" y1="13" x2="0" y2="14" class="lt-sld-stroke"/>
<circle cx="0" cy="0" r="13" class="lt-sld-fill"/>
<text x="0" y="4" font-size="9" font-weight="600" text-anchor="middle" class="lt-sld-symbol-text lt-sld-wdg">Wh</text></g></g></g>
<text x="663.9594000000001" y="808" class="lt-sld-id-side">PM-1031</text>
<text x="671.6544000000001" y="822" class="lt-sld-rating-side">kW / kWh</text>
<g transform="translate(818.4794000000002, 778)" data-type="load" data-id="f3l1ld"><g class="lt-sld-ansi"><style>.lt-sld-ansi .lt-sld-stroke, .lt-sld-ansi .lt-sld-fill { stroke-width: 1.4; }
.lt-sld-ansi .lt-sld-stroke-thick { stroke-width: 1.8; }
.lt-sld-ansi .lt-sld-ansi-fine { stroke-width: 1.4; }
.lt-sld-ansi .lt-sld-ansi-core { stroke-width: 1.4; }
.lt-sld-ansi .lt-sld-ansi-grid { stroke-width: 1.4; }
.lt-sld-ansi .lt-sld-ansi-hook { stroke-width: 1.4; }
.lt-sld-ansi text { dominant-baseline: auto; }
.lt-sld-ansi text[font-weight="600"] { font-weight: 600; }</style>
<line x1="0" y1="-12" x2="0" y2="-10.4" class="lt-sld-stroke"/>
<line x1="0" y1="10.4" x2="0" y2="12" class="lt-sld-stroke"/>
<path d="M -11.2 -10.4 L 11.2 -10.4 L 0 10.4 Z" stroke-linejoin="miter" class="lt-sld-fill"/></g></g>
<text x="788.3966000000001" y="806" class="lt-sld-id-side">PNL-1463</text>
<text x="760.4294000000002" y="820" class="lt-sld-rating-side">STATION SERVICE / 80 kW</text></g></svg>